<?xml version="1.0" encoding="UTF-8"?>
<!DOCTYPE svg PUBLIC "-//W3C//DTD SVG 1.1//EN" "http://www.w3.org/Graphics/SVG/1.1/DTD/svg11.dtd">
<!-- Creator: CorelDRAW -->
<svg xmlns="http://www.w3.org/2000/svg" xml:space="preserve" width="4675px" height="4675px" version="1.1" style="shape-rendering:geometricPrecision; text-rendering:geometricPrecision; image-rendering:optimizeQuality; fill-rule:evenodd; clip-rule:evenodd"
viewBox="0 0 4675 4675"
 xmlns:xlink="http://www.w3.org/1999/xlink"
 xmlns:xodm="http://www.corel.com/coreldraw/odm/2003">
 <defs>
  <style type="text/css">
   <![CDATA[
    .fil7 {fill:#96989A;fill-rule:nonzero}
    .fil2 {fill:#F48134;fill-rule:nonzero}
    .fil1 {fill:#FAC02F;fill-rule:nonzero}
    .fil0 {fill:#F7D562;fill-rule:nonzero}
    .fil18 {fill:#F7D560;fill-rule:nonzero}
    .fil6 {fill:#F0D0C7;fill-rule:nonzero}
    .fil19 {fill:#EB9336;fill-rule:nonzero}
    .fil10 {fill:#D43439;fill-rule:nonzero}
    .fil13 {fill:#BD66A7;fill-rule:nonzero}
    .fil17 {fill:#9BD5E0;fill-rule:nonzero}
    .fil8 {fill:#96989B;fill-rule:nonzero}
    .fil5 {fill:#8BB455;fill-rule:nonzero}
    .fil15 {fill:#8BB356;fill-rule:nonzero}
    .fil9 {fill:#774A9B;fill-rule:nonzero}
    .fil14 {fill:#4DBFA7;fill-rule:nonzero}
    .fil3 {fill:#5D8DA5;fill-rule:nonzero}
    .fil4 {fill:#5B8DA5;fill-rule:nonzero}
    .fil12 {fill:#50A651;fill-rule:nonzero}
    .fil16 {fill:#488BC9;fill-rule:nonzero}
    .fil11 {fill:#3C7ABD;fill-rule:nonzero}
    .fil20 {fill:#3478BC;fill-rule:nonzero}
   ]]>
  </style>
 </defs>
 <g id="Capa_x0020_1">
  <metadata id="CorelCorpID_0Corel-Layer"/>
  <path class="fil0" d="M316.36 365.33c0,30.67 -14.75,55.55 -32.94,55.55 -18.2,0 -32.95,-24.88 -32.95,-55.55 0,-30.66 14.75,-55.54 32.95,-55.54 18.19,0 32.94,24.88 32.94,55.54z"/>
  <path class="fil0" d="M645.82 365.33c0,30.67 -14.75,55.55 -32.95,55.55 -18.19,0 -32.94,-24.88 -32.94,-55.55 0,-30.66 14.75,-55.54 32.94,-55.54 18.2,0 32.95,24.88 32.95,55.54z"/>
  <path class="fil0" d="M561.24 491.29c29.83,0 49.17,31.38 35.88,58.08 -25.03,50.36 -81.63,85.5 -147.44,85.5 -65.8,0 -122.4,-35.14 -147.44,-85.5 -13.28,-26.7 6.06,-58.08 35.88,-58.08l223.12 0z"/>
  <path class="fil0" d="M448.15 116.38c-181.76,0 -329.63,147.83 -329.63,329.58 0,181.77 147.87,329.64 329.63,329.64 181.75,0 329.62,-147.87 329.62,-329.64 0,-181.75 -147.87,-329.58 -329.62,-329.58zm0 677.43c-191.8,0 -347.83,-156.03 -347.83,-347.85 0,-191.79 156.03,-347.79 347.83,-347.79 191.79,0 347.82,156 347.82,347.79 0,191.82 -156.03,347.85 -347.82,347.85z"/>
  <path class="fil1" d="M940.87 362.33c-0.26,-0.62 -0.45,-1.29 -0.57,-1.96 -7.28,-40.87 70.72,-51.29 95.81,-43.41 12.87,4.04 25.8,11.08 36.08,19.83 3.96,3.38 29.45,35.25 11.12,35.67 -2.71,0.08 -5.18,-1.5 -7.39,-3.04 -16.74,-11.84 -25.66,-29.38 -46.77,-34.42 -23.17,-5.54 -48.56,1.96 -64.74,19.5 -5.11,5.54 -18.01,21.29 -23.54,7.83z"/>
  <path class="fil1" d="M1455.92 362.33c0.26,-0.62 0.46,-1.29 0.57,-1.96 7.28,-40.87 -70.73,-51.29 -95.81,-43.41 -12.88,4.04 -25.8,11.08 -36.08,19.83 -3.96,3.38 -29.45,35.25 -11.12,35.67 2.71,0.08 5.18,-1.5 7.39,-3.04 16.74,-11.84 25.66,-29.38 46.77,-34.42 23.16,-5.54 48.56,1.96 64.74,19.5 5.11,5.54 18,21.29 23.54,7.83z"/>
  <path class="fil1" d="M1050.88 504.92c93.85,32.28 202.93,30.32 296.56,-2 33.96,-11.75 66.43,-28.21 94.91,-50.21 8.87,-6.84 25.16,-21.25 35.59,-7.83 5.96,7.66 0.95,20.45 -3.16,27.79 -9.96,17.87 -27.56,30.45 -43.65,42.35 -21.11,15.63 -44.58,28.04 -68.83,38.03 -41.25,16.98 -85.6,25.83 -130.01,28.81 -16.73,1.12 -33.52,1.42 -50.28,0.91 -0.48,-0.02 -0.96,-0.03 -1.45,-0.05 -23.85,-0.77 -47.65,-3.24 -71.16,-7.37 -44.8,-7.84 -88.46,-23.2 -128.08,-45.55 -4.32,-2.44 -8.62,-4.95 -12.86,-7.53 -14.2,-8.68 -27.89,-17.39 -36.04,-32.56 -2.96,-5.5 -4.63,-12 -2.88,-18 2.98,-10.21 13.96,-13.92 23.53,-11.88 15.08,3.21 27.27,11.92 40.46,19.29 13.94,7.8 28.38,14.67 43.22,20.55 4.7,1.87 9.41,3.62 14.13,5.25z"/>
  <path class="fil1" d="M1204.75 116.38c-181.75,0 -329.62,147.83 -329.62,329.58 0,181.77 147.87,329.64 329.62,329.64 181.76,0 329.63,-147.87 329.63,-329.64 0,-181.75 -147.87,-329.58 -329.63,-329.58zm0 677.43c-191.79,0 -347.83,-156.03 -347.83,-347.85 0,-191.79 156.04,-347.79 347.83,-347.79 191.8,0 347.84,156 347.84,347.79 0,191.82 -156.04,347.85 -347.84,347.85z"/>
  <path class="fil2" d="M1825.52 393.67c0,30.66 -14.75,55.54 -32.95,55.54 -18.19,0 -32.95,-24.88 -32.95,-55.54 0,-30.67 14.76,-55.55 32.95,-55.55 18.2,0 32.95,24.88 32.95,55.55z"/>
  <path class="fil2" d="M2154.98 393.67c0,30.66 -14.75,55.54 -32.95,55.54 -18.2,0 -32.95,-24.88 -32.95,-55.54 0,-30.67 14.75,-55.55 32.95,-55.55 18.2,0 32.95,24.88 32.95,55.55z"/>
  <path class="fil2" d="M1957.3 116.38c-181.75,0 -329.62,147.83 -329.62,329.58 0,181.77 147.87,329.64 329.62,329.64 181.76,0 329.63,-147.87 329.63,-329.64 0,-181.75 -147.87,-329.58 -329.63,-329.58zm0 677.43c-191.79,0 -347.83,-156.03 -347.83,-347.85 0,-191.79 156.04,-347.79 347.83,-347.79 191.8,0 347.83,156 347.83,347.79 0,191.82 -156.03,347.85 -347.83,347.85z"/>
  <path class="fil3" d="M2631.63 455.33l-182.84 0c-5.02,0 -9.1,-4.08 -9.1,-9.08 0,-5.04 4.08,-9.13 9.1,-9.13l182.84 0c5.03,0 9.1,4.09 9.1,9.13 0,5 -4.07,9.08 -9.1,9.08z"/>
  <path class="fil3" d="M2979.03 455.33l-182.84 0c-5.03,0 -9.1,-4.08 -9.1,-9.08 0,-5.04 4.07,-9.13 9.1,-9.13l182.84 0c5.02,0 9.1,4.09 9.1,9.13 0,5 -4.08,9.08 -9.1,9.08z"/>
  <path class="fil3" d="M2631.63 498l-182.84 0c-5.02,0 -9.1,-4.08 -9.1,-9.08 0,-5.04 4.08,-9.13 9.1,-9.13l182.84 0c5.03,0 9.1,4.09 9.1,9.13 0,5 -4.07,9.08 -9.1,9.08z"/>
  <path class="fil3" d="M2979.03 498l-182.84 0c-5.03,0 -9.1,-4.08 -9.1,-9.08 0,-5.04 4.07,-9.13 9.1,-9.13l182.84 0c5.02,0 9.1,4.09 9.1,9.13 0,5 -4.08,9.08 -9.1,9.08z"/>
  <path class="fil4" d="M2937.85 321.88c0,36.66 -14.68,47.08 -34.87,47.08 -20.2,0 -38.27,-10.42 -38.27,-47.08 0,-36.67 15.02,-112.42 35.22,-112.42 20.2,0 37.92,75.75 37.92,112.42z"/>
  <path class="fil3" d="M2713.91 116.38c-181.75,0 -329.62,147.83 -329.62,329.58 0,181.77 147.87,329.64 329.62,329.64 181.75,0 329.63,-147.87 329.63,-329.64 0,-181.75 -147.88,-329.58 -329.63,-329.58zm0 677.43c-191.79,0 -347.83,-156.03 -347.83,-347.85 0,-191.79 156.04,-347.79 347.83,-347.79 191.8,0 347.83,156 347.83,347.79 0,191.82 -156.03,347.85 -347.83,347.85z"/>
  <path class="fil5" d="M3397.56 414.92c-2.51,0 -5.03,-0.96 -6.95,-2.88l-92.82 -92.83c-3.84,-3.84 -3.84,-10.08 0,-13.92 3.83,-3.83 10.06,-3.83 13.89,0l92.83 92.83c3.84,3.84 3.84,10.09 0,13.92 -1.92,1.92 -4.43,2.88 -6.95,2.88z"/>
  <path class="fil5" d="M3304.73 414.92c-2.51,0 -5.03,-0.96 -6.94,-2.88 -3.84,-3.83 -3.84,-10.08 0,-13.92l92.82 -92.83c3.84,-3.83 10.07,-3.83 13.9,0 3.84,3.84 3.84,10.08 0,13.92l-92.83 92.83c-1.91,1.92 -4.43,2.88 -6.95,2.88z"/>
  <path class="fil5" d="M3642.75 414.92c-2.51,0 -5.02,-0.96 -6.94,-2.88l-92.83 -92.83c-3.84,-3.84 -3.84,-10.08 0,-13.92 3.84,-3.83 10.07,-3.83 13.9,0l92.82 92.83c3.85,3.84 3.85,10.09 0,13.92 -1.91,1.92 -4.43,2.88 -6.95,2.88z"/>
  <path class="fil5" d="M3549.93 414.92c-2.52,0 -5.03,-0.96 -6.95,-2.88 -3.84,-3.83 -3.84,-10.08 0,-13.92l92.83 -92.83c3.83,-3.83 10.06,-3.83 13.89,0 3.85,3.84 3.85,10.08 0,13.92l-92.82 92.83c-1.92,1.92 -4.43,2.88 -6.95,2.88z"/>
  <path class="fil5" d="M3630.98 577.15c-19.71,0 -38.9,-13.9 -46.58,-19.46 -14.09,-10.21 -33.28,-20.56 -44.75,-11.85 -2.83,2.15 -5.26,5.63 -7.83,9.32 -2.87,4.11 -6.13,8.78 -10.67,12.62 -16.7,14.13 -40.3,9.96 -56.81,1.34 -6.8,-3.55 -13.01,-7.81 -19.02,-11.92 -7.37,-5.06 -14.34,-9.83 -21.88,-13.01 -18.93,-8 -42.52,-4.86 -58.71,7.8 -2.1,1.65 -4.17,3.48 -6.35,5.43 -5.48,4.88 -11.68,10.41 -19.7,13.59 -23.57,9.36 -43.88,-5.3 -61.82,-18.23 -10.51,-7.57 -21.36,-15.41 -32.19,-18.26 -18.1,-4.79 -39.78,7.13 -45.44,24.99 -1.65,5.17 -7.18,8.04 -12.35,6.39 -5.17,-1.65 -8.03,-7.17 -6.38,-12.35 8.94,-28.14 40.63,-45.55 69.17,-38.03 14.36,3.78 26.73,12.69 38.69,21.32 18.36,13.24 30.42,20.92 43.06,15.91 4.79,-1.91 9.2,-5.84 13.88,-10 2.32,-2.07 4.72,-4.21 7.32,-6.24 21.97,-17.18 52.77,-21.28 78.46,-10.44 9.37,3.96 17.5,9.53 25.36,14.91 5.78,3.97 11.24,7.7 17,10.72 11.17,5.82 26.33,8.42 35.01,1.08 2.59,-2.19 4.85,-5.43 7.25,-8.86 3.18,-4.55 6.77,-9.72 12.08,-13.74 11.62,-8.82 32.87,-13.96 68.15,11.59 20.61,14.94 35.75,19.18 45.03,12.66 2.73,-1.93 5.19,-5.05 7.8,-8.35 1.53,-1.94 3.07,-3.88 4.71,-5.71 13.87,-15.45 36.74,-21.91 59.61,-16.84 22.91,5.07 40.9,20.56 46.95,40.42 1.58,5.2 -1.35,10.69 -6.54,12.27 -5.2,1.6 -10.68,-1.34 -12.26,-6.54 -3.99,-13.08 -16.4,-23.41 -32.39,-26.96 -15.97,-3.54 -31.6,0.59 -40.74,10.78 -1.37,1.53 -2.64,3.15 -3.92,4.76 -3.2,4.06 -6.83,8.66 -11.9,12.23 -6.81,4.81 -14.09,6.66 -21.3,6.66z"/>
  <path class="fil5" d="M3470.24 116.38c-181.75,0 -329.62,147.83 -329.62,329.58 0,181.77 147.87,329.64 329.62,329.64 181.76,0 329.63,-147.87 329.63,-329.64 0,-181.75 -147.87,-329.58 -329.63,-329.58zm0 677.43c-191.79,0 -347.83,-156.03 -347.83,-347.85 0,-191.79 156.04,-347.79 347.83,-347.79 191.79,0 347.83,156 347.83,347.79 0,191.82 -156.04,347.85 -347.83,347.85z"/>
  <path class="fil6" d="M3970.85 586.92c-1.47,0 -2.97,-0.33 -4.38,-1.04 -4.86,-2.43 -6.83,-8.33 -4.4,-13.19l32.51 -65.02c2.42,-4.84 8.32,-6.84 13.19,-4.38 4.85,2.42 6.81,8.33 4.38,13.18l-32.5 65.01c-1.72,3.45 -5.19,5.44 -8.8,5.44z"/>
  <path class="fil6" d="M4023.68 586.92c-1.48,0 -2.98,-0.33 -4.39,-1.04 -4.86,-2.43 -6.82,-8.33 -4.39,-13.19l32.5 -65.02c2.42,-4.84 8.31,-6.84 13.19,-4.38 4.85,2.42 6.82,8.33 4.39,13.18l-32.51 65.01c-1.72,3.45 -5.19,5.44 -8.79,5.44z"/>
  <path class="fil6" d="M4076.5 586.92c-1.48,0 -2.98,-0.33 -4.39,-1.04 -4.85,-2.43 -6.82,-8.33 -4.39,-13.19l32.5 -65.02c2.43,-4.84 8.32,-6.84 13.19,-4.38 4.85,2.42 6.82,8.33 4.39,13.18l-32.5 65.01c-1.73,3.45 -5.2,5.44 -8.8,5.44z"/>
  <path class="fil6" d="M4344.67 586.92c-1.46,0 -2.96,-0.33 -4.38,-1.04 -4.87,-2.43 -6.83,-8.33 -4.37,-13.19l32.5 -65.02c2.41,-4.84 8.29,-6.84 13.16,-4.38 4.88,2.42 6.84,8.33 4.42,13.18l-32.54 65.01c-1.71,3.45 -5.17,5.44 -8.79,5.44z"/>
  <path class="fil6" d="M4397.5 586.92c-1.46,0 -2.96,-0.33 -4.37,-1.04 -4.88,-2.43 -6.84,-8.33 -4.42,-13.19l32.5 -65.02c2.46,-4.84 8.33,-6.84 13.21,-4.38 4.83,2.42 6.83,8.33 4.37,13.18l-32.5 65.01c-1.71,3.45 -5.17,5.44 -8.79,5.44z"/>
  <path class="fil6" d="M4450.33 586.92c-1.5,0 -3,-0.33 -4.41,-1.04 -4.84,-2.43 -6.79,-8.33 -4.38,-13.19l32.5 -65.02c2.42,-4.84 8.34,-6.84 13.21,-4.38 4.83,2.42 6.79,8.33 4.38,13.18l-32.5 65.01c-1.71,3.45 -5.21,5.44 -8.8,5.44z"/>
  <path class="fil6" d="M4176.87 399.88c8.3,14.08 12.3,34.37 -0.04,45.08 -10.12,8.79 -25.35,6.16 -38.66,4.66 -33.58,-3.83 -68.29,3.09 -97.84,19.5 -1.91,1.05 -3.86,2.17 -6.01,2.59 -4.38,0.75 -8.96,-1.84 -11.18,-5.67 -4.09,-7.12 -0.36,-16.62 6.08,-21.71 6.44,-5.04 14.82,-6.75 22.86,-8.33 33.89,-6.54 69.08,-13.04 102.59,-4.75 1.61,0.42 3.31,0.88 4.91,0.42 5.37,-1.46 3.95,-9.59 0.77,-14.13 -11.16,-15.96 -29.25,-25.75 -47.74,-31.79 -15.18,-4.96 -57.74,-5.92 -67.14,-19.29 -12.38,-17.63 23.63,-27.21 36.1,-26.5 35.08,1.96 77.88,30.33 95.3,59.92z"/>
  <path class="fil6" d="M4289.5 399.88c-8.29,14.08 -12.29,34.37 0.04,45.08 10.13,8.79 25.38,6.16 38.67,4.66 33.58,-3.83 68.29,3.09 97.83,19.5 1.92,1.05 3.88,2.17 6.04,2.59 4.38,0.75 8.96,-1.84 11.17,-5.67 4.08,-7.12 0.38,-16.62 -6.08,-21.71 -6.42,-5.04 -14.84,-6.75 -22.88,-8.33 -33.87,-6.54 -69.08,-13.04 -102.58,-4.75 -1.58,0.42 -3.29,0.88 -4.92,0.42 -5.33,-1.46 -3.92,-9.59 -0.75,-14.13 11.17,-15.96 29.25,-25.75 47.75,-31.79 15.17,-4.96 57.71,-5.92 67.13,-19.29 12.37,-17.63 -23.63,-27.21 -36.09,-26.5 -35.08,1.96 -77.87,30.33 -95.33,59.92z"/>
  <path class="fil6" d="M4226.83 116.38c-181.73,0 -329.6,147.83 -329.6,329.58 0,181.77 147.87,329.64 329.6,329.64 181.75,0 329.63,-147.87 329.63,-329.64 0,-181.75 -147.88,-329.58 -329.63,-329.58zm0 677.43c-191.77,0 -347.81,-156.03 -347.81,-347.85 0,-191.79 156.04,-347.79 347.81,-347.79 191.8,0 347.84,156 347.84,347.79 0,191.82 -156.04,347.85 -347.84,347.85z"/>
  <path class="fil7" d="M588.3 1353.67c17.52,0 30.62,-16.56 26.08,-33.49 -16.93,-63.13 -80.7,-110.08 -156.77,-110.08 -76.07,0 -139.84,46.95 -156.77,110.08 -4.54,16.93 8.55,33.49 26.07,33.49l99.28 -13.27c19.88,-2.65 40.02,-2.68 59.9,-0.09l102.21 13.36z"/>
  <path class="fil7" d="M324.59 1064.08c15.99,-10.98 28.51,-26.16 41.94,-40.15 2.03,-2.12 4.31,-4.33 7.22,-4.76 3.93,-0.58 7.7,2.5 9.13,6.21 1.44,3.71 1.05,7.86 0.39,11.78 -5.84,34.57 -31.38,63.25 -61.36,81.42 -15.98,9.69 -33.75,17.01 -52.38,18.5 -17.28,1.39 -36.66,-2.54 -50.31,-13.81 -11.73,-9.68 -18.03,-26 -1.46,-32.79 13.85,-5.68 35.44,-2.46 50.38,-5.13 19.93,-3.57 39.62,-9.7 56.45,-21.27z"/>
  <path class="fil7" d="M571.7 1064.08c-15.98,-10.98 -28.51,-26.16 -41.93,-40.15 -2.04,-2.12 -4.32,-4.33 -7.22,-4.76 -3.94,-0.58 -7.7,2.5 -9.14,6.21 -1.43,3.71 -1.05,7.86 -0.39,11.78 5.84,34.57 31.38,63.25 61.37,81.42 15.98,9.69 33.75,17.01 52.38,18.5 17.28,1.39 36.65,-2.54 50.3,-13.81 11.74,-9.68 18.03,-26 1.46,-32.79 -13.84,-5.68 -35.44,-2.46 -50.38,-5.13 -19.93,-3.57 -39.62,-9.7 -56.45,-21.27z"/>
  <path class="fil8" d="M448.15 872.96c-181.76,0 -329.63,147.87 -329.63,329.63 0,181.75 147.87,329.62 329.63,329.62 181.75,0 329.62,-147.87 329.62,-329.62 0,-181.76 -147.87,-329.63 -329.62,-329.63zm0 677.46c-191.8,0 -347.83,-156.04 -347.83,-347.83 0,-191.8 156.03,-347.83 347.83,-347.83 191.79,0 347.83,156.03 347.83,347.83 0,191.79 -156.04,347.83 -347.83,347.83z"/>
  <path class="fil9" d="M1072.97 1080.41c0,30.67 -14.75,55.53 -32.95,55.53 -18.19,0 -32.94,-24.86 -32.94,-55.53 0,-30.67 14.75,-55.53 32.94,-55.53 18.2,0 32.95,24.86 32.95,55.53z"/>
  <path class="fil9" d="M1402.43 1080.41c0,30.67 -14.75,55.53 -32.95,55.53 -18.19,0 -32.94,-24.86 -32.94,-55.53 0,-30.67 14.75,-55.53 32.94,-55.53 18.2,0 32.95,24.86 32.95,55.53z"/>
  <path class="fil9" d="M1048.37 1210.09c-31.28,0 -56.73,25.46 -56.73,56.74l0 0.99c0,31.28 25.45,56.73 56.73,56.73l312.76 0c31.29,0 56.74,-25.45 56.74,-56.73l0 -0.99c0,-31.28 -25.45,-56.74 -56.74,-56.74l-312.76 0zm312.76 132.67l-312.76 0c-41.32,0 -74.94,-33.62 -74.94,-74.94l0 -0.99c0,-41.32 33.62,-74.94 74.94,-74.94l312.76 0c41.33,0 74.95,33.62 74.95,74.94l0 0.99c0,41.32 -33.62,74.94 -74.95,74.94z"/>
  <polygon class="fil9" points="1423.65,1276.92 982.53,1276.92 982.53,1258.72 1423.65,1258.72 "/>
  <polygon class="fil9" points="1074.55,1332.55 1056.35,1332.55 1056.35,1205.41 1074.55,1205.41 "/>
  <polygon class="fil9" points="1147.52,1332.55 1129.32,1332.55 1129.32,1205.41 1147.52,1205.41 "/>
  <polygon class="fil9" points="1220.49,1332.55 1202.28,1332.55 1202.28,1205.41 1220.49,1205.41 "/>
  <polygon class="fil9" points="1293.45,1332.55 1275.25,1332.55 1275.25,1205.41 1293.45,1205.41 "/>
  <polygon class="fil9" points="1366.42,1332.55 1348.22,1332.55 1348.22,1205.41 1366.42,1205.41 "/>
  <path class="fil9" d="M1204.75 872.96c-181.75,0 -329.62,147.87 -329.62,329.63 0,181.75 147.87,329.62 329.62,329.62 181.76,0 329.63,-147.87 329.63,-329.62 0,-181.76 -147.87,-329.63 -329.63,-329.63zm0 677.46c-191.79,0 -347.83,-156.04 -347.83,-347.83 0,-191.8 156.04,-347.83 347.83,-347.83 191.8,0 347.84,156.03 347.84,347.83 0,191.79 -156.04,347.83 -347.84,347.83z"/>
  <path class="fil6" d="M1850.72 1150.95c-15.45,0 -29,25.44 -29,54.44 0,29 13.55,54.44 29,54.44 15.44,0 28.98,-25.44 28.98,-54.44 0,-29 -13.54,-54.44 -28.98,-54.44zm0 125.14c-25.37,0 -45.25,-31.06 -45.25,-70.7 0,-39.64 19.88,-70.69 45.25,-70.69 25.37,0 45.25,31.05 45.25,70.69 0,39.64 -19.88,70.7 -45.25,70.7z"/>
  <path class="fil6" d="M2096.07 1150.95c-15.44,0 -28.99,25.44 -28.99,54.44 0,29 13.55,54.44 28.99,54.44 15.45,0 29,-25.44 29,-54.44 0,-29 -13.55,-54.44 -29,-54.44zm0 125.14c-25.37,0 -45.24,-31.06 -45.24,-70.7 0,-39.64 19.87,-70.69 45.24,-70.69 25.38,0 45.25,31.05 45.25,70.69 0,39.64 -19.87,70.7 -45.25,70.7z"/>
  <path class="fil6" d="M1850.72 1167.58c-9.05,0 -19.13,15.53 -19.13,37.81 0,22.28 10.08,37.81 19.13,37.81 9.04,0 19.12,-15.53 19.12,-37.81 0,-22.28 -10.08,-37.81 -19.12,-37.81zm0 91.87c-19.85,0 -35.39,-23.74 -35.39,-54.06 0,-30.31 15.54,-54.07 35.39,-54.07 19.84,0 35.38,23.76 35.38,54.07 0,30.32 -15.54,54.06 -35.38,54.06z"/>
  <path class="fil6" d="M2096.35 1167.58c-9.05,0 -19.12,15.53 -19.12,37.81 0,22.28 10.07,37.81 19.12,37.81 9.04,0 19.12,-15.53 19.12,-37.81 0,-22.28 -10.08,-37.81 -19.12,-37.81zm0 91.87c-19.84,0 -35.38,-23.74 -35.38,-54.06 0,-30.31 15.54,-54.07 35.38,-54.07 19.84,0 35.38,23.76 35.38,54.07 0,30.32 -15.54,54.06 -35.38,54.06z"/>
  <path class="fil6" d="M2213.99 1067.72c0,30.33 -12.15,38.94 -28.86,38.94 -16.7,0 -31.65,-8.61 -31.65,-38.94 0,-30.31 12.43,-92.98 29.14,-92.98 16.7,0 31.37,62.67 31.37,92.98z"/>
  <path class="fil6" d="M2014.13 999.05c0,23.59 -9.44,30.29 -22.43,30.29 -13,0 -24.62,-6.7 -24.62,-30.29 0,-23.58 9.66,-72.32 22.66,-72.32 12.99,0 24.39,48.74 24.39,72.32z"/>
  <path class="fil6" d="M1802.2 1069.17c0,23.53 -9.43,30.21 -22.39,30.21 -12.96,0 -24.56,-6.68 -24.56,-30.21 0,-23.53 9.64,-72.17 22.6,-72.17 12.97,0 24.35,48.64 24.35,72.17z"/>
  <path class="fil6" d="M1905.78 1035.73c0,16.17 -6.48,20.77 -15.39,20.77 -8.91,0 -16.89,-4.6 -16.89,-20.77 0,-16.18 6.63,-49.62 15.55,-49.62 8.9,0 16.73,33.44 16.73,49.62z"/>
  <path class="fil6" d="M2085.6 1065.2c0,16.18 -6.48,20.77 -15.4,20.77 -8.91,0 -16.88,-4.59 -16.88,-20.77 0,-16.18 6.63,-49.61 15.54,-49.61 8.91,0 16.74,33.43 16.74,49.61z"/>
  <path class="fil6" d="M1686.29 1354.69c-1.22,0 -2.46,-0.28 -3.63,-0.86 -4.01,-2.01 -5.64,-6.89 -3.64,-10.91l26.89 -53.78c2.01,-4.02 6.89,-5.64 10.91,-3.63 4.01,2 5.64,6.89 3.63,10.9l-26.88 53.78c-1.42,2.85 -4.3,4.5 -7.28,4.5z"/>
  <path class="fil6" d="M1729.98 1354.69c-1.22,0 -2.46,-0.28 -3.63,-0.86 -4.01,-2.01 -5.64,-6.89 -3.63,-10.91l26.88 -53.78c2.01,-4.02 6.89,-5.64 10.91,-3.63 4.02,2 5.64,6.89 3.64,10.9l-26.89 53.78c-1.42,2.85 -4.29,4.5 -7.28,4.5z"/>
  <path class="fil6" d="M1773.67 1354.69c-1.22,0 -2.46,-0.28 -3.62,-0.86 -4.02,-2.01 -5.65,-6.89 -3.64,-10.91l26.89 -53.78c2.01,-4.02 6.9,-5.64 10.91,-3.63 4.01,2 5.64,6.89 3.63,10.9l-26.89 53.78c-1.42,2.85 -4.29,4.5 -7.28,4.5z"/>
  <path class="fil6" d="M2114.02 1354.69c-1.22,0 -2.46,-0.28 -3.62,-0.86 -4.02,-2.01 -5.65,-6.89 -3.64,-10.91l26.89 -53.78c2,-4.02 6.89,-5.64 10.9,-3.63 4.02,2 5.65,6.89 3.64,10.9l-26.89 53.78c-1.42,2.85 -4.29,4.5 -7.28,4.5z"/>
  <path class="fil6" d="M2157.72 1354.69c-1.23,0 -2.47,-0.28 -3.63,-0.86 -4.02,-2.01 -5.65,-6.89 -3.64,-10.91l26.89 -53.78c2.01,-4.02 6.9,-5.64 10.91,-3.63 4.01,2 5.65,6.89 3.63,10.9l-26.88 53.78c-1.43,2.85 -4.3,4.5 -7.28,4.5z"/>
  <path class="fil6" d="M2201.41 1354.69c-1.22,0 -2.46,-0.28 -3.63,-0.86 -4.01,-2.01 -5.64,-6.89 -3.63,-10.91l26.88 -53.78c2.02,-4.02 6.91,-5.64 10.92,-3.63 4,2 5.64,6.89 3.63,10.9l-26.89 53.78c-1.42,2.85 -4.3,4.5 -7.28,4.5z"/>
  <path class="fil6" d="M1957.3 872.96c-181.75,0 -329.62,147.87 -329.62,329.63 0,181.75 147.87,329.62 329.62,329.62 181.76,0 329.63,-147.87 329.63,-329.62 0,-181.76 -147.87,-329.63 -329.63,-329.63zm0 677.46c-191.79,0 -347.83,-156.04 -347.83,-347.83 0,-191.8 156.04,-347.83 347.83,-347.83 191.8,0 347.83,156.03 347.83,347.83 0,191.79 -156.03,347.83 -347.83,347.83z"/>
  <path class="fil10" d="M2825.74 1354.35c6.21,2.28 12.46,-2.95 11.53,-9.49 -7.77,-54.53 -60.04,-96.69 -123.36,-96.69 -63.31,0 -115.56,42.13 -123.36,96.64 -0.93,6.56 5.35,11.79 11.56,9.49l59.67 -22.05c33.26,-12.28 69.79,-12.34 103.09,-0.16l60.87 22.26z"/>
  <path class="fil10" d="M2613.12 1145.73c0,23.66 -11.38,42.84 -25.42,42.84 -14.04,0 -25.42,-19.18 -25.42,-42.84 0,-23.67 11.38,-42.85 25.42,-42.85 14.04,0 25.42,19.18 25.42,42.85z"/>
  <path class="fil10" d="M2867.31 1145.73c0,23.66 -11.39,42.84 -25.42,42.84 -14.04,0 -25.42,-19.18 -25.42,-42.84 0,-23.67 11.38,-42.85 25.42,-42.85 14.03,0 25.42,19.18 25.42,42.85z"/>
  <path class="fil10" d="M2616.52 1114.62c-15.29,-11.67 -51.4,-33.15 -110.25,-33.25 -2.99,0 -5.87,-1.4 -7.53,-3.89 -3.05,-4.58 -5.74,-12.3 4.58,-18.33 0,0 28.8,-17.01 62.83,-3.92 0,0 37.56,18.78 52.67,42.87 0.67,1.07 1.13,2.25 1.42,3.47l2.16 9.21c0.81,3.42 -3.09,5.97 -5.88,3.84z"/>
  <path class="fil10" d="M2811.3 1114.62c15.29,-11.67 51.4,-33.15 110.25,-33.25 3,0 5.88,-1.4 7.53,-3.89 3.05,-4.58 5.74,-12.3 -4.58,-18.33 0,0 -28.8,-17.01 -62.82,-3.92 0,0 -37.57,18.78 -52.68,42.87 -0.67,1.07 -1.12,2.25 -1.41,3.47l-2.17 9.21c-0.8,3.42 3.09,5.97 5.88,3.84z"/>
  <path class="fil10" d="M2713.91 872.96c-181.75,0 -329.62,147.87 -329.62,329.63 0,181.75 147.87,329.62 329.62,329.62 181.75,0 329.63,-147.87 329.63,-329.62 0,-181.76 -147.88,-329.63 -329.63,-329.63zm0 677.46c-191.79,0 -347.83,-156.04 -347.83,-347.83 0,-191.8 156.04,-347.83 347.83,-347.83 191.8,0 347.83,156.03 347.83,347.83 0,191.79 -156.03,347.83 -347.83,347.83z"/>
  <path class="fil1" d="M3666.52 1054.1l-81.63 0c-34.06,0 -61.72,27.14 -62.71,60.96l-61.14 0c-0.98,-33.82 -28.64,-60.96 -62.7,-60.96l-81.64 0c-34.68,0 -62.79,28.12 -62.79,62.8l0 45.07c0,34.68 28.11,62.8 62.79,62.8l81.64 0c34.68,0 62.79,-28.12 62.79,-62.8l0 -16.44 60.95 0 0 16.44c0,34.68 28.12,62.8 62.81,62.8l81.63 0c34.68,0 62.8,-28.12 62.8,-62.8l0 -45.07c0,-34.68 -28.12,-62.8 -62.8,-62.8z"/>
  <polygon class="fil1" points="3269.05,1091.52 3176.85,1018.8 3157.55,1054.1 3261.63,1108.94 "/>
  <polygon class="fil1" points="3696.97,1094.8 3765.43,1018.8 3784.74,1054.1 3703.51,1112.57 "/>
  <path class="fil1" d="M3550.2 1337.6c-11.69,0.12 -23.44,0.72 -34.9,0.9 -40.91,0.66 -81.74,-0.25 -122.21,-6.63 -21.89,-3.45 -48.12,-6.84 -67.44,-18.17 -12.36,-7.25 -22.91,-16.77 -34.5,-25.05 -6.43,-4.61 -20.65,-16.43 -29.13,-10.5 -2.78,1.94 -2.63,6.05 -2,9.37 5.48,28.96 24.88,53.73 45.6,73.73 18.9,18.23 40.44,33.62 65.8,41.35 29.93,9.14 62.13,12.55 93.31,12.81 33.73,0.29 71.4,-0.18 102.03,-16.06 7.44,-3.86 14.39,-8.67 20.49,-14.45 5.39,-5.12 9.53,-12.52 11.23,-19.75 1.51,-6.4 0.72,-13.62 -3.4,-18.74 -4.41,-5.45 -11.74,-7.63 -18.72,-8.19 -8.6,-0.68 -17.53,-0.72 -26.16,-0.62z"/>
  <path class="fil1" d="M3470.24 872.96c-181.75,0 -329.62,147.87 -329.62,329.63 0,181.75 147.87,329.62 329.62,329.62 181.76,0 329.63,-147.87 329.63,-329.62 0,-181.76 -147.87,-329.63 -329.63,-329.63zm0 677.46c-191.79,0 -347.83,-156.04 -347.83,-347.83 0,-191.8 156.04,-347.83 347.83,-347.83 191.79,0 347.83,156.03 347.83,347.83 0,191.79 -156.04,347.83 -347.83,347.83z"/>
  <path class="fil11" d="M4033.91 1140.13c0,-23.56 19.1,-42.66 42.67,-42.66 23.56,0 42.66,19.1 42.66,42.66 0,23.57 -19.1,42.67 -42.66,42.67 -23.57,0 -42.67,-19.1 -42.67,-42.67z"/>
  <path class="fil11" d="M4332.63 1140.13c0,-23.56 19.08,-42.66 42.66,-42.66 23.54,0 42.67,19.1 42.67,42.66 0,23.57 -19.13,42.67 -42.67,42.67 -23.58,0 -42.66,-19.1 -42.66,-42.67z"/>
  <path class="fil11" d="M4084.18 1301.24c93.86,-32.29 202.9,-30.33 296.57,2.01 33.92,11.72 66.42,28.19 94.88,50.17 8.87,6.85 25.16,21.25 35.58,7.86 6,-7.68 0.96,-20.46 -3.13,-27.82 -9.95,-17.84 -27.58,-30.43 -43.66,-42.34 -21.13,-15.62 -44.59,-28.04 -68.84,-38.02 -41.25,-16.99 -85.58,-25.83 -130,-28.81 -16.71,-1.12 -33.54,-1.42 -50.29,-0.91 -0.46,0.02 -0.96,0.03 -1.46,0.05 -23.83,0.76 -47.63,3.24 -71.14,7.36 -44.79,7.85 -88.46,23.2 -128.08,45.56 -4.33,2.43 -8.61,4.94 -12.86,7.53 -14.2,8.67 -27.9,17.39 -36.04,32.54 -2.96,5.5 -4.63,12.03 -2.88,18.03 2.98,10.18 13.96,13.9 23.54,11.86 15.07,-3.22 27.26,-11.92 40.45,-19.29 13.93,-7.79 28.39,-14.65 43.22,-20.54 4.69,-1.87 9.41,-3.61 14.14,-5.24z"/>
  <path class="fil11" d="M4152.93 1076.79c3.27,-0.84 5.3,-4.02 4.72,-7.42 -1.56,-9.09 -4.97,-17.93 -9.98,-25.79 -5.34,-8.37 -116.02,42.78 -127.25,48.19 -26.96,12.96 -56.55,27.15 -82.91,44.25 -6.73,4.36 -1.07,15.01 6.41,12.05 28.02,-11.09 55.73,-24.26 83.8,-33.88 41.16,-14.12 82.94,-26.6 125.21,-37.4z"/>
  <path class="fil11" d="M4305.5 1071.93c-3.21,-1.05 -5.04,-4.36 -4.25,-7.7 2.17,-8.98 6.17,-17.57 11.67,-25.09 5.87,-8 112.95,50.33 123.79,56.47 26.04,14.71 54.67,30.81 79.83,49.61 6.42,4.8 0.08,15.05 -7.21,11.6 -27.21,-12.9 -54,-27.87 -81.37,-39.32 -40.13,-16.8 -81,-32.01 -122.46,-45.57z"/>
  <path class="fil11" d="M4226.83 872.96c-181.73,0 -329.6,147.87 -329.6,329.63 0,181.75 147.87,329.62 329.6,329.62 181.75,0 329.63,-147.87 329.63,-329.62 0,-181.76 -147.88,-329.63 -329.63,-329.63zm0 677.46c-191.77,0 -347.81,-156.04 -347.81,-347.83 0,-191.8 156.04,-347.83 347.81,-347.83 191.8,0 347.84,156.03 347.84,347.83 0,191.79 -156.04,347.83 -347.84,347.83z"/>
  <path class="fil12" d="M273.41 1770.31c0,-43.05 34.9,-77.94 77.94,-77.94 43.04,0 77.94,34.89 77.94,77.94 0,43.04 -34.9,77.94 -77.94,77.94 -43.04,0 -77.94,-34.9 -77.94,-77.94z"/>
  <path class="fil12" d="M555.01 1770.31c0,-18.74 15.19,-33.93 33.93,-33.93 18.75,0 33.94,15.19 33.94,33.93 0,18.74 -15.19,33.94 -33.94,33.94 -18.74,0 -33.93,-15.2 -33.93,-33.94z"/>
  <path class="fil12" d="M559.65 2069.27c0,86.57 -31.11,156.76 -69.49,156.76 -38.38,0 -69.49,-70.19 -69.49,-156.76 0,-86.57 31.11,-156.75 69.49,-156.75 38.38,0 69.49,70.18 69.49,156.75z"/>
  <path class="fil12" d="M448.15 1629.57c-181.76,0 -329.63,147.87 -329.63,329.63 0,181.75 147.87,329.62 329.63,329.62 181.75,0 329.62,-147.87 329.62,-329.62 0,-181.76 -147.87,-329.63 -329.62,-329.63zm0 677.46c-191.8,0 -347.83,-156.04 -347.83,-347.83 0,-191.8 156.03,-347.83 347.83,-347.83 191.79,0 347.82,156.03 347.82,347.83 0,191.79 -156.03,347.83 -347.82,347.83z"/>
  <path class="fil1" d="M1067.6 1862.2c0,29.4 -14.14,53.25 -31.58,53.25 -17.45,0 -31.59,-23.85 -31.59,-53.25 0,-29.4 14.14,-53.25 31.59,-53.25 17.44,0 31.58,23.85 31.58,53.25z"/>
  <path class="fil1" d="M1328.87 1834.89c-4.55,1.66 -8.9,3.69 -12.74,6.58 -19.78,14.83 1.7,32.58 15.57,41.31 15.05,9.47 39.48,26.31 58.24,22.65 2.94,-0.57 6.03,-1.82 7.52,-4.42 7.08,-12.34 -12.7,-18.19 -20.71,-21.65 -5.93,-2.56 -17.6,-8.34 -16.89,-16.35 0.21,-2.36 1.66,-4.45 3.35,-6.1 11.75,-11.46 36.96,-8.1 41.59,-27.17 0.62,-2.56 0.23,-5.46 -1.5,-7.45 -1.69,-1.94 -4.34,-2.71 -6.88,-3.14 -15.68,-2.65 -31.11,2.75 -45.46,8.51 -7.01,2.82 -14.81,4.56 -22.09,7.23z"/>
  <path class="fil1" d="M1138.7 2085.7c49.19,3.48 101.46,-5.67 143.92,-31.67 11.75,-7.19 22.73,-15.66 32.51,-25.36 4.45,-4.39 8.81,-9.04 12.66,-13.95 2.93,-3.74 10.47,-17.74 16.22,-9.91 5.24,7.14 -6.72,23.55 -10.47,29.5 -23.29,36.94 -64,61 -106.15,69.94 -22.7,4.81 -46.07,6.15 -69.2,4.54 -10.96,-0.76 -21.86,-2.18 -32.72,-3.78 -9.2,-1.36 -19.24,-2.07 -27,-7.77 -3.85,-2.83 -3.76,-7.76 -0.4,-10.95 3.99,-3.79 10.85,-3.86 15.98,-3.37 8.24,0.78 16.37,2.19 24.65,2.78z"/>
  <path class="fil1" d="M1204.75 1629.57c-181.75,0 -329.62,147.87 -329.62,329.63 0,181.75 147.87,329.62 329.62,329.62 181.76,0 329.63,-147.87 329.63,-329.62 0,-181.76 -147.87,-329.63 -329.63,-329.63zm0 677.46c-191.79,0 -347.83,-156.04 -347.83,-347.83 0,-191.8 156.04,-347.83 347.83,-347.83 191.8,0 347.84,156.03 347.84,347.83 0,191.79 -156.04,347.83 -347.84,347.83z"/>
  <path class="fil13" d="M1801.64 1878.41c-0.57,-19.56 14.83,-35.86 34.38,-36.43 19.55,-0.56 35.86,14.83 36.43,34.39 0.56,19.55 -14.83,35.86 -34.38,36.43 -19.56,0.56 -35.87,-14.84 -36.43,-34.39z"/>
  <path class="fil13" d="M2049.53 1871.25c-0.56,-19.55 14.84,-35.86 34.39,-36.42 19.55,-0.57 35.86,14.82 36.43,34.38 0.56,19.55 -14.83,35.86 -34.39,36.42 -19.55,0.57 -35.86,-14.83 -36.43,-34.38z"/>
  <path class="fil13" d="M2006.28 1980.63c4.92,-3.58 9.93,-6.6 15,-8.71 23.79,-9.91 36.19,16.4 46.62,28.67 7.68,9.03 15.12,20.4 10.57,33.71 -8.62,25.23 -42.88,46.85 -62.96,64.41 -20.35,17.81 -40.48,35.86 -60.38,54.16 -14.76,13.57 -31.28,32.91 -51.41,32.92 -8.59,0 -14.34,-6.02 -19.22,-11.77 -8.57,-10.09 -16.85,-20.4 -24.85,-30.97 -7.84,-10.35 -5.83,-22.25 4.5,-35.38 6.78,-8.61 15.58,-15.66 24.2,-22.65 24.65,-20.02 48.8,-40.67 72.41,-61.9 13.58,-12.21 29.07,-30.52 45.52,-42.49z"/>
  <path class="fil13" d="M1928.78 1980.68c-4.92,-3.58 -9.92,-6.59 -14.99,-8.71 -23.79,-9.92 -36.19,16.39 -46.64,28.65 -7.68,9.03 -15.11,20.4 -10.57,33.72 8.61,25.22 42.87,46.85 62.94,64.43 20.35,17.81 40.47,35.87 60.36,54.17 14.76,13.57 31.28,32.92 51.4,32.93 8.6,0 14.34,-6.01 19.24,-11.77 8.56,-10.07 16.84,-20.39 24.84,-30.95 7.85,-10.35 5.84,-22.25 -4.49,-35.38 -6.77,-8.62 -15.57,-15.67 -24.18,-22.67 -24.65,-20.02 -48.8,-40.67 -72.4,-61.91 -13.58,-12.22 -29.06,-30.53 -45.51,-42.51z"/>
  <path class="fil13" d="M1875.89 1824.12c2.53,1.21 5.53,0.27 6.96,-2.2 3.85,-6.62 6.39,-14.07 7.39,-21.74 1.06,-8.18 -96.66,-34.58 -106.7,-37.13 -24.07,-6.1 -50.46,-12.84 -76.36,-16 -6.61,-0.8 -8.68,8.99 -2.33,11.1 23.74,7.86 48.39,14.24 71.4,23.07 33.73,12.94 66.98,27.26 99.64,42.9z"/>
  <path class="fil13" d="M2043.1 1819.29c-2.45,1.36 -5.5,0.59 -7.08,-1.79 -4.22,-6.39 -7.19,-13.68 -8.62,-21.29 -1.53,-8.09 94.5,-40.09 104.37,-43.21 23.68,-7.49 49.65,-15.73 75.32,-20.38 6.55,-1.19 9.19,8.47 2.97,10.94 -23.25,9.22 -47.49,17.01 -69.96,27.15 -32.92,14.87 -65.29,31.08 -97,48.58z"/>
  <path class="fil13" d="M1957.3 1629.57c-181.75,0 -329.62,147.87 -329.62,329.63 0,181.75 147.87,329.62 329.62,329.62 181.76,0 329.63,-147.87 329.63,-329.62 0,-181.76 -147.87,-329.63 -329.63,-329.63zm0 677.46c-191.79,0 -347.83,-156.04 -347.83,-347.83 0,-191.8 156.04,-347.83 347.83,-347.83 191.8,0 347.83,156.03 347.83,347.83 0,191.79 -156.03,347.83 -347.83,347.83z"/>
  <path class="fil1" d="M2564.69 1964.36c-31.28,0 -56.73,25.45 -56.73,56.73l0 0.99c0,31.29 25.45,56.74 56.73,56.74l312.76 0c31.28,0 56.74,-25.45 56.74,-56.74l0 -0.99c0,-31.28 -25.46,-56.73 -56.74,-56.73l-312.76 0zm312.76 132.67l-312.76 0c-41.32,0 -74.94,-33.63 -74.94,-74.95l0 -0.99c0,-41.32 33.62,-74.94 74.94,-74.94l312.76 0c41.32,0 74.95,33.62 74.95,74.94l0 0.99c0,41.32 -33.63,74.95 -74.95,74.95z"/>
  <polygon class="fil1" points="2939.97,2031.19 2498.85,2031.19 2498.85,2012.98 2939.97,2012.98 "/>
  <polygon class="fil1" points="2590.87,2086.81 2572.67,2086.81 2572.67,1959.67 2590.87,1959.67 "/>
  <polygon class="fil1" points="2663.84,2086.81 2645.64,2086.81 2645.64,1959.67 2663.84,1959.67 "/>
  <polygon class="fil1" points="2736.8,2086.81 2718.6,2086.81 2718.6,1959.67 2736.8,1959.67 "/>
  <polygon class="fil1" points="2809.77,2086.81 2791.57,2086.81 2791.57,1959.67 2809.77,1959.67 "/>
  <polygon class="fil1" points="2882.75,2086.81 2864.54,2086.81 2864.54,1959.67 2882.75,1959.67 "/>
  <path class="fil1" d="M2456.39 1869.2c-0.26,-0.63 -0.46,-1.29 -0.58,-1.96 -7.27,-40.87 70.73,-51.32 95.81,-43.44 12.88,4.05 25.81,11.1 36.08,19.84 3.97,3.37 29.46,35.25 11.12,35.68 -2.71,0.06 -5.17,-1.49 -7.39,-3.05 -16.74,-11.84 -25.65,-29.35 -46.77,-34.4 -23.16,-5.54 -48.55,1.96 -64.73,19.49 -5.11,5.55 -18.01,21.3 -23.54,7.84z"/>
  <path class="fil1" d="M2971.44 1869.2c0.26,-0.63 0.45,-1.29 0.57,-1.96 7.28,-40.87 -70.73,-51.32 -95.81,-43.44 -12.88,4.05 -25.8,11.1 -36.08,19.84 -3.96,3.37 -29.46,35.25 -11.12,35.68 2.71,0.06 5.17,-1.49 7.39,-3.05 16.74,-11.84 25.66,-29.35 46.77,-34.4 23.16,-5.54 48.55,1.96 64.73,19.49 5.11,5.55 18.01,21.3 23.55,7.84z"/>
  <path class="fil1" d="M2713.91 1629.57c-181.75,0 -329.62,147.87 -329.62,329.63 0,181.75 147.87,329.62 329.62,329.62 181.75,0 329.63,-147.87 329.63,-329.62 0,-181.76 -147.88,-329.63 -329.63,-329.63zm0 677.46c-191.79,0 -347.83,-156.04 -347.83,-347.83 0,-191.8 156.04,-347.83 347.83,-347.83 191.8,0 347.83,156.03 347.83,347.83 0,191.79 -156.03,347.83 -347.83,347.83z"/>
  <path class="fil14" d="M3596.75 2107.1c17.53,0 30.62,-16.56 26.08,-33.48 -16.93,-63.14 -80.7,-110.09 -156.77,-110.09 -76.07,0 -139.84,46.95 -156.77,110.09 -4.54,16.92 8.56,33.48 26.08,33.48l99.28 -13.27c19.87,-2.65 40.01,-2.68 59.89,-0.08l102.21 13.35z"/>
  <path class="fil14" d="M3278.22 1853.95c0,-23.56 19.11,-42.66 42.67,-42.66 23.56,0 42.66,19.1 42.66,42.66 0,23.57 -19.1,42.67 -42.66,42.67 -23.56,0 -42.67,-19.1 -42.67,-42.67z"/>
  <path class="fil14" d="M3576.93 1853.95c0,-23.56 19.11,-42.66 42.67,-42.66 23.56,0 42.66,19.1 42.66,42.66 0,23.57 -19.1,42.67 -42.66,42.67 -23.56,0 -42.67,-19.1 -42.67,-42.67z"/>
  <path class="fil14" d="M3470.24 1629.57c-181.75,0 -329.62,147.87 -329.62,329.63 0,181.75 147.87,329.62 329.62,329.62 181.76,0 329.63,-147.87 329.63,-329.62 0,-181.76 -147.87,-329.63 -329.63,-329.63zm0 677.46c-191.79,0 -347.83,-156.04 -347.83,-347.83 0,-191.8 156.04,-347.83 347.83,-347.83 191.79,0 347.83,156.03 347.83,347.83 0,191.79 -156.04,347.83 -347.83,347.83z"/>
  <path class="fil5" d="M4380.08 2123.51c-18.71,0 -36.95,-13.21 -44.25,-18.5 -13.5,-9.79 -31.91,-19.68 -42.95,-11.3 -2.76,2.08 -5.09,5.42 -7.55,8.96 -2.75,3.91 -5.83,8.33 -10.12,11.97 -15.84,13.39 -38.21,9.41 -53.88,1.24 -6.45,-3.38 -12.37,-7.43 -18.08,-11.35 -7.04,-4.83 -13.71,-9.38 -20.92,-12.42 -18.11,-7.66 -40.72,-4.65 -56.23,7.47 -2,1.57 -3.98,3.33 -6.07,5.19 -5.2,4.63 -11.1,9.89 -18.7,12.91 -22.33,8.87 -41.63,-5.07 -58.67,-17.35 -10.03,-7.24 -20.42,-14.72 -30.78,-17.45 -17.4,-4.56 -38.2,6.85 -43.65,24 -1.53,4.79 -6.67,7.44 -11.43,5.91 -4.79,-1.52 -7.44,-6.64 -5.92,-11.43 8.49,-26.7 38.52,-43.24 65.64,-36.08 13.63,3.59 25.4,12.07 36.78,20.28 17.59,12.68 29.15,20.04 41.31,15.19 4.61,-1.82 8.84,-5.6 13.31,-9.58 2.21,-1.97 4.5,-4.01 6.97,-5.93 20.86,-16.32 50.13,-20.21 74.53,-9.91 8.91,3.76 16.62,9.06 24.12,14.19 5.5,3.77 10.71,7.35 16.25,10.22 9.92,5.19 24.71,8.56 33.67,1.01 2.46,-2.11 4.62,-5.22 6.92,-8.5 3.04,-4.33 6.45,-9.23 11.49,-13.04 11.01,-8.36 31.13,-13.22 64.63,11.05 19.75,14.31 34.29,18.37 43.25,12.07 2.63,-1.86 5,-4.85 7.5,-8.02 1.46,-1.84 2.92,-3.68 4.46,-5.41 13.17,-14.67 34.83,-20.8 56.58,-15.98 21.75,4.81 38.83,19.51 44.54,38.36 1.5,4.8 -1.25,9.89 -6.04,11.35 -4.79,1.44 -9.87,-1.24 -11.37,-6.06 -3.79,-12.57 -15.71,-22.48 -31.05,-25.87 -15.37,-3.39 -30.33,0.58 -39.12,10.35 -1.29,1.45 -2.5,3 -3.71,4.54 -3.04,3.86 -6.5,8.24 -11.29,11.62 -6.46,4.54 -13.33,6.3 -20.17,6.3z"/>
  <path class="fil15" d="M4005.94 1862.62c1.5,2.71 4.51,5.01 9.29,6.25 39.62,10.31 117.54,-2.84 123.91,-52.83 1.04,-8.19 -3.18,-28.14 -14.94,-18.66 -12.38,9.99 -20.85,23.87 -33.63,33.65 -12.54,9.58 -27.2,14.89 -43.08,14.33 -10.32,-0.37 -21.51,-2.65 -31.61,0.49 -9.09,2.82 -13.24,10.78 -9.94,16.77z"/>
  <path class="fil15" d="M4439.04 1862.62c-1.5,2.71 -4.5,5.01 -9.29,6.25 -39.58,10.31 -117.54,-2.84 -123.88,-52.83 -1.04,-8.19 3.17,-28.14 14.92,-18.66 12.38,9.99 20.84,23.87 33.63,33.65 12.54,9.58 27.2,14.89 43.08,14.33 10.33,-0.37 21.5,-2.65 31.63,0.49 9.08,2.82 13.2,10.78 9.91,16.77z"/>
  <path class="fil15" d="M4135.79 1930.1c4.54,1.67 8.89,3.7 12.74,6.58 19.76,14.84 -1.71,32.58 -15.58,41.31 -15.05,9.47 -39.47,26.31 -58.24,22.66 -2.94,-0.58 -6.02,-1.83 -7.52,-4.43 -7.08,-12.34 12.71,-18.18 20.71,-21.64 5.94,-2.57 17.6,-8.35 16.9,-16.36 -0.21,-2.36 -1.66,-4.44 -3.36,-6.1 -11.74,-11.46 -36.96,-8.09 -41.59,-27.16 -0.62,-2.56 -0.23,-5.47 1.5,-7.45 1.69,-1.94 4.35,-2.72 6.88,-3.14 15.68,-2.66 31.11,2.74 45.47,8.51 7.01,2.82 14.8,4.55 22.09,7.22z"/>
  <path class="fil15" d="M4309.21 1930.1c-4.54,1.67 -8.92,3.7 -12.75,6.58 -19.79,14.84 1.71,32.58 15.58,41.31 15.04,9.47 39.46,26.31 58.25,22.66 2.92,-0.58 6,-1.83 7.5,-4.43 7.09,-12.34 -12.71,-18.18 -20.71,-21.64 -5.91,-2.57 -17.58,-8.35 -16.87,-16.36 0.21,-2.36 1.66,-4.44 3.33,-6.1 11.75,-11.46 36.96,-8.09 41.59,-27.16 0.62,-2.56 0.24,-5.47 -1.5,-7.45 -1.67,-1.94 -4.34,-2.72 -6.88,-3.14 -15.67,-2.66 -31.08,2.74 -45.46,8.51 -7,2.82 -14.79,4.55 -22.08,7.22z"/>
  <path class="fil5" d="M4226.83 1629.57c-181.73,0 -329.6,147.87 -329.6,329.63 0,181.75 147.87,329.62 329.6,329.62 181.75,0 329.63,-147.87 329.63,-329.62 0,-181.76 -147.88,-329.63 -329.63,-329.63zm0 677.46c-191.77,0 -347.81,-156.04 -347.81,-347.83 0,-191.8 156.04,-347.83 347.81,-347.83 191.8,0 347.84,156.03 347.84,347.83 0,191.79 -156.04,347.83 -347.84,347.83z"/>
  <path class="fil6" d="M294.28 2785.71c93.84,32.29 202.92,30.33 296.55,-2.01 33.96,-11.72 66.43,-28.19 94.91,-50.18 8.88,-6.84 25.16,-21.25 35.58,-7.85 5.97,7.68 0.96,20.45 -3.15,27.82 -9.95,17.84 -27.56,30.43 -43.65,42.33 -21.11,15.63 -44.58,28.05 -68.83,38.03 -41.25,16.99 -85.6,25.83 -130,28.81 -16.74,1.12 -33.53,1.42 -50.29,0.91 -0.48,-0.02 -0.96,-0.03 -1.44,-0.05 -23.86,-0.76 -47.66,-3.24 -71.17,-7.36 -44.8,-7.85 -88.46,-23.2 -128.08,-45.56 -4.32,-2.44 -8.62,-4.94 -12.86,-7.53 -14.2,-8.67 -27.89,-17.39 -36.04,-32.54 -2.96,-5.5 -4.63,-12.04 -2.88,-18.03 2.98,-10.18 13.97,-13.9 23.54,-11.86 15.07,3.22 27.26,11.91 40.45,19.28 13.94,7.8 28.39,14.66 43.22,20.55 4.7,1.87 9.41,3.61 14.14,5.24z"/>
  <path class="fil6" d="M408.15 2627.77c8.3,14.08 12.31,34.38 -0.04,45.1 -10.12,8.78 -25.35,6.16 -38.66,4.64 -33.58,-3.82 -68.29,3.1 -97.83,19.5 -1.92,1.06 -3.86,2.18 -6.02,2.57 -4.38,0.78 -8.96,-1.8 -11.18,-5.66 -4.09,-7.1 -0.36,-16.63 6.08,-21.69 6.44,-5.06 14.82,-6.77 22.86,-8.33 33.89,-6.54 69.08,-13.07 102.59,-4.75 1.61,0.4 3.31,0.84 4.92,0.4 5.36,-1.47 3.94,-9.58 0.76,-14.14 -11.16,-15.94 -29.25,-25.75 -47.74,-31.78 -15.18,-4.96 -57.73,-5.9 -67.14,-19.28 -12.38,-17.61 23.63,-27.21 36.1,-26.52 35.08,1.95 77.88,30.36 95.3,59.94z"/>
  <path class="fil6" d="M475.86 2627.77c-8.3,14.08 -12.3,34.38 0.04,45.1 10.12,8.78 25.35,6.16 38.67,4.64 33.57,-3.82 68.28,3.1 97.83,19.5 1.91,1.06 3.86,2.18 6.01,2.57 4.38,0.78 8.96,-1.8 11.18,-5.66 4.09,-7.1 0.36,-16.63 -6.08,-21.69 -6.44,-5.06 -14.82,-6.77 -22.86,-8.33 -33.89,-6.54 -69.08,-13.07 -102.58,-4.75 -1.62,0.4 -3.32,0.84 -4.92,0.4 -5.36,-1.47 -3.95,-9.58 -0.76,-14.14 11.15,-15.94 29.24,-25.75 47.73,-31.78 15.18,-4.96 57.74,-5.9 67.15,-19.28 12.37,-17.61 -23.63,-27.21 -36.11,-26.52 -35.07,1.95 -77.88,30.36 -95.3,59.94z"/>
  <path class="fil6" d="M448.15 2386.18c-181.76,0 -329.63,147.87 -329.63,329.62 0,181.75 147.87,329.63 329.63,329.63 181.75,0 329.62,-147.88 329.62,-329.63 0,-181.75 -147.87,-329.62 -329.62,-329.62zm0 677.45c-191.8,0 -347.83,-156.03 -347.83,-347.83 0,-191.79 156.03,-347.83 347.83,-347.83 191.79,0 347.82,156.04 347.82,347.83 0,191.8 -156.03,347.83 -347.82,347.83z"/>
  <path class="fil7" d="M1291.21 2900.24c21.56,0 36.39,-22.35 27.29,-41.91 -18.48,-39.75 -62.44,-67.71 -113.75,-67.71 -51.3,0 -95.27,27.96 -113.74,67.71 -9.09,19.56 5.72,41.91 27.29,41.91l172.91 0z"/>
  <path class="fil7" d="M961.38 2607.5c1.67,3.05 5.07,5.63 10.43,7.03 44.52,11.58 132.1,-3.2 139.26,-59.38 1.17,-9.2 -3.57,-31.63 -16.79,-20.97 -13.91,11.23 -23.43,26.82 -37.79,37.81 -14.09,10.78 -30.57,16.74 -48.42,16.11 -11.6,-0.41 -24.18,-2.97 -35.53,0.55 -10.21,3.17 -14.88,12.12 -11.16,18.85z"/>
  <path class="fil7" d="M1448.13 2607.5c-1.68,3.05 -5.07,5.63 -10.43,7.03 -44.53,11.58 -132.1,-3.2 -139.26,-59.38 -1.17,-9.2 3.57,-31.63 16.79,-20.97 13.92,11.23 23.43,26.82 37.79,37.81 14.09,10.78 30.57,16.74 48.42,16.11 11.59,-0.41 24.18,-2.97 35.53,0.55 10.2,3.17 14.88,12.12 11.16,18.85z"/>
  <path class="fil7" d="M1107.3 2683.34c5.11,1.87 10,4.15 14.32,7.4 22.24,16.67 -1.91,36.61 -17.5,46.42 -16.92,10.65 -44.36,29.57 -65.45,25.46 -3.31,-0.64 -6.77,-2.04 -8.46,-4.97 -7.96,-13.87 14.28,-20.44 23.27,-24.32 6.68,-2.89 19.79,-9.38 18.99,-18.39 -0.23,-2.65 -1.86,-4.99 -3.77,-6.85 -13.2,-12.88 -41.54,-9.1 -46.74,-30.53 -0.7,-2.88 -0.26,-6.15 1.69,-8.38 1.9,-2.18 4.88,-3.05 7.74,-3.53 17.61,-2.97 34.95,3.09 51.08,9.58 7.89,3.16 16.65,5.11 24.83,8.11z"/>
  <path class="fil7" d="M1302.2 2683.34c-5.1,1.87 -10,4.15 -14.32,7.4 -22.23,16.67 1.92,36.61 17.51,46.42 16.92,10.65 44.36,29.57 65.45,25.46 3.31,-0.64 6.77,-2.04 8.46,-4.97 7.95,-13.87 -14.28,-20.44 -23.27,-24.32 -6.68,-2.89 -19.79,-9.38 -19,-18.39 0.24,-2.65 1.87,-4.99 3.77,-6.85 13.2,-12.88 41.55,-9.1 46.75,-30.53 0.69,-2.88 0.26,-6.15 -1.69,-8.38 -1.9,-2.18 -4.88,-3.05 -7.74,-3.53 -17.61,-2.97 -34.96,3.09 -51.09,9.58 -7.88,3.16 -16.63,5.11 -24.83,8.11z"/>
  <path class="fil8" d="M1204.75 2386.18c-181.75,0 -329.62,147.87 -329.62,329.62 0,181.75 147.87,329.63 329.62,329.63 181.76,0 329.63,-147.88 329.63,-329.63 0,-181.75 -147.87,-329.62 -329.63,-329.62zm0 677.45c-191.79,0 -347.83,-156.03 -347.83,-347.83 0,-191.79 156.04,-347.83 347.83,-347.83 191.8,0 347.84,156.04 347.84,347.83 0,191.8 -156.04,347.83 -347.84,347.83z"/>
  <path class="fil6" d="M1731.32 2632.98c-0.26,-0.63 -0.45,-1.28 -0.57,-1.96 -7.28,-40.87 70.72,-51.32 95.81,-43.43 12.87,4.05 25.8,11.08 36.08,19.84 3.96,3.37 29.45,35.25 11.12,35.67 -2.71,0.07 -5.18,-1.48 -7.39,-3.05 -16.74,-11.83 -25.66,-29.35 -46.77,-34.4 -23.16,-5.54 -48.55,1.96 -64.73,19.5 -5.12,5.54 -18.02,21.3 -23.55,7.83z"/>
  <path class="fil6" d="M2184.83 2632.98c0.26,-0.63 0.45,-1.28 0.58,-1.96 7.27,-40.87 -70.73,-51.32 -95.82,-43.43 -12.87,4.05 -25.8,11.08 -36.08,19.84 -3.96,3.37 -29.45,35.25 -11.12,35.67 2.72,0.07 5.18,-1.48 7.4,-3.05 16.73,-11.83 25.66,-29.35 46.76,-34.4 23.17,-5.54 48.56,1.96 64.73,19.5 5.12,5.54 18.02,21.3 23.55,7.83z"/>
  <path class="fil6" d="M1640.36 2719.99c0,-26.07 21.13,-47.19 47.2,-47.19 26.06,0 47.19,21.12 47.19,47.19 0,26.07 -21.13,47.2 -47.19,47.2 -26.07,0 -47.2,-21.13 -47.2,-47.2z"/>
  <path class="fil6" d="M2179.85 2719.99c0,-26.07 21.13,-47.19 47.2,-47.19 26.06,0 47.19,21.12 47.19,47.19 0,26.07 -21.13,47.2 -47.19,47.2 -26.07,0 -47.2,-21.13 -47.2,-47.2z"/>
  <path class="fil6" d="M1928.88 2789.45c-5.97,2.08 -8.81,8.88 -6.08,14.59l8.81 18.45c3.14,6.58 6.42,13.34 11.83,18.23 5.41,4.89 13.56,7.49 20.16,4.4 5.59,-2.62 8.87,-8.73 9.75,-14.84 0.25,-1.74 0.32,-3.49 0.29,-5.25 -0.1,-4.83 4.86,-7.98 9.13,-5.69 4.4,2.36 9.15,3.89 14.51,3.54 4.12,-0.27 8.15,-2.08 10.72,-5.32 6.49,-8.17 1.02,-18.09 -5.35,-24.75 -6.73,-7.03 -14.82,-12.73 -23.69,-16.73 -3.25,-1.46 -6.93,-1.64 -10.3,-0.47l-39.78 13.84z"/>
  <path class="fil6" d="M1957.3 2386.18c-181.75,0 -329.62,147.87 -329.62,329.62 0,181.75 147.87,329.63 329.62,329.63 181.76,0 329.63,-147.88 329.63,-329.63 0,-181.75 -147.87,-329.62 -329.63,-329.62zm0 677.45c-191.79,0 -347.83,-156.03 -347.83,-347.83 0,-191.79 156.04,-347.83 347.83,-347.83 191.8,0 347.83,156.04 347.83,347.83 0,191.8 -156.03,347.83 -347.83,347.83z"/>
  <path class="fil16" d="M4009.2 2586.07c1.5,2.7 4.52,5.01 9.29,6.25 39.61,10.3 117.54,-2.85 123.91,-52.84 1.04,-8.18 -3.18,-28.14 -14.94,-18.65 -12.38,9.99 -20.85,23.86 -33.63,33.64 -12.53,9.58 -27.2,14.89 -43.08,14.33 -10.31,-0.36 -21.51,-2.65 -31.61,0.49 -9.08,2.82 -13.24,10.78 -9.94,16.78z"/>
  <path class="fil16" d="M4442.29 2586.07c-1.46,2.7 -4.5,5.01 -9.25,6.25 -39.62,10.3 -117.54,-2.85 -123.91,-52.84 -1.05,-8.18 3.16,-28.14 14.91,-18.65 12.38,9.99 20.88,23.86 33.63,33.64 12.54,9.58 27.21,14.89 43.08,14.33 10.33,-0.36 21.54,-2.65 31.63,0.49 9.08,2.82 13.25,10.78 9.91,16.78z"/>
  <path class="fil16" d="M4124.18 2646.05c8.61,1.22 16.34,5.74 23.82,10.17 9.77,5.78 19.92,11.93 25.87,21.61 2.76,4.45 4.34,10.58 1.05,14.65 -2.21,2.72 -5.96,3.64 -9.45,3.97 -23.91,2.28 -47.38,-14.8 -70.77,-9.36 -10.08,2.34 -62.76,28.7 -47.4,-2 10.74,-21.48 54.45,-42.21 76.88,-39.04z"/>
  <path class="fil16" d="M4327.33 2646.05c-8.62,1.22 -16.33,5.74 -23.79,10.17 -9.79,5.78 -19.96,11.93 -25.91,21.61 -2.71,4.45 -4.3,10.58 -1.01,14.65 2.21,2.72 5.92,3.64 9.42,3.97 23.92,2.28 47.38,-14.8 70.79,-9.36 10.05,2.34 62.75,28.7 47.38,-2 -10.71,-21.48 -54.46,-42.21 -76.88,-39.04z"/>
  <path class="fil16" d="M4108.25 2876.65c-2.23,-46.82 39.66,-80.77 73.83,-105.54 15.46,-11.2 31.5,-25.89 51.25,-28.73 22.29,-3.2 40.55,13.01 54.38,28.43 14.25,15.9 27.29,32.88 38.87,50.82 12.17,18.84 22.88,42.88 12.71,62.86 -7.92,15.46 -26.37,22.97 -43.75,23.36 -17.33,0.38 -34.21,-5 -51.08,-9.05 -12.88,-3.1 -26.71,-4.82 -40.13,-3.15 -6.79,0.85 -13.5,2.57 -19.83,5.22 -6.5,2.72 -12.21,6.77 -18.86,9.21 -11.44,4.23 -24.94,4.46 -36.38,-0.42 -11.64,-4.96 -19.04,-15.41 -20.58,-27.91 -0.21,-1.71 -0.35,-3.41 -0.43,-5.1z"/>
  <path class="fil16" d="M4427.88 2765.62c1.7,10.73 6.58,23.02 15.5,29.76 8.08,6.1 19.5,4.64 26.37,-2.56 10.46,-10.95 6.42,-28.5 1.5,-41 -5.92,-15.15 -16.88,-30.45 -32.21,-37.09 -7.46,-3.25 -15.75,-3.91 -23.58,-1.52 -6.88,2.11 -3,8.6 -0.46,12.77 4.5,7.37 7.96,15.49 10.08,23.86 1.3,5.16 1.92,10.51 2.8,15.78z"/>
  <path class="fil16" d="M4025.85 2765.62c-1.73,10.73 -6.6,23.02 -15.53,29.76 -8.07,6.1 -19.5,4.64 -26.37,-2.56 -10.45,-10.95 -6.4,-28.5 -1.51,-41 5.93,-15.15 16.88,-30.45 32.21,-37.09 7.49,-3.25 15.77,-3.91 23.6,-1.52 6.88,2.11 2.99,8.6 0.46,12.77 -4.49,7.37 -7.97,15.49 -10.08,23.86 -1.31,5.16 -1.93,10.51 -2.78,15.78z"/>
  <path class="fil16" d="M4226.83 2386.18c-181.73,0 -329.6,147.87 -329.6,329.62 0,181.75 147.87,329.63 329.6,329.63 181.79,0 329.63,-147.88 329.63,-329.63 0,-181.75 -147.84,-329.62 -329.63,-329.62zm0 677.45c-191.77,0 -347.81,-156.03 -347.81,-347.83 0,-191.79 156.04,-347.83 347.81,-347.83 191.84,0 347.84,156.04 347.84,347.83 0,191.8 -156,347.83 -347.84,347.83z"/>
  <path class="fil6" d="M3564.95 2773.01c25.32,0 41.73,26.63 30.46,49.31 -21.26,42.75 -69.3,72.57 -125.16,72.57 -55.87,0 -103.92,-29.82 -125.17,-72.57 -11.27,-22.68 5.14,-49.31 30.46,-49.31l189.41 0z"/>
  <path class="fil6" d="M3275.72 2671.58c-4.04,-3.34 -7.92,-6.86 -11.6,-10.6 -15.82,-16.05 -34.8,-42.48 -27.09,-66.32 5.97,-18.42 27.62,-23.86 44.91,-22.69 9.48,0.64 18.69,3.41 27.26,7.51 3.03,1.46 6.85,3.22 10.25,5.41 3.23,2.07 7.46,-0.14 7.65,-3.97 0.78,-15.87 6.42,-32.48 20.68,-40.19 15.55,-8.4 32.65,-2.83 44.1,9.62 18.43,19.99 16.52,47.54 8.91,71.79 -5.34,17.02 -12.17,33.58 -20.34,49.43 -4.48,8.67 -8.33,18.2 -14.84,25.61 -11.4,12.95 -28.09,9.7 -42.12,3.39 -16.8,-7.56 -33.34,-17.07 -47.77,-28.99z"/>
  <path class="fil6" d="M3664.76 2671.58c4.05,-3.34 7.93,-6.86 11.61,-10.6 15.82,-16.05 34.8,-42.48 27.08,-66.32 -5.96,-18.42 -27.62,-23.86 -44.9,-22.69 -9.48,0.64 -18.69,3.41 -27.26,7.51 -3.04,1.46 -6.86,3.22 -10.25,5.41 -3.23,2.07 -7.47,-0.14 -7.66,-3.97 -0.77,-15.87 -6.42,-32.48 -20.67,-40.19 -15.55,-8.4 -32.65,-2.83 -44.11,9.62 -18.42,19.99 -16.52,47.54 -8.9,71.79 5.34,17.02 12.16,33.58 20.34,49.43 4.48,8.67 8.33,18.2 14.84,25.61 11.4,12.95 28.08,9.7 42.12,3.39 16.8,-7.56 33.34,-17.07 47.76,-28.99z"/>
  <path class="fil6" d="M3470.24 2386.18c-181.75,0 -329.62,147.87 -329.62,329.62 0,181.75 147.87,329.63 329.62,329.63 181.76,0 329.63,-147.88 329.63,-329.63 0,-181.75 -147.87,-329.62 -329.63,-329.62zm0 677.45c-191.79,0 -347.83,-156.03 -347.83,-347.83 0,-191.79 156.04,-347.83 347.83,-347.83 191.79,0 347.83,156.04 347.83,347.83 0,191.8 -156.04,347.83 -347.83,347.83z"/>
  <path class="fil17" d="M2630.41 2562.85c2.92,-0.61 6.5,-0.98 8.38,1.34 0.93,1.14 1.18,2.69 1.26,4.16 0.54,10.65 -6.36,20.51 -14.97,26.79 -15.52,11.31 -35.79,13.26 -54.98,13.93 -21.61,0.76 -44.54,0.04 -62.8,-11.55 -7.46,-4.74 -14.18,-11.84 -15.28,-20.62 -1.42,-11.27 8.17,-20.37 19.05,-17.26 10.19,2.91 18.5,9.56 29.21,12.03 30.28,6.97 60.6,-2.63 90.13,-8.82z"/>
  <path class="fil17" d="M2869.28 2562.85c-2.92,-0.61 -6.49,-0.98 -8.38,1.34 -0.93,1.14 -1.18,2.69 -1.25,4.16 -0.54,10.65 6.35,20.51 14.97,26.79 15.51,11.31 35.79,13.26 54.98,13.93 21.6,0.76 44.53,0.04 62.79,-11.55 7.46,-4.74 14.18,-11.84 15.28,-20.62 1.43,-11.27 -8.17,-20.37 -19.04,-17.26 -10.2,2.91 -18.51,9.56 -29.22,12.03 -30.27,6.97 -60.59,-2.63 -90.13,-8.82z"/>
  <path class="fil17" d="M2854.2 2872.59l-208.43 0c-38.65,0 -69.97,-31.33 -69.97,-69.97l0 -69.09c0,-38.65 31.32,-69.98 69.97,-69.98l208.43 0c38.65,0 69.98,31.33 69.98,69.98l0 69.09c0,38.64 -31.33,69.97 -69.98,69.97z"/>
  <path class="fil17" d="M2400.97 2606.81l176.85 114.69 14.28 -30.42c-6.51,-1.63 -151.81,-83.02 -186.04,-106.93l-5.09 22.66z"/>
  <path class="fil17" d="M2386.25 2667.85l193.34 130.23 -1.35 -35.22c-6.52,-1.62 -153.77,-93.96 -188.02,-117.87l-3.97 22.86z"/>
  <path class="fil17" d="M3030.3 2603.32l-110.43 116.21 -13.29 -26.25c6.5,-1.63 84.07,-79.62 113.6,-109.15l10.12 19.19z"/>
  <polygon class="fil17" points="3037.23,2646.05 3042.13,2666.4 2923.1,2803.7 2922.37,2766.28 "/>
  <path class="fil17" d="M2713.91 2386.18c-181.75,0 -329.62,147.87 -329.62,329.62 0,181.75 147.87,329.63 329.62,329.63 181.75,0 329.63,-147.88 329.63,-329.63 0,-181.75 -147.88,-329.62 -329.63,-329.62zm0 677.45c-191.79,0 -347.83,-156.03 -347.83,-347.83 0,-191.79 156.04,-347.83 347.83,-347.83 191.8,0 347.83,156.04 347.83,347.83 0,191.8 -156.03,347.83 -347.83,347.83z"/>
  <path class="fil4" d="M256.13 3419.1c0,-23.56 19.1,-42.66 42.66,-42.66 23.56,0 42.66,19.1 42.66,42.66 0,23.57 -19.1,42.67 -42.66,42.67 -23.56,0 -42.66,-19.1 -42.66,-42.67z"/>
  <path class="fil4" d="M554.84 3419.1c0,-23.56 19.1,-42.66 42.66,-42.66 23.56,0 42.66,19.1 42.66,42.66 0,23.57 -19.1,42.67 -42.66,42.67 -23.56,0 -42.66,-19.1 -42.66,-42.67z"/>
  <path class="fil3" d="M688.89 3568.38l-481.48 0c-5.03,0 -9.11,-4.07 -9.11,-9.1 0,-5.03 4.08,-9.1 9.11,-9.1l481.48 0c5.03,0 9.1,4.07 9.1,9.1 0,5.03 -4.07,9.1 -9.1,9.1z"/>
  <path class="fil3" d="M448.15 3142.79c-181.76,0 -329.63,147.87 -329.63,329.62 0,181.76 147.87,329.63 329.63,329.63 181.75,0 329.62,-147.87 329.62,-329.63 0,-181.75 -147.87,-329.62 -329.62,-329.62zm0 677.46c-191.8,0 -347.83,-156.04 -347.83,-347.84 0,-191.79 156.03,-347.83 347.83,-347.83 191.79,0 347.82,156.04 347.82,347.83 0,191.8 -156.03,347.84 -347.82,347.84z"/>
  <path class="fil2" d="M1357.25 3348.17c4.56,-5.2 10.08,-10.29 16.18,-13.65 2.36,-1.3 5.21,-2.14 7.9,-1.56 2.73,0.59 3.05,3.25 3.42,5.6 0.89,5.64 1.54,11.31 2.33,16.96 0.37,2.61 0.81,5.19 1.28,7.78 0.74,4.12 1.31,12.36 7.78,10.18 1.36,-0.45 2.53,-1.37 3.58,-2.35 1.96,-1.84 3.75,-4.17 6.33,-5.17 5.1,-1.98 8.27,3.24 5.97,7.54 -1.02,1.92 -2.57,3.56 -4.1,5.08 -2.97,2.96 -5.95,5.92 -8.95,8.86 -2.6,2.54 -4.95,5.6 -8.35,7.13 -2.96,1.34 -5.97,-0.05 -7.46,-2.85 -1.09,-2.05 -1.44,-4.48 -1.74,-6.77 -0.39,-2.93 -0.79,-5.87 -1.19,-8.8 -0.88,-6.57 -1.77,-13.14 -2.65,-19.71 -0.27,-1.99 -0.31,-4.76 -1.69,-6.32 -1.37,-1.55 -3.63,-2 -5.55,-1.31 -1.83,0.66 -3.27,2.14 -4.32,3.78 -2.56,4 -3.61,9.31 -7.92,11.95 -2.49,1.52 -5.82,1.09 -7.45,-1.47 -2.25,-3.53 0.73,-7.44 2.8,-10.22 1.21,-1.6 2.47,-3.17 3.8,-4.68z"/>
  <path class="fil2" d="M1398 3317.83c3.75,-4.28 8.28,-8.46 13.28,-11.21 1.94,-1.07 4.27,-1.76 6.48,-1.27 2.24,0.48 2.51,2.65 2.81,4.59 0.74,4.62 1.27,9.28 1.92,13.92 0.3,2.14 0.66,4.26 1.05,6.39 0.61,3.38 1.07,10.14 6.38,8.35 1.12,-0.37 2.08,-1.12 2.94,-1.93 1.61,-1.51 3.08,-3.42 5.19,-4.24 4.19,-1.63 6.8,2.66 4.91,6.19 -0.84,1.57 -2.11,2.92 -3.37,4.17 -2.44,2.43 -4.88,4.86 -7.34,7.27 -2.14,2.08 -4.07,4.6 -6.86,5.85 -2.43,1.1 -4.9,-0.04 -6.12,-2.33 -0.9,-1.69 -1.18,-3.69 -1.43,-5.56 -0.32,-2.41 -0.65,-4.82 -0.97,-7.23 -0.72,-5.39 -1.46,-10.78 -2.18,-16.17 -0.22,-1.64 -0.26,-3.91 -1.39,-5.2 -1.13,-1.27 -2.98,-1.63 -4.55,-1.07 -1.51,0.55 -2.69,1.76 -3.55,3.11 -2.1,3.28 -2.96,7.64 -6.5,9.8 -2.04,1.25 -4.78,0.9 -6.12,-1.21 -1.84,-2.89 0.6,-6.1 2.3,-8.38 0.99,-1.32 2.03,-2.6 3.12,-3.84z"/>
  <path class="fil2" d="M1436.49 3288.52c3.17,-3.6 6.99,-7.12 11.21,-9.45 1.64,-0.9 3.61,-1.49 5.48,-1.08 1.89,0.41 2.12,2.25 2.37,3.88 0.62,3.91 1.07,7.84 1.62,11.75 0.25,1.81 0.56,3.6 0.88,5.4 0.52,2.85 0.91,8.56 5.39,7.05 0.95,-0.32 1.76,-0.95 2.48,-1.63 1.36,-1.28 2.61,-2.89 4.39,-3.58 3.54,-1.37 5.73,2.24 4.14,5.22 -0.71,1.34 -1.78,2.47 -2.84,3.52 -2.06,2.05 -4.12,4.1 -6.21,6.14 -1.8,1.76 -3.43,3.88 -5.78,4.94 -2.05,0.93 -4.14,-0.03 -5.17,-1.97 -0.76,-1.42 -1,-3.11 -1.21,-4.69 -0.27,-2.04 -0.54,-4.07 -0.82,-6.1 -0.61,-4.56 -1.23,-9.11 -1.84,-13.66 -0.18,-1.39 -0.21,-3.3 -1.17,-4.38 -0.95,-1.08 -2.52,-1.38 -3.84,-0.91 -1.28,0.46 -2.27,1.48 -3,2.63 -1.77,2.76 -2.5,6.44 -5.49,8.28 -1.72,1.05 -4.03,0.75 -5.16,-1.03 -1.56,-2.44 0.5,-5.15 1.94,-7.07 0.84,-1.12 1.71,-2.21 2.63,-3.26z"/>
  <path class="fil2" d="M1047.2 3430.93c1.96,-0.4 4.37,-0.66 5.64,0.9 0.63,0.78 0.79,1.82 0.84,2.81 0.37,7.17 -4.27,13.8 -10.07,18.03 -10.44,7.61 -24.09,8.93 -37.01,9.38 -14.54,0.5 -29.98,0.02 -42.26,-7.78 -5.03,-3.19 -9.55,-7.97 -10.29,-13.87 -0.96,-7.6 5.5,-13.72 12.82,-11.63 6.86,1.96 12.45,6.44 19.66,8.1 20.38,4.69 40.79,-1.77 60.67,-5.94z"/>
  <path class="fil2" d="M1281.46 3430.93c-1.96,-0.4 -4.38,-0.66 -5.64,0.9 -0.63,0.78 -0.79,1.82 -0.85,2.81 -0.36,7.17 4.28,13.8 10.08,18.03 10.44,7.61 24.09,8.93 37,9.38 14.55,0.5 29.99,0.02 42.27,-7.78 5.03,-3.19 9.55,-7.97 10.29,-13.87 0.96,-7.6 -5.5,-13.72 -12.82,-11.63 -6.86,1.96 -12.46,6.44 -19.67,8.1 -20.37,4.69 -40.78,-1.77 -60.66,-5.94z"/>
  <path class="fil2" d="M1169.75 3505.76c17.4,0.25 34.58,5.94 48.72,18.1 22.03,18.97 31.89,52.5 31.46,80.75 -0.4,26.87 -8.92,54.73 -30.04,72.52 -34.47,29.05 -83.22,21.38 -114.1,-9.58 -56.49,-56.62 -19.54,-162.99 63.96,-161.79z"/>
  <path class="fil2" d="M1204.75 3142.79c-181.75,0 -329.62,147.87 -329.62,329.62 0,181.76 147.87,329.63 329.62,329.63 181.76,0 329.63,-147.87 329.63,-329.63 0,-181.75 -147.87,-329.62 -329.63,-329.62zm0 677.46c-191.79,0 -347.83,-156.04 -347.83,-347.84 0,-191.79 156.04,-347.83 347.83,-347.83 191.8,0 347.84,156.04 347.84,347.83 0,191.8 -156.04,347.84 -347.84,347.84z"/>
  <path class="fil17" d="M1863.71 3348.87c3.4,-0.72 7.56,-1.14 9.75,1.55 1.08,1.33 1.37,3.14 1.46,4.85 0.63,12.39 -7.39,23.86 -17.41,31.17 -18.05,13.16 -41.64,15.42 -63.96,16.2 -25.14,0.88 -51.82,0.04 -73.05,-13.44 -8.69,-5.51 -16.5,-13.77 -17.79,-23.98 -1.65,-13.12 9.5,-23.71 22.16,-20.09 11.86,3.39 21.53,11.13 33.99,14 35.22,8.11 70.49,-3.06 104.85,-10.26z"/>
  <path class="fil17" d="M2050.89 3348.87c-3.4,-0.72 -7.56,-1.14 -9.74,1.55 -1.09,1.33 -1.38,3.14 -1.47,4.85 -0.63,12.39 7.39,23.86 17.42,31.17 18.04,13.16 41.63,15.42 63.95,16.2 25.14,0.88 51.82,0.04 73.05,-13.44 8.69,-5.51 16.5,-13.77 17.79,-23.98 1.65,-13.12 -9.5,-23.71 -22.16,-20.09 -11.86,3.39 -21.52,11.13 -33.99,14 -35.22,8.11 -70.49,-3.06 -104.85,-10.26z"/>
  <path class="fil17" d="M1854.44 3521.25c92.23,9.21 183.91,10.32 276.51,-5.21 23.91,-4.01 42.24,14.54 24.97,36.29 -8.59,10.83 -23.04,19.38 -35.32,25.52 -37.59,18.8 -80.09,22.17 -121.47,22.39 -44.24,0.24 -88.82,1.17 -132.62,-6.14 -31.91,-5.33 -109.18,-23.37 -111.61,-65.8 -1.19,-20.63 37.45,-14.33 48.71,-12.88 16.97,2.18 33.9,4.14 50.83,5.83z"/>
  <path class="fil17" d="M1957.3 3142.79c-181.75,0 -329.62,147.87 -329.62,329.62 0,181.76 147.87,329.63 329.62,329.63 181.76,0 329.63,-147.87 329.63,-329.63 0,-181.75 -147.87,-329.62 -329.63,-329.62zm0 677.46c-191.79,0 -347.83,-156.04 -347.83,-347.84 0,-191.79 156.04,-347.83 347.83,-347.83 191.8,0 347.83,156.04 347.83,347.83 0,191.8 -156.03,347.84 -347.83,347.84z"/>
  <path class="fil18" d="M2867.12 3462.08c33.11,0 55.56,33.57 43.07,64.24 -29.48,72.37 -107.36,124.06 -198.78,124.06 -91.43,0 -169.3,-51.69 -198.78,-124.06 -12.49,-30.67 9.95,-64.24 43.07,-64.24l311.42 0z"/>
  <path class="fil18" d="M2456.39 3342.27c-0.26,-0.63 -0.46,-1.29 -0.58,-1.96 -7.27,-40.87 70.73,-51.32 95.81,-43.43 12.88,4.04 25.81,11.08 36.08,19.83 3.97,3.37 29.46,35.25 11.12,35.68 -2.71,0.06 -5.17,-1.49 -7.39,-3.05 -16.74,-11.83 -25.65,-29.35 -46.77,-34.4 -23.16,-5.54 -48.55,1.96 -64.73,19.49 -5.11,5.55 -18.01,21.3 -23.54,7.84z"/>
  <path class="fil18" d="M2971.44 3342.27c0.26,-0.63 0.45,-1.29 0.57,-1.96 7.28,-40.87 -70.73,-51.32 -95.81,-43.43 -12.88,4.04 -25.8,11.08 -36.08,19.83 -3.96,3.37 -29.46,35.25 -11.12,35.68 2.71,0.06 5.17,-1.49 7.39,-3.05 16.74,-11.83 25.66,-29.35 46.77,-34.4 23.16,-5.54 48.55,1.96 64.73,19.49 5.11,5.55 18.01,21.3 23.55,7.84z"/>
  <path class="fil0" d="M2713.91 3142.79c-181.75,0 -329.62,147.87 -329.62,329.62 0,181.76 147.87,329.63 329.62,329.63 181.75,0 329.63,-147.87 329.63,-329.63 0,-181.75 -147.88,-329.62 -329.63,-329.62zm0 677.46c-191.79,0 -347.83,-156.04 -347.83,-347.84 0,-191.79 156.04,-347.83 347.83,-347.83 191.8,0 347.83,156.04 347.83,347.83 0,191.8 -156.03,347.84 -347.83,347.84z"/>
  <path class="fil2" d="M3344.08 3449.31c0,26.18 -13.8,47.39 -30.83,47.39 -17.02,0 -30.82,-21.21 -30.82,-47.39 0,-26.17 13.8,-47.39 30.82,-47.39 17.03,0 30.83,21.22 30.83,47.39z"/>
  <path class="fil2" d="M3652.31 3449.31c0,26.18 -13.8,47.39 -30.82,47.39 -17.02,0 -30.83,-21.21 -30.83,-47.39 0,-26.17 13.81,-47.39 30.83,-47.39 17.02,0 30.82,21.22 30.82,47.39z"/>
  <path class="fil2" d="M3576.75 3653.05c26.43,0 44.58,-24.99 33.44,-46.85 -22.64,-44.42 -76.52,-75.68 -139.38,-75.68 -62.86,0 -116.74,31.26 -139.38,75.68 -11.14,21.86 7.02,46.85 33.44,46.85l211.88 0z"/>
  <path class="fil2" d="M3172.02 3376.88c2.05,3.4 6.21,6.29 12.78,7.85 54.56,12.95 161.88,-3.57 170.64,-66.37 1.44,-10.28 -4.37,-35.35 -20.57,-23.43 -17.05,12.54 -28.71,29.97 -46.31,42.25 -17.26,12.05 -37.46,18.72 -59.33,18.01 -14.21,-0.46 -29.62,-3.32 -43.53,0.62 -12.51,3.54 -18.23,13.55 -13.68,21.07z"/>
  <path class="fil2" d="M3768.47 3376.88c-2.06,3.4 -6.21,6.29 -12.78,7.85 -54.56,12.95 -161.88,-3.57 -170.64,-66.37 -1.44,-10.28 4.36,-35.35 20.56,-23.43 17.06,12.54 28.72,29.97 46.32,42.25 17.26,12.05 37.46,18.72 59.32,18.01 14.21,-0.46 29.63,-3.32 43.54,0.62 12.51,3.54 18.23,13.55 13.68,21.07z"/>
  <path class="fil2" d="M3470.24 3142.79c-181.75,0 -329.62,147.87 -329.62,329.62 0,181.76 147.87,329.63 329.62,329.63 181.76,0 329.63,-147.87 329.63,-329.63 0,-181.75 -147.87,-329.62 -329.63,-329.62zm0 677.46c-191.79,0 -347.83,-156.04 -347.83,-347.84 0,-191.79 156.04,-347.83 347.83,-347.83 191.79,0 347.83,156.04 347.83,347.83 0,191.8 -156.04,347.84 -347.83,347.84z"/>
  <path class="fil19" d="M4034.83 3304.81c0,-23.56 19.1,-42.66 42.67,-42.66 23.55,0 42.65,19.1 42.65,42.66 0,23.56 -19.1,42.66 -42.65,42.66 -23.57,0 -42.67,-19.1 -42.67,-42.66z"/>
  <path class="fil19" d="M4333.54 3304.81c0,-23.56 19.09,-42.66 42.67,-42.66 23.54,0 42.67,19.1 42.67,42.66 0,23.56 -19.13,42.66 -42.67,42.66 -23.58,0 -42.67,-19.1 -42.67,-42.66z"/>
  <path class="fil19" d="M4080.57 3536.41c0,-80.79 65.5,-146.28 146.26,-146.28 80.8,0 146.3,65.49 146.3,146.28 0,80.78 -65.5,146.27 -146.3,146.27 -80.76,0 -146.26,-65.49 -146.26,-146.27z"/>
  <path class="fil19" d="M4226.83 3142.79c-181.73,0 -329.6,147.87 -329.6,329.62 0,181.76 147.87,329.63 329.6,329.63 181.75,0 329.63,-147.87 329.63,-329.63 0,-181.75 -147.88,-329.62 -329.63,-329.62zm0 677.46c-191.77,0 -347.81,-156.04 -347.81,-347.84 0,-191.79 156.04,-347.83 347.81,-347.83 191.8,0 347.84,156.04 347.84,347.83 0,191.8 -156.04,347.84 -347.84,347.84z"/>
  <path class="fil20" d="M225.74 4231.42c-20.83,55.12 -39.45,111.08 -56.67,167.37 -0.94,3.04 -1.83,6.38 -0.81,9.38 1.64,4.83 7.21,6.83 12.11,8.16 29.83,8.09 60.19,14.25 90.82,18.42 22.68,3.08 35.22,-3.58 39.17,-26.25 5.69,-32.62 3.64,-68.46 6.06,-101.58 3.06,-42.04 6.82,-84 11.27,-125.92 3.57,-33.53 16.93,-76.82 5.63,-109.75 -2.95,-8.56 -10.58,-16.2 -19.64,-16.2 -9.04,0 -16.49,7.38 -20.66,15.4 -26.51,50.88 -47.01,107.34 -67.28,160.97z"/>
  <path class="fil20" d="M320.2 4073.97c8.22,-1.16 15.6,-5.47 22.74,-9.7 9.33,-5.53 19.03,-11.4 24.72,-20.64 2.61,-4.25 4.12,-10.12 0.98,-14 -2.11,-2.6 -5.68,-3.47 -9.01,-3.79 -22.84,-2.18 -45.25,14.14 -67.6,8.94 -9.61,-2.24 -59.93,-27.41 -45.27,1.91 10.26,20.51 52.02,40.31 73.44,37.28z"/>
  <path class="fil20" d="M669.6 4226.79c21.13,55 40.06,110.84 57.59,167.04 0.95,3.05 1.86,6.38 0.85,9.38 -1.6,4.83 -7.17,6.87 -12.06,8.21 -29.78,8.25 -60.11,14.62 -90.72,18.95 -22.66,3.17 -35.24,-3.37 -39.32,-26.04 -5.85,-32.58 -4,-68.46 -6.6,-101.54 -3.3,-42.04 -7.29,-83.96 -11.97,-125.83 -3.75,-33.54 -17.35,-76.76 -6.23,-109.75 2.91,-8.58 10.5,-16.26 19.55,-16.31 9.05,-0.05 16.53,7.29 20.76,15.29 26.77,50.73 47.58,107.1 68.15,160.6z"/>
  <path class="fil20" d="M569.87 4073.97c-8.23,-1.16 -15.6,-5.47 -22.75,-9.7 -9.33,-5.53 -19.02,-11.4 -24.72,-20.64 -2.61,-4.25 -4.12,-10.12 -0.98,-14 2.11,-2.6 5.68,-3.47 9.01,-3.79 22.84,-2.18 45.26,14.14 67.6,8.94 9.62,-2.24 59.94,-27.41 45.27,1.91 -10.26,20.51 -52.01,40.31 -73.43,37.28z"/>
  <path class="fil20" d="M332.14 4364.75c-2.13,-44.71 37.88,-77.17 70.52,-100.79 14.75,-10.71 30.07,-24.75 48.96,-27.46 21.3,-3.04 38.7,12.42 51.9,27.17 13.63,15.16 26.1,31.37 37.17,48.54 11.62,17.96 21.85,40.96 12.1,60 -7.53,14.79 -25.18,21.96 -41.75,22.33 -16.58,0.38 -32.7,-4.79 -48.82,-8.67 -12.29,-2.91 -25.5,-4.58 -38.29,-3 -6.51,0.84 -12.9,2.46 -18.95,5.01 -6.22,2.58 -11.68,6.45 -18.02,8.79 -10.93,4.04 -23.83,4.25 -34.75,-0.38 -11.11,-4.75 -18.18,-14.75 -19.65,-26.67 -0.2,-1.66 -0.34,-3.24 -0.42,-4.87z"/>
  <path class="fil20" d="M448.15 3899.4c-181.76,0 -329.63,147.87 -329.63,329.64 0,181.75 147.87,329.58 329.63,329.58 181.75,0 329.62,-147.83 329.62,-329.58 0,-181.77 -147.87,-329.64 -329.62,-329.64zm0 677.43c-191.8,0 -347.83,-156 -347.83,-347.79 0,-191.81 156.03,-347.84 347.83,-347.84 191.79,0 347.82,156.03 347.82,347.84 0,191.79 -156.03,347.79 -347.82,347.79z"/>
  <path class="fil0" d="M1338.02 4256.83c16.22,0 28.03,15.3 24.15,31 -15.91,64.42 -80.35,112.59 -157.42,112.59 -77.07,0 -141.5,-48.17 -157.41,-112.59 -3.89,-15.7 7.93,-31 24.15,-31l266.53 0z"/>
  <path class="fil0" d="M1082.98 4117.6c8.29,14.08 12.3,34.37 -0.05,45.09 -10.12,8.77 -25.35,6.14 -38.66,4.64 -33.57,-3.81 -68.29,3.09 -97.83,19.5 -1.92,1.09 -3.86,2.17 -6.02,2.59 -4.38,0.79 -8.96,-1.84 -11.18,-5.67 -4.08,-7.12 -0.36,-16.62 6.08,-21.7 6.44,-5.06 14.82,-6.76 22.86,-8.32 33.89,-6.54 69.09,-13.07 102.59,-4.75 1.61,0.4 3.31,0.83 4.92,0.4 5.36,-1.48 3.94,-9.59 0.76,-14.15 -11.16,-15.94 -29.25,-25.74 -47.74,-31.78 -15.18,-4.95 -57.74,-5.89 -67.14,-19.27 -12.37,-17.62 23.63,-27.22 36.1,-26.53 35.08,1.96 77.88,30.36 95.31,59.95z"/>
  <path class="fil0" d="M1326.53 4117.6c-8.3,14.08 -12.3,34.37 0.04,45.09 10.13,8.77 25.35,6.14 38.67,4.64 33.57,-3.81 68.28,3.09 97.83,19.5 1.92,1.09 3.86,2.17 6.02,2.59 4.38,0.79 8.96,-1.84 11.18,-5.67 4.08,-7.12 0.35,-16.62 -6.09,-21.7 -6.43,-5.06 -14.81,-6.76 -22.86,-8.32 -33.89,-6.54 -69.08,-13.07 -102.58,-4.75 -1.62,0.4 -3.31,0.83 -4.92,0.4 -5.36,-1.48 -3.95,-9.59 -0.76,-14.15 11.16,-15.94 29.24,-25.74 47.74,-31.78 15.17,-4.95 57.73,-5.89 67.14,-19.27 12.37,-17.62 -23.63,-27.22 -36.11,-26.53 -35.07,1.96 -77.88,30.36 -95.3,59.95z"/>
  <path class="fil0" d="M1204.75 3899.4c-181.75,0 -329.62,147.87 -329.62,329.64 0,181.75 147.87,329.58 329.62,329.58 181.76,0 329.63,-147.83 329.63,-329.58 0,-181.77 -147.87,-329.64 -329.63,-329.64zm0 677.43c-191.79,0 -347.83,-156 -347.83,-347.79 0,-191.81 156.04,-347.84 347.83,-347.84 191.8,0 347.84,156.03 347.84,347.84 0,191.79 -156.04,347.79 -347.84,347.79z"/>
  <path class="fil15" d="M2066.81 4360.54c6.21,2.29 12.46,-2.96 11.53,-9.5 -7.77,-54.5 -60.03,-96.66 -123.36,-96.66 -63.3,0 -115.56,42.12 -123.35,96.62 -0.94,6.54 5.35,11.79 11.56,9.5l59.67 -22.04c33.25,-12.29 69.79,-12.38 103.08,-0.17l60.87 22.25z"/>
  <path class="fil15" d="M1858.34 4098.28c3.91,0.42 7.76,0.93 11.53,1.55 33.41,5.43 40.39,37.68 3.3,43.28 -19.8,2.99 -40.46,-2.4 -59.64,-5.86 -27.1,-4.88 -53.83,-8.2 -80.02,1.71 -6.81,2.58 -12.49,-0.63 -13.52,-6.46 -1.24,-6.99 8.43,-12.66 14.64,-15.54 35.37,-16.45 82.54,-23.07 123.71,-18.68z"/>
  <path class="fil15" d="M2154.97 4098.28c3.9,0.42 7.75,0.93 11.53,1.55 33.4,5.43 40.38,37.68 3.3,43.28 -19.8,2.99 -40.46,-2.4 -59.65,-5.86 -27.1,-4.88 -53.83,-8.2 -80.01,1.71 -6.82,2.58 -12.5,-0.63 -13.53,-6.46 -1.24,-6.99 8.43,-12.66 14.64,-15.54 35.38,-16.45 82.54,-23.07 123.72,-18.68z"/>
  <path class="fil15" d="M1843.24 4146.65c0,-12.03 9.75,-21.77 21.77,-21.77 12.03,0 21.78,9.74 21.78,21.77 0,12.02 -9.75,21.77 -21.78,21.77 -12.02,0 -21.77,-9.75 -21.77,-21.77z"/>
  <path class="fil15" d="M2143.93 4146.65c0,-12.03 9.74,-21.77 21.77,-21.77 12.03,0 21.77,9.74 21.77,21.77 0,12.02 -9.74,21.77 -21.77,21.77 -12.03,0 -21.77,-9.75 -21.77,-21.77z"/>
  <path class="fil5" d="M1957.3 3899.4c-181.75,0 -329.62,147.87 -329.62,329.64 0,181.75 147.87,329.58 329.62,329.58 181.76,0 329.63,-147.83 329.63,-329.58 0,-181.77 -147.87,-329.64 -329.63,-329.64zm0 677.43c-191.79,0 -347.83,-156 -347.83,-347.79 0,-191.81 156.04,-347.84 347.83,-347.84 191.8,0 347.83,156.03 347.83,347.84 0,191.79 -156.03,347.79 -347.83,347.79z"/>
  <path class="fil17" d="M2522.41 4122.25c0,-23.56 19.1,-42.66 42.66,-42.66 23.56,0 42.66,19.1 42.66,42.66 0,23.56 -19.1,42.67 -42.66,42.67 -23.56,0 -42.66,-19.11 -42.66,-42.67z"/>
  <path class="fil17" d="M2819.76 4100.37c-5.11,1.87 -10,4.15 -14.32,7.39 -22.23,16.68 1.92,36.62 17.51,46.43 16.92,10.65 44.36,29.56 65.45,25.48 3.31,-0.67 6.77,-2.04 8.45,-5 7.96,-13.86 -14.27,-20.43 -23.27,-24.32 -6.67,-2.88 -19.78,-9.37 -18.99,-18.38 0.24,-2.65 1.86,-4.99 3.77,-6.85 13.2,-12.88 41.54,-9.1 46.74,-30.53 0.7,-2.88 0.27,-6.15 -1.68,-8.38 -1.9,-2.18 -4.89,-3.05 -7.74,-3.53 -17.62,-2.98 -34.96,3.09 -51.09,9.57 -7.88,3.17 -16.64,5.12 -24.83,8.12z"/>
  <path class="fil17" d="M2685.77 4377.63c11.13,1.7 22.91,0.99 32.98,-4 7.42,-3.71 13.46,-9.51 18.69,-15.84 5.43,-6.58 8.2,-12.16 17.82,-10.96 9.44,1.21 17.84,6.25 26.97,8.63 16.66,4.33 33.49,-5.25 41.73,-19.67 4.45,-7.79 7.96,-17.29 8.46,-26.29 0.18,-3.25 -4.49,-25.54 -11.5,-19.5 -0.74,0.63 -0.97,1.67 -1.12,2.63 -1.33,8.91 0.49,17.58 -3.3,26.08 -3.02,6.79 -8,12.58 -14.1,16.79 -12.38,8.54 -29.19,9.87 -41.11,-0.25 -3.27,-2.79 -6.33,-5.87 -10.05,-8.04 -9.26,-5.38 -17.6,-0.75 -22.49,7.71 -4.45,7.75 -5.73,15.33 -12.9,21.33 -6.03,5.08 -13.79,7.67 -21.63,7.71 -16.91,0.16 -30.67,-10.58 -43.56,-20.21 -1.86,-1.42 -3.8,-2.83 -6.06,-3.38 -2.26,-0.54 -4.94,-0.04 -6.33,1.8 -2.15,2.87 -0.24,6.95 1.94,9.83 10.66,13.96 27.38,22.67 44.73,25.5 0.28,0.04 0.55,0.08 0.83,0.13z"/>
  <path class="fil17" d="M2713.91 3899.4c-181.75,0 -329.62,147.87 -329.62,329.64 0,181.75 147.87,329.58 329.62,329.58 181.75,0 329.63,-147.83 329.63,-329.58 0,-181.77 -147.88,-329.64 -329.63,-329.64zm0 677.43c-191.79,0 -347.83,-156 -347.83,-347.79 0,-191.81 156.04,-347.84 347.83,-347.84 191.8,0 347.83,156.03 347.83,347.84 0,191.79 -156.03,347.79 -347.83,347.79z"/>
  <path class="fil6" d="M3278.22 4138.36c0,-23.56 19.11,-42.66 42.67,-42.66 23.56,0 42.66,19.1 42.66,42.66 0,23.57 -19.1,42.68 -42.66,42.68 -23.56,0 -42.67,-19.11 -42.67,-42.68z"/>
  <path class="fil6" d="M3576.93 4138.36c0,-23.56 19.11,-42.66 42.67,-42.66 23.56,0 42.66,19.1 42.66,42.66 0,23.57 -19.1,42.68 -42.66,42.68 -23.56,0 -42.67,-19.11 -42.67,-42.68z"/>
  <path class="fil6" d="M3459.04 4305.33c-5.97,2.09 -8.81,8.88 -6.09,14.59l8.82 18.46c3.14,6.58 6.42,13.33 11.83,18.24 5.41,4.88 13.55,7.46 20.16,4.38 5.59,-2.63 8.87,-8.71 9.74,-14.83 0.25,-1.75 0.33,-3.5 0.3,-5.25 -0.1,-4.84 4.87,-7.96 9.13,-5.71 4.4,2.37 9.15,3.92 14.51,3.54 4.13,-0.25 8.15,-2.04 10.72,-5.29 6.49,-8.17 1.02,-18.09 -5.35,-24.75 -6.73,-7.04 -14.83,-12.75 -23.69,-16.75 -3.25,-1.46 -6.93,-1.63 -10.3,-0.46l-39.78 13.83z"/>
  <path class="fil6" d="M3470.24 3899.4c-181.75,0 -329.62,147.87 -329.62,329.64 0,181.75 147.87,329.58 329.62,329.58 181.76,0 329.63,-147.83 329.63,-329.58 0,-181.77 -147.87,-329.64 -329.63,-329.64zm0 677.43c-191.79,0 -347.83,-156 -347.83,-347.79 0,-191.81 156.04,-347.84 347.83,-347.84 191.79,0 347.83,156.03 347.83,347.84 0,191.79 -156.04,347.79 -347.83,347.79z"/>
  <path class="fil2" d="M4351.29 4404.5l-248.88 0c-5.03,0 -9.11,-4.08 -9.11,-9.08 0,-5.05 4.08,-9.13 9.11,-9.13l248.88 0c5.04,0 9.13,4.08 9.13,9.13 0,5 -4.09,9.08 -9.13,9.08z"/>
  <path class="fil2" d="M4071.77 4071.75c-47.55,0 -86.24,38.68 -86.24,86.23 0,47.56 38.69,86.23 86.24,86.23 47.55,0 86.23,-38.67 86.23,-86.23 0,-47.55 -38.68,-86.23 -86.23,-86.23zm0 190.67c-57.59,0 -104.45,-46.84 -104.45,-104.44 0,-57.59 46.86,-104.44 104.45,-104.44 57.59,0 104.44,46.85 104.44,104.44 0,57.6 -46.85,104.44 -104.44,104.44z"/>
  <path class="fil2" d="M4029.1 4157.98c0,-23.56 19.11,-42.66 42.67,-42.66 23.56,0 42.66,19.1 42.66,42.66 0,23.56 -19.1,42.65 -42.66,42.65 -23.56,0 -42.67,-19.09 -42.67,-42.65z"/>
  <path class="fil2" d="M4381.92 4071.75c-47.55,0 -86.21,38.68 -86.21,86.23 0,47.56 38.66,86.23 86.21,86.23 47.58,0 86.25,-38.67 86.25,-86.23 0,-47.55 -38.67,-86.23 -86.25,-86.23zm0 190.67c-57.59,0 -104.42,-46.84 -104.42,-104.44 0,-57.59 46.83,-104.44 104.42,-104.44 57.62,0 104.46,46.85 104.46,104.44 0,57.6 -46.84,104.44 -104.46,104.44z"/>
  <path class="fil2" d="M4339.29 4157.98c0,-23.56 19.08,-42.66 42.63,-42.66 23.58,0 42.66,19.1 42.66,42.66 0,23.56 -19.08,42.65 -42.66,42.65 -23.55,0 -42.63,-19.09 -42.63,-42.65z"/>
  <path class="fil2" d="M4226.83 3899.4c-181.73,0 -329.6,147.87 -329.6,329.64 0,181.75 147.87,329.58 329.6,329.58 181.75,0 329.63,-147.83 329.63,-329.58 0,-181.77 -147.88,-329.64 -329.63,-329.64zm0 677.43c-191.77,0 -347.81,-156 -347.81,-347.79 0,-191.81 156.04,-347.84 347.81,-347.84 191.8,0 347.84,156.03 347.84,347.84 0,191.79 -156.04,347.79 -347.84,347.79z"/>
 </g>
</svg>
