<?xml version="1.0" encoding="UTF-8"?>
<!DOCTYPE svg PUBLIC "-//W3C//DTD SVG 1.1//EN" "http://www.w3.org/Graphics/SVG/1.1/DTD/svg11.dtd">
<!-- Creator: CorelDRAW -->
<svg xmlns="http://www.w3.org/2000/svg" xml:space="preserve" width="300px" height="250px" version="1.1" style="shape-rendering:geometricPrecision; text-rendering:geometricPrecision; image-rendering:optimizeQuality; fill-rule:evenodd; clip-rule:evenodd"
viewBox="0 0 300 250"
 xmlns:xlink="http://www.w3.org/1999/xlink"
 xmlns:xodm="http://www.corel.com/coreldraw/odm/2003"
 data-name="Layer 1">
 <defs>
  <style type="text/css">
   <![CDATA[
    .str1 {stroke:#282829;stroke-width:0.61;stroke-miterlimit:22.9256}
    .str0 {stroke:#282829;stroke-width:0.91;stroke-miterlimit:22.9256}
    .str2 {stroke:#282829;stroke-width:0.09;stroke-miterlimit:22.9256}
    .fil10 {fill:none;fill-rule:nonzero}
    .fil8 {fill:black;fill-rule:nonzero}
    .fil0 {fill:#00AEEF;fill-rule:nonzero}
    .fil4 {fill:#211C1B;fill-rule:nonzero}
    .fil7 {fill:#57CEF2;fill-rule:nonzero}
    .fil6 {fill:#5BA6AC;fill-rule:nonzero}
    .fil5 {fill:#9EA1A7;fill-rule:nonzero}
    .fil13 {fill:#AEB0B6;fill-rule:nonzero}
    .fil1 {fill:#BEC1C1;fill-rule:nonzero}
    .fil11 {fill:#C7C8CC;fill-rule:nonzero}
    .fil12 {fill:#EBE6D7;fill-rule:nonzero}
    .fil9 {fill:#FEEFE7;fill-rule:nonzero}
    .fil3 {fill:#FFD100;fill-rule:nonzero}
    .fil2 {fill:white;fill-rule:nonzero}
   ]]>
  </style>
   <clipPath id="id0" style="clip-rule:nonzero">
    <path d="M79.668 202.82l234.895 0 0 -166.141 -234.895 0 0 166.141z"/>
   </clipPath>
 </defs>
 <g id="Capa_x0020_1">
  <metadata id="CorelCorpID_0Corel-Layer"/>
  <path class="fil0" d="M31.714 193.917c-0.271,-2.412 -0.421,-4.878 -0.421,-7.304 0,-1.503 0.055,-3.008 0.163,-4.498 -0.027,-0.095 -0.041,-0.176 -0.041,-0.271 0,-0.556 0.394,-1.03 0.935,-1.166 0.055,0 0.122,-0.013 0.19,-0.013 0.067,0 0.122,0.013 0.189,0.013 9.54,-0.935 19.215,-1.45 28.822,-1.45 3.957,0 7.995,0.095 11.924,0.244 0.055,0 0.095,0 0.149,0 0.502,0 1.003,0.136 1.437,0.393 0.271,0.176 0.447,0.488 0.447,0.827 0,0.189 -0.068,0.379 -0.163,0.542 -0.027,0.027 -0.04,0.054 -0.054,0.081 -0.027,0.027 -0.23,9.784 0.325,12.71 -26.558,-0.84 -43.903,-0.108 -43.903,-0.108l0.001 0z"/>
  <g id="_2190327539840">
   <path class="fil1" d="M28.434 202.467c-0.216,-1.138 -0.338,-2.303 -0.338,-3.455 0,-1.572 0.216,-3.144 0.609,-4.662l0 -0.365c15.339,-0.921 36.885,-0.881 52.928,-0.976 1.274,0 2.452,5.366 1.748,8.171l-54.947 1.287zm0 0l0 0 0 0z"/>
  </g>
  <g id="_2190327542144">
   <path class="fil2" d="M76.023 168.348c1.314,-3.361 0.84,-9.134 -0.799,-9.215 -1.626,-0.081 -5.976,0 -8.592,0.095 -8.238,0.244 -19.038,1.003 -27.263,1.464 -1.03,0.054 -1.152,1.002 -1.368,1.652 -0.38,1.477 -0.569,3.022 -0.569,4.554 0,1.192 0.108,2.384 0.338,3.563l38.253 -2.114 0 0.001zm0 0l0 0 0 0z"/>
  </g>
  <g id="_2190327542384">
  </g>
  <g>
  </g>
  <g style="clip-path:url(#id0)">
   <g id="_2190327654320">
    <path class="fil3" d="M278.56 112.385c-0.298,-12.86 -12.805,-17.372 -14.147,-22.792 -1.761,-7.263 5.705,-11.382 11.233,-16.627 5.244,-4.959 -4.485,-14.851 -13.808,-15.176 -9.309,-0.311 -7.71,3.212 -4.851,2.9 2.873,-0.325 10.61,2.561 7.724,7.073 -2.886,4.499 -3.347,2.575 -12.995,7.074 -10.935,5.108 -15.285,22.479 -0.826,26.328 13.157,3.496 7.94,24.201 -3.862,22.494 -22.169,-3.225 -11.559,-14.784 -12.209,-24.418 -0.434,-6.491 -3.808,-11.816 -12.006,-10.136 -6.707,1.382 -12.208,-2.643 -9.39,-11.084 4.81,-14.458 5.542,-23.131 1.206,-30.122 -4.58,-7.006 -12.385,-11.22 -20.759,-11.22 -2.317,0 -4.634,0.325 -6.87,0.962 -11.084,2.981 -19.431,-0.501 -25.841,0.691 -10.976,0.434 -16.315,7.453 -20.962,21.816 -1.558,5.122 -2.344,10.474 -2.344,15.841 0,1.043 0.04,2.086 0.094,3.13 1.22,15.244 10.597,28.645 24.499,35.014 13.903,6.368 -0.067,0.217 0.691,0.488 3.564,6.084 8.008,11.083 13.456,14.228 28.279,16.26 19.838,9.959 34.933,3.604 7.1,-2.981 11.463,2.317 13.983,8.198 2.196,5.054 5.312,14.228 19.513,12.778 34.214,-3.483 33.943,-24.391 33.537,-41.044l0.001 0z"/>
    <path class="fil2" d="M186.201 106.273c-2.981,6.179 -4.54,12.968 -4.54,19.838 0,0.285 0.014,0.597 0.014,0.881 -4.919,4.756 -9.431,5.542 -16.83,4.147 -1.978,-0.366 -6.666,-3.212 -6.735,-5.407 -0.067,-2.195 -2.33,-18.117 -2.33,-18.117l30.42 -1.341 0.001 -0.001z"/>
    <path class="fil2" d="M193.017 84.376c0.488,3.74 3.198,3.984 2.371,6.938 -0.217,1.07 -0.935,1.965 -1.924,2.412 -0.786,0.474 -2.371,-0.19 -3.265,0l-0.271 2.073c-1.856,6.531 -4.011,14.255 -9.96,17.656 -4.16,2.371 -4.363,2.71 -10.095,2.967 -0.285,0 -0.569,0.013 -0.854,0.013 -2.574,0 -5.135,-0.352 -7.615,-1.03 -2.941,-0.989 -5.65,-2.574 -7.954,-4.661 -1.775,-1.721 -3.252,-3.727 -4.336,-5.949 -2.777,-5.23 -3.523,-8.021 -4.349,-15.013l0.541 3.116c-1.382,0.691 -3.116,0.976 -4.376,0.109 -1.017,-0.691 -1.261,-2.25 -1.302,-3.469 -0.081,-3.212 -0.081,-6.111 0.502,-8.076 0,0 3.116,2.032 7.575,-4.852 3.617,-5.542 3.983,-20.84 19.16,-15.176 14.824,-5.298 18.916,1.084 23.022,8.795 0.84,5 3.13,14.146 3.13,14.146l0 0.001z"/>
    <path class="fil4" d="M157.84 81.53c-0.203,-0.081 -0.42,-0.136 -0.651,-0.189 -0.121,-0.027 -0.257,-0.041 -0.392,-0.041 -0.136,0 -0.258,0.014 -0.393,0.041 -0.325,0.108 -0.624,0.298 -0.867,0.528 -0.285,0.231 -0.542,0.515 -0.732,0.827 -0.217,0.42 -0.326,0.867 -0.326,1.341 0,0.122 0,0.245 0.014,0.366 0.013,0.597 0.244,1.166 0.663,1.599 0.38,0.353 0.868,0.556 1.383,0.556 0.257,0 0.501,-0.054 0.731,-0.135 0.691,-0.19 1.26,-0.705 1.477,-1.382 0.041,-0.163 0.054,-0.312 0.054,-0.461 0,-0.556 -0.216,-1.084 -0.623,-1.463 -0.325,-0.298 -0.758,-0.461 -1.206,-0.461 -0.338,0 -0.664,0.095 -0.962,0.285 -0.555,0.298 -0.907,0.894 -0.907,1.531 0,0.298 0.081,0.583 0.216,0.84 0.028,0.027 0.041,0.068 0.055,0.095 0.257,0.298 0.623,0.474 1.016,0.474 0.162,0 0.311,-0.027 0.46,-0.081 0.475,-0.19 0.841,-0.569 1.017,-1.044 0.067,-0.135 0.108,-0.271 0.108,-0.406 0,-0.285 -0.149,-0.556 -0.393,-0.719 -0.122,-0.067 -0.257,-0.108 -0.406,-0.108 -0.285,0 -0.556,0.162 -0.705,0.406 -0.054,0.095 -0.109,0.204 -0.163,0.299 -0.054,0.094 0.095,-0.095 0,0l-0.067 0.054c-0.068,0.068 0.122,-0.082 0.04,0 -0.067,0.081 0.082,0 0.095,0l-0.082 0c-0.081,0 0.109,0 0.109,0 0,0 -0.149,0 0.068,0 -0.027,0 -0.082,-0.04 0,0 0.108,0.04 0.203,0.122 0.244,0.231 0.054,0.108 0,-0.068 0,0.054 0,0.136 0,-0.041 0,-0.068 0,-0.027 0,0.095 0,0.109 0,-0.013 0,-0.027 0,-0.041 0,-0.013 0,-0.013 0,-0.027 -0.014,-0.013 0.054,-0.189 0,-0.054 -0.068,0.135 0,0 0.04,-0.054 0.041,-0.068 -0.122,0.108 0,0 0.027,-0.028 0.068,-0.068 0.095,-0.095 0.04,-0.041 -0.136,0.095 -0.068,0.054l0.054 0c0.028,0 0.19,-0.109 0.055,-0.04 -0.122,0.067 0,0 0.054,0l0.082 0c-0.122,0.067 -0.19,0 -0.095,0l0.136 0c0,0 -0.177,-0.055 -0.109,0l0.095 0c0.067,0 -0.109,-0.041 -0.109,-0.055 0,0 0.041,0 0.068,0 0.013,0 -0.082,-0.067 -0.041,0 0.027,0.041 0.055,0.068 0.095,0.082 0.054,0.054 -0.068,-0.082 -0.068,-0.082l0.041 0.068 0.067 0.122c0,0 -0.067,-0.19 -0.04,-0.109l0 0.055c0,0.04 0,0.081 0,0.121 0,0.041 0,-0.203 0,-0.027 -0.013,0.014 -0.013,0.041 -0.013,0.055 0,0.027 0,0.04 0.013,0.067 0,0.109 0.04,-0.19 0,-0.095 0,0.014 -0.013,0.014 -0.013,0.028 0,0.013 0.013,0.027 0.013,0.027l0 0.054c0,0.081 0.04,-0.095 0.04,-0.095 -0.027,0.041 -0.04,0.082 -0.067,0.122 -0.027,0.068 0.067,-0.081 0.067,-0.094l0 0.04c0,0 -0.135,0.122 0,0 0.136,-0.109 0,0 -0.04,0 -0.04,0.04 -0.095,0.068 -0.136,0.094l-0.067 0c-0.068,0.041 0.094,0 0.094,0 -0.04,0 -0.081,0.028 -0.135,0.041l-0.136 0c-0.04,0 -0.23,0.041 -0.082,0 0.163,-0.041 -0.04,0 -0.067,0 -0.027,0 -0.054,0.013 -0.068,0.013 -0.027,0 -0.054,-0.013 -0.067,-0.013 -0.027,0 0.203,0.054 0.108,0l-0.054 0 -0.068 0c-0.081,0 0.15,0.082 0.095,0.041 -0.067,-0.055 -0.176,-0.122 -0.067,0 0.108,0.108 0,0 -0.028,-0.041 -0.04,-0.041 -0.135,-0.162 -0.054,0 0.095,0.149 0,0 0,-0.067 0,-0.068 -0.054,-0.095 -0.054,-0.109 0.013,-0.013 0.095,0.217 0.04,0.067 -0.027,-0.067 -0.04,-0.135 -0.054,-0.203 0,-0.149 0.027,0.109 0,0.136 0,-0.013 0,-0.027 0,-0.041 0,-0.027 0,-0.04 0,-0.054l0 -0.311c0,-0.082 0,-0.177 0,-0.258 0,-0.013 0,-0.04 0,-0.054 0,-0.028 0,-0.041 0,-0.068l0 -0.054c0,-0.122 0,0.122 0,0.108 0,-0.081 0.027,-0.148 0.054,-0.23 0.027,-0.068 0,0 0,-0.055 0,-0.054 -0.054,0.109 -0.054,0.109l0.081 -0.149c0.068,-0.122 0.122,-0.231 0.19,-0.352l0.122 -0.19c0.013,-0.027 0.04,-0.054 0.054,-0.081 0.068,-0.109 0,0 0,0 0,0 0.203,-0.217 0.231,-0.244 0.027,-0.027 -0.136,0.068 0,0l0.108 -0.068c0,0 -0.162,0.055 -0.108,0.041l0.067 0 0.109 0c0,0 -0.163,0 -0.095,0l0.189 0c0.244,0 0.475,-0.027 0.691,-0.068 0.231,-0.068 0.393,-0.271 0.393,-0.515 0,-0.23 -0.162,-0.434 -0.379,-0.501l-0.082 -0.027 0.002 -0.002z"/>
    <path class="fil4" d="M181.81 80.866c-0.284,-0.081 -0.582,-0.135 -0.881,-0.149 -0.013,0 -0.027,0 -0.04,0 -0.311,0 -0.623,0.068 -0.894,0.217 -0.624,0.434 -1.084,1.07 -1.288,1.802 -0.094,0.298 -0.135,0.609 -0.135,0.922 0,0.148 0.013,0.311 0.04,0.46 0.013,0.542 0.203,1.057 0.542,1.491 0.42,0.406 0.976,0.623 1.545,0.623 0.217,0 0.434,-0.027 0.637,-0.095 0.609,-0.109 1.138,-0.488 1.463,-1.03 0.189,-0.311 0.285,-0.664 0.285,-1.03 0,-0.42 -0.122,-0.827 -0.366,-1.165 -0.352,-0.529 -0.934,-0.84 -1.558,-0.84 -0.258,0 -0.502,0.04 -0.732,0.135 -0.732,0.285 -1.219,0.989 -1.219,1.775 0,0.231 0.054,0.461 0.135,0.678l0.041 0.108c0.243,0.393 0.691,0.637 1.165,0.637 0.149,0 0.285,-0.013 0.42,-0.054 0.515,-0.204 0.921,-0.596 1.111,-1.111 0.068,-0.122 0.108,-0.258 0.108,-0.407 0,-0.285 -0.148,-0.556 -0.392,-0.705 -0.136,-0.067 -0.271,-0.108 -0.42,-0.108 -0.285,0 -0.556,0.149 -0.705,0.393 -0.054,0.122 -0.122,0.23 -0.177,0.338 -0.067,0.122 0.041,-0.04 0.041,-0.04 0,0 -0.067,0.081 -0.081,0.095 0,0 -0.082,0 0,0 0.081,0 -0.109,0.04 0.04,0 0.149,-0.055 0,0 0,0 0,0 -0.176,0 0.068,0 -0.149,0 0.149,0 0,0 0.108,0.013 0.203,0.081 0.258,0.176 0.081,0.162 0,0.094 0,0 0,0.054 0,0.162 0,0.054l0 -0.081c0,-0.095 -0.055,0.162 0,0.067 0.04,-0.095 0.054,-0.189 0,-0.067 -0.068,0.108 0.026,-0.055 0.04,-0.082 0.013,-0.027 0.068,-0.094 0,0 -0.068,0.082 0,0 0,0 0.054,-0.04 0.094,-0.081 0.136,-0.122 0.04,-0.04 -0.136,0.082 -0.068,0.055 0.027,-0.014 0.054,-0.027 0.068,-0.055l0.067 0c0.068,-0.04 -0.067,0.055 -0.081,0l0.189 -0.054c0,0 -0.176,0 -0.094,0l0.108 0c0,0 0.054,0 0.068,0 0.013,0 -0.162,-0.041 -0.095,0 0.013,0.013 0.027,0.013 0.041,0.013 0.013,0 0.026,0 0.04,-0.013 0.095,0 0,0.054 -0.068,0 -0.067,-0.054 0.19,0.136 0.068,0 -0.122,-0.122 0.027,0.04 0.054,0.068 0.013,0.027 -0.081,-0.149 0,0l0.082 0.122c0.054,0.108 0,-0.055 0,-0.068 -0.014,0.013 -0.014,0.027 -0.014,0.04 0,0.014 0,0.028 0,0.041 0,0.04 0.055,0.23 0,0.067 -0.04,-0.149 0,0 0,0.055 0,0.013 0,0.027 0,0.027 0,0.013 0,0.027 0,0.04 0,0.082 -0.054,0.095 0,-0.081 -0.013,0.054 -0.027,0.108 -0.027,0.162 0,0 0,0.014 0,0.027 0,0.014 0,0.014 0,0.028 0,0.013 0.109,-0.177 0,-0.068 0,0 0,0.013 0,0.027 0,0 0,0.013 0,0.027 0,0.068 0.054,-0.081 0.068,-0.081 0,-0.014 -0.109,0.136 -0.177,0.189l-0.081 0.095c-0.108,0.095 0.109,-0.081 0.068,-0.067l-0.095 0.067c-0.095,0.068 0.203,-0.067 0.054,0 -0.162,0.068 -0.189,0 -0.271,0.068 -0.081,0.054 0.204,0 0.109,0l-0.61 0c0,0 0.19,0.04 0.122,0 -0.054,-0.027 -0.108,-0.041 -0.162,-0.041 -0.054,-0.013 0.162,0.082 0.122,0.041 -0.013,-0.014 -0.041,-0.027 -0.068,-0.041 -0.067,0 0.095,0.068 0.095,0.082l-0.054 -0.055 -0.082 -0.081c0.054,0.04 0.122,0.176 0.054,0.068l-0.067 -0.136c-0.054,-0.109 0.067,0.203 0.04,0.081 -0.013,-0.04 -0.027,-0.067 -0.04,-0.108 -0.013,-0.068 -0.027,-0.136 -0.041,-0.204 -0.04,-0.189 0,0.244 0,0.068 0,-0.041 0,-0.068 0,-0.095 0,-0.04 0,-0.067 0,-0.095 -0.027,-0.176 -0.04,-0.365 -0.04,-0.542l0 -0.067c0,-0.109 -0.041,0.23 0,0.109 0.027,-0.068 0.054,-0.136 0.068,-0.217 0.081,-0.271 0.176,-0.542 0.257,-0.8l0.041 -0.109c0,0 -0.068,0.136 0,0l0.081 -0.149c0.082,-0.148 -0.094,0.082 0,0 0.095,-0.081 0.082,-0.067 0.109,-0.094 -0.055,0.081 -0.122,0.067 -0.055,0 0,0 0.014,0 0.028,0 0.013,0 0.027,0 0.04,0l0.041 0c0.067,-0.054 -0.15,0.04 -0.041,0l0.298 -0.068c0.054,0 -0.067,0 -0.081,0l0.095 0c0.094,-0.013 0.189,-0.027 0.298,-0.04l0.352 -0.068c0.231,-0.067 0.393,-0.271 0.393,-0.501 -0.014,-0.244 -0.162,-0.447 -0.393,-0.515l0 -0.04 0 0.001z"/>
    <path class="fil4" d="M171.052 94.065c-0.84,0.338 -1.734,0.514 -2.643,0.514 -0.569,0 -1.138,-0.067 -1.694,-0.203 -0.582,-0.095 -1.138,-0.258 -1.68,-0.502 -0.556,-0.257 -0.596,-0.596 -0.244,-1.165 0.42,-0.623 0.786,-1.274 1.071,-1.965 0.298,-0.786 0.501,-1.612 0.623,-2.439 0.177,-0.935 0.258,-1.897 0.258,-2.845 0,-0.827 -0.068,-1.667 -0.203,-2.48 -0.136,-0.691 -1.112,-0.474 -1.138,0.149 -0.041,0.772 0.054,1.545 0.054,2.303 0,0.068 0,0.136 0,0.204 0,0.691 -0.041,1.396 -0.122,2.073 -0.109,1.477 -0.583,2.913 -1.382,4.16 -0.637,0.934 -0.827,2.222 0.338,2.818 0.976,0.434 2.019,0.664 3.09,0.691 0.312,0.04 0.61,0.067 0.922,0.067 1.097,0 2.181,-0.257 3.143,-0.758 0.109,-0.068 0.177,-0.177 0.177,-0.312 0,-0.067 -0.014,-0.136 -0.055,-0.203 -0.068,-0.109 -0.19,-0.162 -0.311,-0.162 -0.068,0 -0.122,0.013 -0.176,0.04l-0.028 0.013 0 0.002z"/>
    <path class="fil4" d="M178.193 99.078c-1.477,2.371 -4.282,3.063 -6.87,3.347 -1.03,0.095 -2.06,0.136 -3.09,0.136 -2.06,0 -4.119,-0.19 -6.152,-0.569 -0.04,-0.014 -0.095,-0.014 -0.135,-0.014 -0.312,0 -0.556,0.244 -0.556,0.542 0,0.244 0.162,0.461 0.406,0.529 1.844,0.46 3.74,0.691 5.651,0.691 1.49,0 2.981,-0.149 4.458,-0.42 2.683,-0.447 5.433,-1.396 6.842,-3.903 0.028,-0.054 0.041,-0.108 0.041,-0.162 0,-0.122 -0.068,-0.231 -0.163,-0.285 -0.054,-0.027 -0.108,-0.04 -0.162,-0.04 -0.109,0 -0.217,0.054 -0.271,0.148l0 0 0.001 0z"/>
    <path class="fil4" d="M190.212 90.717c-0.813,4.648 -1.68,9.228 -3.645,13.564 -0.935,2.195 -2.209,4.241 -3.781,6.03 -1.612,1.68 -3.563,2.995 -5.718,3.862 -2.073,0.854 -4.282,1.341 -6.532,1.423 -0.623,0.04 -1.26,0.067 -1.883,0.067 -2.168,0 -4.336,-0.298 -6.423,-0.867 -2.493,-0.609 -4.81,-1.802 -6.775,-3.455 -3.943,-3.144 -6.775,-7.466 -8.062,-12.331 -0.935,-3.076 -1.586,-6.233 -1.938,-9.417 -0.109,-0.8 -1.504,-0.61 -1.423,0.203 0.474,5.759 2.141,11.369 4.892,16.437 1.178,1.897 2.642,3.631 4.322,5.108 1.816,1.843 4.011,3.266 6.423,4.187 2.696,1.057 5.57,1.612 8.455,1.64 0.109,0 0.231,0 0.339,0 2.52,0 5.054,-0.353 7.48,-1.057 4.729,-1.369 8.645,-4.729 10.732,-9.201 1.328,-2.574 2.371,-5.325 3.09,-8.143 0.745,-2.589 1.165,-5.258 1.287,-7.941 0,-0.447 -0.745,-0.583 -0.84,-0.109l0 0z"/>
    <path class="fil4" d="M151.011 67.181c-0.922,2.818 -1.925,5.813 -3.889,8.089 -1.857,2.073 -4.526,3.266 -7.317,3.266 -0.434,0 -0.868,-0.027 -1.288,-0.082 -0.65,-0.067 -0.704,1.017 0,1.017 0.19,0 0.38,0 0.583,0 1.653,0 3.307,-0.299 4.852,-0.867 1.395,-0.597 2.655,-1.518 3.645,-2.67 2.073,-2.425 3.116,-5.542 4.037,-8.577 0.122,-0.393 -0.487,-0.556 -0.623,-0.176l0 0 0 0z"/>
    <path class="fil4" d="M167.353 60.717c-3.388,-3.618 -9.621,-4.648 -13.673,-1.491 -5.203,4.093 -4.526,11.369 -7.1,16.884 -0.597,1.464 -1.572,2.751 -2.832,3.713 -0.949,0.61 -2.06,0.935 -3.185,0.935 -0.556,0 -1.125,-0.082 -1.666,-0.244 -0.38,0 -0.692,0.312 -0.692,0.691 0,0.244 0.136,0.474 0.339,0.596 0.664,0.203 1.355,0.312 2.06,0.312 2.236,0 4.336,-1.084 5.637,-2.9 1.748,-2.303 2.601,-5.203 3.252,-7.968 0.691,-3.021 1.165,-6.084 2.872,-8.74 1.477,-2.479 4.16,-3.997 7.033,-3.997 0.068,0 0.136,0.013 0.19,0.013 2.615,0.082 5.095,1.165 6.924,3.009 0.515,0.542 1.314,-0.271 0.813,-0.8l0.027 -0.013 0.001 0z"/>
    <path class="fil4" d="M197.963 90.352c-3.239,-2.304 -4.5,-5.935 -5.231,-9.702 -0.813,-4.16 -1.314,-8.32 -2.48,-12.371 -0.934,-3.225 -2.141,-6.586 -4.39,-9.134 -1.938,-2.154 -4.702,-3.374 -7.588,-3.374 -0.054,0 -0.109,0 -0.149,0 -0.122,0 -0.244,0 -0.366,0 -1.87,0 -3.726,0.434 -5.406,1.275 -1.586,0.867 -3.09,1.897 -4.485,3.035 -0.583,0.434 0,1.436 0.583,0.989 2.655,-2.005 5.244,-3.997 8.726,-4.16 3.225,-0.135 6.098,0.786 8.171,3.307 2.195,2.655 3.306,6.152 4.16,9.431 1.043,3.875 1.504,7.859 2.33,11.775 0.813,3.916 2.291,7.425 5.61,9.756 0.502,0.366 1.003,-0.488 0.488,-0.84l0.027 0.013 0 0z"/>
    <path class="fil4" d="M187.515 75.975c-0.447,-0.746 -1.097,-1.355 -1.87,-1.762 -0.894,-0.542 -1.856,-0.948 -2.859,-1.247 -0.922,-0.311 -1.884,-0.474 -2.859,-0.474 -1.166,0 -2.318,0.231 -3.374,0.678 -1.071,0.529 -0.136,2.141 0.921,1.599 0.84,-0.339 1.735,-0.502 2.642,-0.502 0.773,0 1.545,0.122 2.277,0.366 0.813,0.217 1.613,0.542 2.358,0.949 0.338,0.189 0.664,0.393 0.975,0.609 0.258,0.177 0.461,0.407 0.692,0.61 0.135,0.122 0.297,0.189 0.474,0.189 0.189,0 0.352,-0.067 0.488,-0.189 0.108,-0.136 0.176,-0.298 0.176,-0.475 0,-0.108 -0.028,-0.216 -0.082,-0.325l0.04 -0.027 0.001 0.001z"/>
    <path class="fil4" d="M150.672 78.766c1.951,-3.658 6.192,-5.122 10.162,-4.715 1.22,0.122 1.274,-1.978 0,-1.938 -0.121,0 -0.243,-0.013 -0.365,-0.013 -2.345,0 -4.661,0.555 -6.748,1.612 -1.843,1.016 -3.266,2.669 -3.998,4.648 -0.013,0.054 -0.013,0.095 -0.013,0.149 0,0.285 0.23,0.515 0.515,0.515 0.189,0 0.352,-0.095 0.447,-0.258l0 0z"/>
    <path class="fil4" d="M139.805 81.395c-0.542,1.883 -0.813,3.834 -0.813,5.799 0,0.962 0.067,1.938 0.203,2.9 0.081,1.423 0.705,2.751 1.762,3.713 0.636,0.487 1.436,0.758 2.263,0.758 0.785,0 1.558,-0.243 2.195,-0.718 0.691,-0.46 0.285,-1.721 -0.61,-1.423 -0.569,0.298 -1.205,0.515 -1.842,0.637 -0.584,0 -1.139,-0.258 -1.532,-0.691 -0.758,-1.03 -1.178,-2.29 -1.178,-3.564 -0.136,-0.975 -0.204,-1.965 -0.204,-2.94 0,-1.437 0.15,-2.86 0.421,-4.255 0,-0.028 0,-0.054 0,-0.068 0,-0.162 -0.109,-0.298 -0.258,-0.338 -0.027,-0.014 -0.055,-0.014 -0.081,-0.014 -0.15,0 -0.271,0.095 -0.326,0.244l0 -0.041 0 0.001z"/>
    <path class="fil4" d="M195.307 88.631c-0.19,0.989 -0.461,1.978 -0.827,2.927 -0.082,0.203 -0.176,0.406 -0.285,0.609 -0.068,0.095 -0.122,0.19 -0.203,0.298l-0.041 0.054 0 0c-0.04,0.041 -0.081,0.095 -0.122,0.123 -0.027,0.04 -0.067,0.067 -0.095,0.108 -0.081,0.068 0.082,-0.04 0,0 -0.081,0.027 -0.325,0.176 -0.487,0.258l-0.217 0.108 -0.095 0 -0.189 0.055c-0.04,0 -0.217,0.04 -0.149,0 0.067,-0.041 -0.041,0 -0.054,0l-0.136 0 -0.203 0c0.149,0 0,0 -0.082,0 -0.068,-0.014 -0.149,-0.028 -0.216,-0.055 -0.082,-0.013 -0.15,-0.027 -0.231,-0.054 -0.082,0 0,0 0,0l-0.176 -0.081 -0.271 -0.136c-0.176,-0.082 -0.366,-0.149 -0.556,-0.163 -0.434,0.014 -0.786,0.353 -0.786,0.786 0,0.203 0.082,0.407 0.231,0.556 0.352,0.285 0.772,0.474 1.233,0.556 0.243,0.081 0.514,0.122 0.772,0.122 0.095,0 0.189,-0.014 0.271,-0.014 0.786,-0.122 1.504,-0.46 2.087,-0.989 0.393,-0.379 0.691,-0.854 0.854,-1.382 0.216,-0.569 0.365,-1.165 0.447,-1.761 0.095,-0.61 0.162,-1.233 0.162,-1.857 0,-0.379 -0.596,-0.474 -0.691,-0.094l0.055 0.027 0 -0.001z"/>
    <path class="fil5 str0" d="M180.767 125.23c-0.8,3.049 -5.786,9.635 -11.572,17.521 -2.818,-6.206 -6.559,-11.979 -11.071,-17.074 -0.704,0.19 0.244,-5.176 -0.285,-5.027 -1.382,0.38 -3.902,6.192 -5.379,6.667 -7.06,2.29 -14.309,6.057 -17.358,8.997 -3.334,3.225 -6.341,18.754 -12.873,48.266 -1.328,2.44 10.054,14.594 12.995,10.014 3.997,-6.233 2.778,-22.927 2.778,-22.927 0,0 7.331,20.583 7.818,21.721 15.542,0.055 31.613,0.068 47.02,-0.054 0.23,-7.141 4.661,-20.353 6.788,-23.971 3.781,10.19 4.485,9.242 6.139,10.041 0.785,0.379 6.179,-0.867 6.911,-1.816 6.246,-8.103 5.379,-65.177 3.848,-64.784 0.285,0.691 -5.65,-0.136 -9.322,-2.181 -5.177,-2.927 5.244,79.54 -6.965,58.348 7.629,16.179 13.388,-38.781 -5.894,-41.343 -1.857,-0.881 -3.822,-1.463 -5.854,-1.748 -7.9,-8.848 -6.924,-3.726 -7.724,-0.65l0 0z"/>
    <path class="fil4" d="M157.041 115.989c0.799,2.006 0.69,4.323 0.69,6.464 0,0.949 -0.054,1.938 0,2.886 0.082,0.8 0.488,1.545 1.125,2.033 1.355,1.369 2.561,2.899 3.578,4.526 1.097,1.572 2.113,3.211 3.021,4.891 1.057,2.128 1.613,4.634 3.307,6.383 0.528,0.555 1.382,-0.285 0.84,-0.854 -0.84,-1.071 -1.504,-2.29 -1.938,-3.604 -0.461,-1.193 -1.016,-2.372 -1.653,-3.496 -1.247,-2.142 -2.629,-4.242 -4.106,-6.234 -0.61,-0.867 -1.314,-1.68 -2.073,-2.412 -0.407,-0.285 -0.718,-0.691 -0.854,-1.165 -0.122,-0.61 -0.217,-1.22 -0.257,-1.843 -0.217,-2.561 -0.149,-5.312 -1.112,-7.737 -0.149,-0.366 -0.745,-0.204 -0.582,0.162l0.013 0 0.001 0z"/>
    <path class="fil4" d="M193.193 90.338c-0.027,0 -0.055,0 -0.095,0 -0.231,0 -0.461,0.082 -0.651,0.231 -0.257,0.162 -0.447,0.406 -0.555,0.691 -0.055,0.162 -0.082,0.325 -0.082,0.488 0,0.434 0.176,0.853 0.488,1.152 0.258,0.243 0.596,0.379 0.962,0.379 0,0 0,0 0.013,0 0.353,-0.027 0.691,-0.176 0.949,-0.42 0.352,-0.298 0.556,-0.732 0.556,-1.179 0,-0.203 -0.041,-0.406 -0.123,-0.596 -0.148,-0.298 -0.419,-0.528 -0.745,-0.637 -0.094,-0.027 -0.203,-0.054 -0.311,-0.054 -0.027,0 -0.068,0 -0.095,0.014 -0.244,0.013 -0.46,0.108 -0.637,0.271 -0.108,0.108 -0.162,0.243 -0.162,0.392 0,0.136 0.04,0.258 0.122,0.353 0.108,0.149 0.271,0.23 0.447,0.23 0.109,0 0.203,-0.027 0.298,-0.081l0.041 0c0.04,0 0,0 -0.082,0l0.095 0 -0.149 0 0.162 0 -0.149 0 0.095 0c0.122,0.04 -0.109,-0.055 0,0l0.054 0.04c0.082,0.041 -0.108,-0.108 0,0 0.122,0.109 0.068,0.122 0,0 0.014,0.028 0.027,0.055 0.041,0.068 0.054,0.068 -0.054,-0.149 0,0 0.013,0.027 0.013,0.04 0.013,0.068 0,0.013 0,0.04 -0.013,0.067l0 -0.162c0.013,0.04 0.013,0.081 0.013,0.108 0,0.041 0,0.082 -0.013,0.109l0 -0.149c0,0.027 0,0.067 0,0.122l0 0.054c0,0.054 0,0 0,-0.04 0,0 0,0.067 -0.054,0.108 -0.028,0.028 -0.041,0.068 -0.068,0.095l0 0 -0.041 0.041c-0.027,0.04 -0.054,0.067 -0.081,0.094l0 0 -0.068 0.041c-0.04,0.013 -0.081,0.04 -0.108,0.067l0.04 0 -0.054 0 -0.068 0c0.095,0 0.109,0 0.055,0l0 0 -0.068 0c-0.054,0 -0.041,0 0.04,0 -0.04,-0.027 -0.081,-0.054 -0.121,-0.067l0 0 -0.055 -0.041 -0.081 -0.094c-0.068,-0.068 0.081,0.121 0,0l-0.055 -0.082 0 -0.054c0.041,0.081 0.041,0.094 0,0.04 0,-0.027 0,-0.04 0,-0.054 0,-0.027 0,-0.04 0,-0.054 0,-0.014 0,-0.028 0,-0.041 0,0 0,-0.013 0,-0.027 0,-0.054 0,-0.041 0,0.054 0,-0.027 0,-0.04 0,-0.067 0,-0.014 0,-0.041 0,-0.055 0,-0.027 0,-0.04 0,-0.067 0,-0.014 0,-0.041 0,0.054 0,-0.027 0,-0.04 0,-0.054 0,-0.027 0,-0.041 0,-0.068 0,-0.04 0.082,-0.136 0,0 0,-0.067 0.068,-0.136 0.109,-0.203l0.027 -0.054c0,-0.041 0,0 0,0 0,0 0.068,-0.068 0.095,-0.082l0.04 -0.041 0 0c0,0 0.082,-0.067 0.082,-0.067 0.054,-0.027 0.109,-0.067 0.162,-0.109 -0.095,0.068 0,0 0,0 0.109,-0.067 0.19,-0.189 0.19,-0.325 0,-0.027 -0.014,-0.067 -0.014,-0.095 -0.054,-0.149 -0.189,-0.257 -0.352,-0.271l-0.04 -0.04 0.001 -0.001z"/>
    <path class="fil4" d="M193.058 92.71c-0.123,0.84 -0.19,1.68 -0.19,2.52 0,0.244 0,0.487 0.013,0.718 0,1.097 0,2.168 0,3.252 0,0.23 0.19,0.42 0.42,0.42 0.231,0 0.407,-0.19 0.407,-0.42 0,-1.057 0,-2.127 0,-3.198 0,-0.542 0,-1.084 0.068,-1.626 0.013,-0.257 0.027,-0.514 0.027,-0.785 0,-0.258 -0.014,-0.515 -0.027,-0.773 -0.055,-0.379 -0.637,-0.542 -0.746,-0.094l0.028 -0.014 0 0z"/>
    <path class="fil4" d="M142.42 90.663c-0.027,-0.013 -0.054,-0.013 -0.081,-0.013 -0.244,0 -0.475,0.081 -0.664,0.244 -0.244,0.162 -0.434,0.407 -0.556,0.691 -0.041,0.149 -0.068,0.325 -0.068,0.487 0,0.434 0.177,0.841 0.475,1.152 0.243,0.244 0.583,0.38 0.921,0.38 0.027,0 0.04,0 0.054,0 0.353,-0.027 0.691,-0.176 0.962,-0.42 0.353,-0.298 0.542,-0.732 0.542,-1.193 0,-0.203 -0.027,-0.406 -0.108,-0.596 -0.163,-0.298 -0.434,-0.515 -0.746,-0.623 -0.108,-0.041 -0.216,-0.055 -0.338,-0.055 -0.027,0 -0.055,0 -0.081,0 -0.231,0.028 -0.461,0.122 -0.637,0.271 -0.095,0.109 -0.163,0.258 -0.163,0.407 0,0 0,0 0,0 0,0 0,0.014 0,0.014 0,0.121 0.041,0.243 0.122,0.338 0.109,0.136 0.285,0.217 0.461,0.217 0.095,0 0.203,-0.027 0.285,-0.068l0.04 0c0.054,0 0,0 -0.068,0l0.095 0 -0.162 0c0.027,-0.013 0.054,-0.013 0.081,-0.013 0.027,0 0.054,0 0.082,0.013l-0.149 0c0.013,-0.013 0.027,-0.013 0.04,-0.013 0.027,0 0.041,0 0.054,0.013 0.136,0 -0.108,-0.067 0,0l0.068 0c0.082,0.041 -0.122,-0.122 0,0 0.109,0.109 0.068,0.122 0,0 0,0 0,0.013 0,0.027 0,0.014 0,0.014 0,0.027 0.04,0.082 -0.054,-0.162 0,0 0,0.027 0,0.041 0,0.068 0,0.013 0,0.027 0,0.054l0 -0.149c0,0.027 0,0.068 0,0.109 0,0.027 0,0.068 0,0.108l0 -0.162 0 0.122 0 0.068c0,0.054 0,0.04 0,-0.055l-0.054 0.109c-0.027,0.04 -0.055,0.068 -0.082,0.108 0.068,-0.067 0.068,-0.081 0,-0.04l-0.04 0.054 -0.095 0.095c-0.041,0.027 -0.027,0 0.04,0l-0.054 0c0,0 -0.095,0.04 -0.109,0.054 0.082,0 0.095,0 0.041,0l-0.067 0 -0.068 0c0.108,0 0.122,0 0.054,0l-0.054 0c-0.068,0 -0.04,0 0.04,0l-0.054 0c-0.068,0 -0.054,0 0.027,0 -0.027,-0.027 -0.067,-0.054 -0.108,-0.067 -0.055,0 0,0 0,0l-0.041 -0.041 -0.095 -0.081c-0.067,-0.082 0.082,0.108 0,0 -0.027,-0.027 -0.04,-0.054 -0.054,-0.095 0,-0.013 0,-0.013 0,-0.027 0,-0.013 0,-0.013 0,-0.027l0 0.054 -0.04 -0.122c0,-0.013 0,-0.027 0,-0.027 0,-0.013 0,-0.027 0,-0.041 0,-0.054 0,0 0,0.055 0,-0.013 0,-0.041 0,-0.055 0,-0.026 0,-0.04 0,-0.067l0 -0.054c0,-0.055 0,-0.041 0,0.04 0,0 0,-0.068 0,-0.108 0,-0.055 0.067,-0.15 0,0 0.04,-0.068 0.067,-0.15 0.108,-0.217l0 -0.041 0 0c0.027,-0.027 0.054,-0.054 0.082,-0.094l0.04 0c0.041,0 0,0 0,0l0.095 -0.055 0.162 -0.108c-0.094,0.054 0,0 0,0 0.122,-0.068 0.19,-0.19 0.19,-0.326 0,-0.027 0,-0.067 -0.013,-0.094 -0.055,-0.149 -0.204,-0.258 -0.366,-0.271l0.054 0.04 0 -0.001z"/>
    <path class="fil4" d="M142.271 93.699c-0.095,0.46 -0.149,0.948 -0.149,1.436 0,0 0,0 0,0 0,0.487 0,0.976 -0.04,1.463 0,0.976 0,1.951 0,2.927 0.013,0.217 0.189,0.407 0.419,0.407 0,0 0,0 0.014,0 0.217,-0.013 0.393,-0.19 0.393,-0.407 0,-0.962 0,-1.91 0,-2.872 0,-0.461 0,-0.935 0.054,-1.382 0.013,-0.244 0.027,-0.488 0.027,-0.732 0,-0.244 -0.013,-0.488 -0.027,-0.732 -0.054,-0.38 -0.623,-0.542 -0.732,-0.095l0.04 -0.013 0.001 0z"/>
    <path class="fil4" d="M152.366 126.884c-4.025,1.301 -7.914,3.021 -11.586,5.122 -1.964,1.138 -4.322,2.425 -5.677,4.309 -1.003,1.558 -1.816,3.238 -2.385,5 -0.935,2.547 -1.694,5.163 -2.398,7.778 -1.694,6.233 -3.09,12.616 -4.512,18.944 -0.691,3.008 -1.383,6.016 -2.073,8.997 -0.475,2.398 -1.138,4.783 -1.924,7.1 -0.258,0.529 -0.556,1.03 -0.895,1.491l-2.141 3.334c-1.043,1.612 -2.073,3.224 -3.103,4.851 -0.407,0.623 0.596,1.206 0.989,0.583 1.965,-3.076 3.93,-6.166 5.894,-9.242 0.312,-0.556 0.556,-1.165 0.692,-1.802 0.338,-1.152 0.65,-2.317 0.948,-3.455 0.691,-2.778 1.342,-5.543 1.978,-8.348 1.382,-6.301 2.765,-12.615 4.296,-18.889 0.691,-2.764 1.423,-5.596 2.29,-8.306 0.61,-2.114 1.396,-4.174 2.358,-6.139 1.07,-2.073 2.818,-3.306 4.756,-4.539 3.983,-2.48 8.293,-4.472 12.764,-5.894 0.542,-0.176 0.312,-1.044 -0.243,-0.854l-0.028 -0.04 0 -0.001z"/>
    <path class="fil4" d="M140.13 149.621c1.287,7.155 -3.821,13.672 -2.995,20.827 0.353,2.385 0.949,4.743 1.749,7.033 0.894,2.765 1.91,5.542 2.954,8.306 0.934,2.48 1.924,4.946 2.832,7.439 0.366,0.99 1.978,0.556 1.599,-0.447 -1.816,-4.905 -3.821,-9.702 -5.542,-14.648 -0.854,-2.371 -1.572,-4.824 -2.074,-7.29 -0.623,-3.225 0.136,-6.504 0.936,-9.634 0.989,-3.862 2.127,-7.792 1.3,-11.803 -0.094,-0.487 -0.826,-0.284 -0.732,0.204l-0.026 0.013 -0.001 0z"/>
    <path class="fil4" d="M130.956 202.711c0.908,-1.043 1.775,-2.141 2.561,-3.252 1.328,-1.992 2.385,-4.173 3.13,-6.45 0.935,-2.927 1.599,-5.948 1.979,-8.997 0.46,-2.995 0.758,-5.989 0.881,-9.011 0.04,-1.057 -1.626,-1.057 -1.667,0 -0.095,2.845 -0.353,5.677 -0.691,8.496 -0.339,3.049 -0.895,6.098 -1.653,9.065 -0.596,2.291 -1.531,4.499 -2.765,6.532 -0.691,1.111 -1.531,2.127 -2.33,3.17 -0.312,0.312 0.311,0.773 0.555,0.448l0 -0.001z"/>
    <path class="fil4" d="M199.412 193.24c-7.29,-0.271 -14.579,-0.163 -21.883,-0.109 -10.488,0.081 -20.99,0.054 -31.478,0.149 -3.09,0 -6.179,0.109 -9.268,0.109 -0.339,-0.014 -0.61,0.271 -0.61,0.596 0,0.339 0.271,0.609 0.61,0.609 7.384,0 14.756,0 22.168,-0.067 10.475,-0.109 20.949,-0.177 31.423,-0.325 3.022,-0.041 6.044,-0.136 9.066,-0.312 0.176,0 0.325,-0.149 0.325,-0.325 0,0 0,-0.014 0,-0.014 0,-0.176 -0.149,-0.311 -0.325,-0.311l-0.028 0 0 0z"/>
    <path class="fil4" d="M196.323 147.101c-4.607,4.973 -0.231,12.276 1.26,17.561 1.829,6.517 -0.867,12.669 -3.13,18.699 -1.206,3.212 -2.304,6.544 -2.331,10.027 0.041,0.38 0.352,0.664 0.732,0.664 0.393,0 0.705,-0.285 0.745,-0.678 0.055,-6.097 3.388,-11.64 5.027,-17.398 0.664,-2.142 1.003,-4.364 1.003,-6.613 0,-0.8 -0.04,-1.599 -0.122,-2.385 -0.447,-3.279 -1.951,-6.328 -3.048,-9.404 -1.166,-3.265 -1.735,-7.033 0.447,-10.013 0.258,-0.339 -0.298,-0.759 -0.583,-0.448l0 -0.013 0 0.001z"/>
    <path class="fil4" d="M174.656 137.615c2.493,0.217 4.851,1.545 6.924,2.914 1.816,1.219 3.808,2.764 4.851,4.742 0.475,0.895 1.87,0.082 1.382,-0.799 -1.26,-2.141 -3.455,-3.781 -5.542,-5.082 -2.249,-1.544 -4.851,-2.493 -7.561,-2.764 -0.691,-0.027 -0.677,0.935 -0.054,0.989z"/>
    <path class="fil4" d="M188.626 144.512c1.396,-3.739 0.136,-7.832 -0.162,-11.653 -0.041,-0.379 -0.068,-0.758 -0.068,-1.138 0,-0.379 0.027,-0.758 0.068,-1.138 0.271,-0.786 0.636,-1.545 1.07,-2.249 0.204,-0.339 0.298,-0.719 0.298,-1.111 0,-0.691 -0.325,-1.355 -0.881,-1.775 -1.951,-1.558 -3.902,-3.74 -6.233,-5.027 -0.827,-0.447 -1.572,0.854 -0.732,1.26 1.396,0.759 2.71,1.694 3.876,2.764 0.542,0.461 1.056,0.908 1.599,1.355 0.338,0.231 0.664,0.488 0.976,0.773 0.487,0.528 -0.055,1.314 -0.366,1.829 -0.488,0.691 -0.8,1.504 -0.894,2.358 -0.204,2.073 0.311,4.187 0.609,6.233 0.352,2.385 0.705,4.959 -0.04,7.317 -0.176,0.542 0.691,0.772 0.867,0.23l0.013 -0.027 0 -0.001z"/>
    <path class="fil4" d="M157.515 120.298c-1.287,1.219 -2.412,2.588 -3.361,4.092 -0.556,0.745 -1.165,1.423 -1.775,2.141 -0.623,0.569 -0.989,1.382 -1.003,2.236 0.353,3.401 -1.382,6.694 -1.883,10.027 -0.122,0.596 -0.19,1.206 -0.19,1.816 0,1.355 0.325,2.683 0.949,3.889 0.122,0.203 0.338,0.325 0.583,0.325 0.122,0 0.257,-0.027 0.365,-0.095 0.095,-0.054 0.177,-0.135 0.231,-0.23 1.301,-2.574 3.727,-4.553 6.152,-6.003 1.816,-1.084 4.445,-2.493 6.613,-1.68 0.745,0.298 1.178,-0.867 0.528,-1.26 -2.236,-1.382 -5.623,0.352 -7.615,1.49 -2.737,1.586 -5.461,3.876 -6.884,6.762l1.179 0c-1.152,-1.883 -0.786,-4.268 -0.353,-6.314 0.448,-2.033 1.206,-4.147 1.545,-6.328 0.041,-0.407 0.055,-0.813 0.055,-1.22 0,-0.406 -0.014,-0.813 -0.055,-1.219 -0.04,-1.044 1.233,-1.993 1.829,-2.778 1.22,-1.626 2.196,-3.591 3.754,-4.946 0.488,-0.42 -0.217,-1.111 -0.691,-0.691l0.027 -0.013 0 -0.001z"/>
    <path class="fil4" d="M182.488 115.596c-0.758,2.222 -0.84,4.607 -1.178,6.925 -0.122,1.138 -0.407,2.262 -0.813,3.346 -0.339,0.718 -0.746,1.423 -1.193,2.073 -1.301,2.114 -2.751,4.133 -4.35,6.017 -0.826,0.949 -1.599,1.951 -2.303,2.994 -1.274,1.87 -2.575,3.7 -3.957,5.502 -0.447,0.582 0.556,1.165 1.003,0.582 2.019,-2.669 3.74,-5.609 5.935,-8.143 1.599,-1.857 3.035,-3.862 4.282,-5.976 1.003,-1.531 1.68,-3.252 2.019,-5.054 0.42,-2.696 0.311,-5.501 1.125,-8.117 0.108,-0.365 -0.447,-0.501 -0.569,-0.162l0 0.013 -0.001 0z"/>
    <path class="fil2" d="M191.512 41.611c3.849,-1.138 7.67,-1.694 11.085,0.894 3.333,2.683 5.704,6.396 6.762,10.543 2.303,8.74 -2.006,17.358 -1.749,26.166 0.136,4.051 1.206,8.102 3.997,11.151 0.394,0.421 1.031,-0.216 0.637,-0.636 -6.138,-6.694 -3.265,-16.653 -1.992,-24.554 0.691,-4.484 0.949,-9.051 -0.515,-13.414 -1.219,-3.821 -3.55,-7.209 -6.68,-9.702 -3.523,-2.67 -7.724,-2.344 -11.694,-0.922 -0.325,0.122 -0.203,0.61 0.136,0.515l0.013 -0.041 0 0z"/>
    <path class="fil4" d="M173.789 48.874c-2.833,2.127 -5.041,4.987 -6.396,8.266 -0.231,0.556 0.691,0.785 0.881,0.243 1.287,-3.103 3.347,-5.826 5.975,-7.913 0.339,-0.271 -0.108,-0.867 -0.46,-0.596l0 0 0 0z"/>
    <path class="fil4" d="M167.501 146.437c-0.921,4.498 -1.409,9.092 -1.409,13.672 0,0.447 0.014,0.922 0.014,1.355 0,5.542 0.366,11.043 0.908,16.545 0.284,2.723 0.609,5.433 0.989,8.13 0.108,0.772 1.476,0.596 1.381,-0.19 -1.341,-10.285 -2.33,-20.732 -1.774,-31.098 0.108,-2.724 0.433,-5.447 0.948,-8.117 0.149,-0.691 -0.907,-0.989 -1.07,-0.298l0.013 0 0 0.001z"/>
    <path class="fil3" d="M217.19 74.132c-3.861,6.762 -2.574,11.898 3.862,12.222 -1.938,-4.187 -3.862,-12.222 -3.862,-12.222z"/>
    <path class="fil3" d="M219.955 134.255c-3.293,-2.561 0.61,12.493 6.382,15.732 -2.29,-6.287 -2.087,-12.399 -6.382,-15.732z"/>
    <path class="fil2" d="M224.372 92.791c0.163,0 0.339,-0.013 0.502,-0.013 1.382,0 2.75,0.23 4.065,0.664 1.531,0.623 2.656,1.951 3.048,3.55 0.895,3.387 -1.152,6.423 -2.236,9.498 -1.232,3.456 -1.707,7.928 0.068,11.315 0.502,0.867 1.138,1.667 1.87,2.331 1.071,0.989 2.345,1.721 3.74,2.168 0.366,0.122 0.515,-0.434 0.163,-0.583 -2.318,-0.759 -4.242,-2.412 -5.353,-4.594 -0.596,-1.409 -0.907,-2.913 -0.907,-4.444 0,-0.353 0.013,-0.705 0.054,-1.057 0.231,-2.723 0.962,-5.393 2.141,-7.859 1.138,-2.561 1.87,-5.488 0.569,-8.13 -1.464,-2.995 -4.756,-3.32 -7.724,-3.347 -0.149,0 -0.257,0.122 -0.257,0.258 0,0 0,0 0,0 0,0.135 0.121,0.244 0.257,0.244 0,0 0,0 0,0l0 0 0 -0.001z"/>
    <path class="fil2" d="M227.814 95.867c-1.396,-1.003 -3.063,-1.558 -4.783,-1.613 -0.393,0 -0.393,0.61 0,0.624 1.612,0.068 3.17,0.569 4.526,1.436 0.285,0.176 0.514,-0.258 0.257,-0.447l0 0 0 0z"/>
    <path class="fil2 str1" d="M207.204 110.623c0,0 -0.325,-0.447 -0.244,-2.71 0.095,-2.276 -0.108,-8.306 0.258,-11.531 0.366,-3.225 1.924,-7.819 2.019,-8.13 0.095,-0.325 0.054,-9.757 -0.217,-12.52 -0.284,-2.955 0.38,-5.719 2.182,-3.768 2.439,1.328 1.016,13.944 2.452,14.933 1.518,0.664 3.686,-6.111 4.635,-8.591 0.948,-2.48 2.859,-6.111 4.363,-4.987 1.517,0.881 -0.42,4.675 -1.735,7.047 -1.314,2.141 -2.75,6.002 -2.994,6.856 -0.244,0.84 -0.109,1.911 -0.109,1.911 0,0 1.464,-1.057 2.398,0.474 0.935,1.531 0.163,2.575 0.163,2.575 0,0 1.68,-1.004 2.005,1.381 0.339,2.399 -0.881,5.827 -1.897,8.524 -1.016,2.683 -1.585,4.241 -2.588,5.325 -1.003,1.084 -1.382,2.005 -1.409,3.265 -0.014,1.261 -0.204,2.304 -1.247,2.345 -1.044,0.04 -8.035,-2.399 -8.035,-2.399l0 0z"/>
    <path class="fil6 str2" d="M213.681 112.846c-2.371,-0.692 -6.477,-2.223 -6.477,-2.223 0,0 -0.325,-0.447 -0.244,-2.71l0 0 0 0c-0.081,2.263 0.244,2.71 0.244,2.71 0,0 4.106,1.531 6.477,2.223l0 0zm0 0c0.705,0.203 1.247,0.338 1.504,0.325 -0.258,0.013 -0.8,-0.122 -1.504,-0.325zm1.504 0.324c0,0 0,0 0,0 0.623,-0.027 0.949,-0.447 1.125,-1.043 -0.176,0.596 -0.502,1.016 -1.125,1.043 0,0 0,0 0,0zm1.301 -2.493c0.013,-0.393 0.054,-0.745 0.136,-1.084l0 0c-0.082,0.339 -0.122,0.691 -0.136,1.084zm-9.526 -2.818c0,0 0,0 0,0 0,0 0,0 0,0zm0 0c0.013,-0.163 0.013,-0.353 0.013,-0.542l0 0c0,0.189 0,0.379 -0.013,0.542z"/>
    <path class="fil7 str2" d="M213.681 112.846c-2.371,-0.692 -6.477,-2.223 -6.477,-2.223 0,0 -0.325,-0.447 -0.244,-2.71l0 0c0,-0.027 0,-0.04 0,-0.054 0,0 0,0 0,0 0,0 0,0 0,0 0.013,-0.162 0.013,-0.352 0.013,-0.542 1.098,0.569 2.25,1.016 3.429,1.369 2.046,0.596 4.187,0.867 6.219,0.907 -0.081,0.339 -0.122,0.691 -0.135,1.084l0 0c-0.014,0.515 -0.055,1.03 -0.177,1.45 -0.162,0.475 -0.027,0.407 -0.758,0.813 0,0 -0.177,0.055 -0.177,0.055 0,0 -0.257,0.013 -0.257,0.013 0.04,-0.013 -0.651,0.027 -1.436,-0.162 0,0 0,0 0,0l0 0z"/>
    <path class="fil8 str2" d="M213.396 104.322c0,0 0.285,-0.772 0.447,-1.707 0.15,-0.922 0.326,-2.358 0.041,-3.754 -0.285,-1.409 -1.287,-2.235 -1.287,-2.235 0,0 -0.475,0.447 -1.179,0.69 -0.407,0.15 -0.65,0.136 -0.786,0.095 -0.095,-0.027 -0.135,-0.067 -0.135,-0.067 0,0 0.149,-0.312 0.853,-0.556 0.705,-0.258 1.396,-1.003 1.708,-1.491 0.203,-0.325 0.013,-1.124 -0.082,-1.368 0.054,0.094 0.312,0.46 0.42,0.528 0.027,0 0.041,0.013 0.068,0.027 0.271,0.068 0.84,-0.094 1.856,-0.325 1.111,-0.257 2.805,-1.125 2.914,-1.992 0.067,-0.501 0,-0.867 -0.759,-1.084 -0.23,-0.067 -0.515,-0.122 -0.881,-0.162 -1.179,-0.122 -2.954,0.162 -4.499,0.514 -1.531,0.353 -3.333,3.388 -3.333,3.388 0,0 0.501,-1.342 1.26,-2.385 0.772,-1.043 2.222,-1.707 3.821,-1.87 0.854,-0.095 1.843,-0.149 2.71,-0.054 0.122,-0.244 0.339,-0.57 0.583,-0.867 0.366,-0.461 0.678,-0.515 0.678,-0.515 0,0 -0.624,0.975 -0.732,1.246 -0.041,0.068 -0.068,0.136 -0.109,0.204 0.136,0.027 0.258,0.054 0.366,0.081 0.42,0.122 0.745,0.298 0.962,0.569 0.718,0.895 0.474,1.342 -0.569,2.358 -0.678,0.651 -2.06,1.057 -2.954,1.26 -0.109,0.258 -0.231,0.732 -0.176,1.274 0.054,0.515 0.298,0.786 0.609,0.881 0.217,0.054 0.461,0.027 0.691,-0.081 0.352,-0.177 1.301,-0.962 1.301,-0.962 0,0 1.166,-1.626 1.599,-2.331 0.61,-0.976 1.572,-1.45 1.572,-1.45 0,0 -1.612,1.87 -2.371,3.293 -0.758,1.423 -1.992,2.777 -1.287,3.522 0.149,0.163 0.325,0.258 0.488,0.312 0.609,0.176 1.246,-0.258 1.639,-0.651 0.488,-0.501 1.111,-0.934 1.762,-1.856 0.65,-0.921 1.287,-0.732 1.287,-0.732 0,0 -0.772,0.38 -1.49,1.436 -0.732,1.044 -2.209,2.562 -3.171,2.44 -0.163,-0.028 -0.312,-0.055 -0.448,-0.095 -0.704,-0.204 -0.907,-0.637 -0.758,-1.247 0.162,-0.718 0.786,-1.911 0.786,-1.911 0,0 -1.138,1.003 -1.87,0.786 -0.055,-0.013 -0.122,-0.04 -0.177,-0.081 -0.704,-0.474 -0.718,-1.355 -0.636,-1.762 0.04,-0.216 0.108,-0.487 0.162,-0.691 -0.216,0.041 -0.609,0.068 -0.609,0.068 0,0 0.013,0.122 -0.055,0.393 -0.081,0.257 -0.677,0.813 -0.677,0.813 0,0 0.663,0.65 1.138,1.599 0.474,0.935 0.677,1.219 0.366,3.483 -0.312,2.262 -1.057,3.021 -1.057,3.021l0 0.001z"/>
    <path class="fil9 str2" d="M214.481 91.002c0,0 0.081,1.437 1.314,1.559 1.22,0.135 2.019,-1.342 2.019,-1.342 0,0 -0.691,-0.352 -1.734,-0.325 -0.989,0.013 -1.599,0.108 -1.599,0.108z"/>
    <path class="fil9 str2" d="M214.941 95.135c0,0 -0.678,1.233 0.014,1.734 0.65,0.461 1.558,-0.203 1.856,-0.569 0.298,-0.379 -0.041,-0.813 -0.61,-1.057 -0.583,-0.243 -1.26,-0.108 -1.26,-0.108z"/>
    <path class="fil9 str2" d="M217.312 97.411c0,0 0.651,-0.081 0.935,0.542 0.271,0.61 -0.109,1.165 -0.488,1.26 -0.447,0.109 -1.246,-0.189 -1.165,-0.881 0.095,-0.758 0.718,-0.921 0.718,-0.921l0 0z"/>
   </g>
  </g>
  <polygon class="fil10" points="79.668,202.82 314.563,202.82 314.563,36.679 79.668,36.679 "/>
  <polygon class="fil10" points="79.668,202.82 314.563,202.82 314.563,36.679 79.668,36.679 "/>
  <path class="fil4 str0" d="M269.59 201.411c-2.751,0 -5.163,-0.204 -7.846,-0.217 -6.098,-0.027 -12.195,-0.068 -18.293,-0.122 -8.781,-0.054 -17.548,-0.054 -26.328,-0.054 -10.583,0 -21.18,0 -31.762,0.04 -11.545,0 -23.09,0 -34.635,0 -11.653,0 -23.306,0 -34.959,0l-32.738 0 -27.941 0.082c-6.857,0 -13.713,0 -20.556,0 -3.578,0 -7.128,0.067 -10.705,0.122l-0.502 0c-0.054,0 -0.108,0.013 -0.162,0.013 -0.054,0 -0.109,-0.013 -0.162,-0.013 -0.57,0.094 -1.003,0.596 -1.003,1.192 0,0.583 0.433,1.084 1.016,1.179 0.487,0 -0.434,0 0.311,0l0.529 0 1.64 0c1.815,0 3.645,0.081 5.46,0.081l18.375 0c8.794,0 17.588,0 26.382,0 10.61,0 21.207,-0.027 31.803,-0.081l34.648 -0.136c11.653,0 23.32,-0.122 34.96,-0.136l32.697 -0.067c9.309,0 18.604,-0.055 27.886,-0.136 6.843,-0.068 13.686,-0.163 20.529,-0.244 3.686,-0.04 7.006,-0.176 10.597,-0.285l0.785 0c0.353,0 0.637,-0.284 0.637,-0.637 0,-0.013 0,-0.027 -0.013,-0.027 0,-0.352 -0.271,-0.623 -0.624,-0.636l-0.027 0.081 0.001 0.001z"/>
  <g id="_2190327685088">
   <path class="fil11" d="M92.92 196.329c-2.452,-0.434 -3.428,2.602 -1.802,4.472 1.626,1.883 1.843,1.138 4.336,1.124 39.337,0 77.386,0 107.929,0 1.423,0 1.355,-1.314 1.694,-2.696 0.325,-1.368 0.216,-1.504 -1.017,-2.181l-111.139 -0.719 -0.001 0zm0 0l0 0 0 0z"/>
  </g>
  <path class="fil4" d="M93.123 195.679c-3.333,-0.529 -4.43,3.334 -2.628,5.637 0.637,1.003 1.748,1.626 2.941,1.626 0.067,0 0.149,0 0.216,-0.013 2.209,-0.15 4.431,-0.109 6.64,-0.109 10.189,0 20.38,0 30.583,0 18.944,0 37.887,0 56.816,0l14.228 0c0.271,0.04 0.542,0.067 0.813,0.067 0.678,0 1.355,-0.135 1.979,-0.392 0.663,-0.515 1.07,-1.274 1.152,-2.115 0.23,-0.663 0.352,-1.381 0.352,-2.1 0,-0.148 -0.013,-0.311 -0.013,-0.474 -0.19,-0.786 -0.922,-1.206 -1.586,-1.585 -0.136,-0.068 -0.298,-0.122 -0.46,-0.122 -0.502,0 -0.908,0.42 -0.908,0.921 0,0.326 0.162,0.624 0.447,0.786 0.678,0.38 0.8,0.298 0.624,1.016 -0.109,0.515 -0.136,1.748 -0.556,2.1 -0.217,0.177 -0.921,0.055 -1.206,0.055l-4.092 0c-3.808,0 -7.602,0 -11.396,0l-24.201 0c-17.615,0 -35.231,0 -52.833,0l-7.724 0c-2.479,0 -4.986,-0.095 -7.466,0.054 -0.46,0.081 -0.921,0.136 -1.396,0.136 -0.122,0 -0.257,-0.013 -0.392,-0.013 -0.583,-0.245 -1.084,-0.664 -1.41,-1.206 -0.921,-1.287 -0.393,-3.171 1.369,-3.022 0.745,0.081 0.922,-1.179 0.176,-1.287l-0.067 0.04 -0.002 0z"/>
  <g id="_2190327685232">
   <path class="fil11" d="M216.052 130.596c-40.326,-0.596 -99.148,0 -139.433,1.748 2.724,14.649 11.586,44.5 14.648,63.944 35.868,0.271 74.635,0.298 112.061,-0.108 3.795,-18.564 8.754,-44.012 12.548,-62.576l0.176 -3.008zm0 0l0 0 0 0z"/>
  </g>
  <path class="fil4" d="M216.052 130.068c-17.873,-0.352 -35.746,-0.447 -53.632,-0.38 -18.984,0.055 -37.982,0.326 -56.993,0.786 -9.607,0.231 -19.214,0.488 -28.808,0.908 -0.569,0.013 -1.003,0.46 -1.003,1.016 0,0.014 0,0.014 0,0.027 -0.013,0.027 -0.013,0.068 -0.013,0.109 0,0.04 0,0.081 0.013,0.122 1.423,7.602 3.415,15.108 5.298,22.616 2.29,9.065 4.594,18.116 6.613,27.249 1.03,4.662 1.978,9.35 2.737,14.065 0.122,0.448 0.515,0.746 0.976,0.746 14.336,0.108 28.686,0.162 43.022,0.189 14.729,0 29.459,-0.027 44.188,-0.094 8.293,-0.055 16.599,0 24.852,-0.231 0.433,0 0.826,-0.298 0.948,-0.718 3.157,-16.504 6.504,-32.982 9.797,-49.459 0.867,-4.377 1.748,-8.767 2.642,-13.144 0.57,-5.339 -1.436,-4.661 -1.707,-0.46 -3.361,16.45 -6.599,32.955 -9.905,49.432 -0.881,4.363 -1.775,8.753 -2.724,13.116l0.949 -0.718c-14.716,0 -29.445,0.231 -44.16,0.257 -14.716,0.041 -29.256,0 -43.877,-0.04 -8.008,-0.027 -16.016,-0.081 -24.038,-0.149l0.976 0.745c-2.791,-17.682 -7.9,-34.959 -12.073,-52.345 -0.935,-3.848 -1.843,-7.696 -2.574,-11.599l-0.976 1.274c17.859,-0.786 35.732,-1.342 53.605,-1.68 18.984,-0.38 37.981,-0.583 57.006,-0.61 9.608,0 19.77,0.204 29.377,0.285 0.271,-0.027 -0.081,-0.461 -0.081,-0.732 0,-0.271 -0.637,-0.325 -0.474,-0.542l0.04 -0.04 -0.001 -0.001z"/>
  <path class="fil2" d="M258.438 176.586c-0.299,-0.474 -0.962,-0.528 -1.531,-0.542l-22.602 -0.067 -0.041 0c0.149,7.818 0.922,15.664 2.277,23.374 0.122,0.718 0.352,1.585 1.016,1.843 0.678,0.257 19.444,0.38 18.822,0l0.189 -0.542c0.162,0.352 0.718,-0.949 0.732,-1.355l1.287 -21.721c0.014,-0.081 0.028,-0.163 0.028,-0.244 0,-0.258 -0.055,-0.515 -0.177,-0.745l0 0 0 -0.001z"/>
  <path class="fil0" d="M236.554 199.378c0.122,0.718 0.338,1.585 1.016,1.843 0.678,0.271 19.445,0.379 18.822,0l0.19 -0.542c0.162,0.365 0.704,-0.949 0.731,-1.355l0.326 -5.637 -0.204 0c-3.862,0.325 -7.804,0.474 -11.694,0.474 -3.252,0 -6.559,-0.122 -9.796,-0.325l-0.217 0.325c0.257,1.735 0.528,3.483 0.827,5.217l-0.001 0z"/>
  <path class="fil4" d="M233.858 176.003c0,0.637 -0.014,1.301 -0.014,1.952 0,5.094 0.38,10.203 1.098,15.23 0.176,1.368 0.366,2.71 0.569,4.052 0.081,1.178 0.311,2.344 0.691,3.455 0.311,0.786 1.071,1.287 1.924,1.287 0.013,0 0.027,0 0.041,0 4.918,0.393 9.918,0.298 14.824,0.231 0.962,0 1.937,0 2.899,-0.136 0.285,0 0.569,-0.054 0.84,-0.176 0.244,-0.136 0.393,-0.393 0.393,-0.678 0,-0.122 -0.027,-0.244 -0.094,-0.352 -0.028,-0.068 -0.068,-0.122 -0.122,-0.177 -0.746,-0.596 -1.802,0.448 -1.057,1.044l-0.109 -0.136 -0.067 -0.569 0.474 -0.488 0 0 -0.081 0c0.081,0.055 0.081,0 -0.109,0 -0.189,0 -0.596,0 -0.894,0l-2.778 0.068c-2.426,0.041 -4.851,0.054 -7.29,0.041 -2.087,0 -4.16,0 -6.247,-0.095 -0.243,0 -0.514,0 -0.785,-0.041 -0.122,0 -0.271,-0.081 -0.122,0 -0.163,-0.054 -0.285,-0.189 -0.353,-0.338 -0.379,-0.949 -0.596,-1.951 -0.637,-2.968 -0.23,-1.287 -0.419,-2.574 -0.609,-3.861 -0.786,-5.786 -1.152,-11.586 -1.585,-17.399 0,-0.217 -0.176,-0.38 -0.393,-0.38 0,0 0,0 -0.014,0 -0.203,0 -0.365,0.163 -0.379,0.38l-0.013 0.054 -0.001 0z"/>
  <g id="_2190327682064">
   <path class="fil12" d="M239.061 175.638l-3.212 -10.543c-0.122,-0.392 -0.095,-0.65 -0.447,-0.84 -0.962,-0.541 -1.924,0.136 -3.116,0.922l0.392 0.691c1.139,2.683 2.318,6.843 3.456,9.485l2.927 0.285 0 0zm0 0l0 0 0 0z"/>
  </g>
  <path class="fil4" d="M232.286 165.99c1.232,3.157 1.951,6.45 3.157,9.58 0.095,0.285 0.366,0.488 0.664,0.488 0.067,0 0.149,-0.014 0.216,-0.041 0.285,-0.095 0.475,-0.352 0.475,-0.65 0,-0.082 -0.014,-0.15 -0.041,-0.217 0,-0.041 -0.013,-0.082 -0.04,-0.109 -1.369,-3.076 -2.304,-6.328 -3.672,-9.39 -0.204,-0.447 -0.976,-0.122 -0.8,0.338l0.041 0 0 0.001z"/>
  <path class="fil4" d="M232.489 165.515c0.529,-0.243 2.249,-1.49 2.629,-0.555 0.189,0.569 0.365,1.138 0.487,1.707l0.583 1.938 1.084 3.672 0.542 1.829c0.136,0.651 0.366,1.287 0.65,1.884 0.122,0.203 0.353,0.338 0.597,0.338 0.135,0 0.258,-0.04 0.379,-0.109 0.19,-0.135 0.312,-0.352 0.326,-0.596 -0.109,-0.758 -0.312,-1.518 -0.597,-2.236l-0.718 -2.262 -1.409 -4.5c-0.216,-0.677 -0.407,-1.341 -0.623,-2.019 -0.149,-0.514 -0.556,-0.921 -1.084,-1.056 -1.22,-0.353 -2.467,0.582 -3.32,1.341 -0.365,0.311 0.095,0.786 0.474,0.624l0 0 0 0z"/>
  <path class="fil4" d="M237.896 161.952c0.501,2.724 0.934,5.461 1.436,8.184 0.244,1.301 0.501,2.588 0.745,3.889 0.149,0.745 0.285,2.019 1.382,1.694 0.271,-0.095 0.461,-0.339 0.461,-0.637 0,-0.054 0,-0.108 -0.014,-0.149 -0.013,-0.054 -0.04,-0.094 -0.054,-0.136l0 0c-0.122,-0.203 -0.339,-0.325 -0.569,-0.325 -0.109,0 -0.217,0.027 -0.326,0.095l-0.121 0.054c-0.176,0.122 -0.285,0.325 -0.285,0.529 0,0.352 0.285,0.637 0.637,0.637 0.04,0 0.094,0 0.135,-0.014l0.136 0 -0.786 -0.623 0 0 0.651 -0.651 0.393 0.312 0 -0.095c0,-0.054 -0.041,-0.203 -0.055,-0.258 -0.04,-0.176 -0.067,-0.365 -0.108,-0.556 -0.109,-0.474 -0.258,-0.961 -0.366,-1.436 -0.298,-1.192 -0.556,-2.371 -0.799,-3.577 -0.502,-2.371 -0.976,-4.743 -1.504,-7.114 -0.122,-0.609 -1.017,-0.352 -0.908,0.244l-0.081 -0.067 0 0z"/>
  <path class="fil4" d="M238.356 161.356c0.149,-0.339 0.285,-0.678 0.379,-1.03 0.109,-0.339 0.204,-0.678 0.312,-1.017l0.311 -1.016c0.041,-0.162 0.095,-0.311 0.15,-0.474 0.04,-0.149 0.094,-0.298 0.162,-0.434l-1.26 0c0.243,0.556 0.542,1.084 0.907,1.572 0.19,0.271 0.407,0.542 0.637,0.799 0.204,0.258 0.447,0.488 0.732,0.692 0.108,0.054 0.231,0.081 0.353,0.081 0.392,0 0.704,-0.311 0.704,-0.705 0,-0.122 -0.027,-0.244 -0.081,-0.352 -0.203,-0.258 -0.42,-0.488 -0.664,-0.718 -0.095,-0.109 -0.19,-0.231 -0.285,-0.339 -0.095,-0.108 -0.135,-0.176 -0.067,-0.068l-0.122 -0.162c-0.339,-0.474 -0.624,-0.976 -0.868,-1.49 -0.121,-0.217 -0.365,-0.353 -0.623,-0.353 -0.054,0 -0.109,0 -0.162,0.013 -0.299,0.095 -0.515,0.38 -0.529,0.705 -0.041,0.312 -0.095,0.624 -0.176,0.935l-0.204 1.043c-0.081,0.339 -0.162,0.691 -0.216,1.044 -0.095,0.352 -0.149,0.718 -0.176,1.084 0.027,0.23 0.216,0.393 0.434,0.393 0.135,0 0.271,-0.055 0.352,-0.163l0 -0.04z"/>
  <path class="fil4" d="M241.229 160.489c0.271,5.013 0.935,10.054 1.978,14.973 0.162,0.881 1.572,0.515 1.342,-0.366 -1.125,-4.81 -1.965,-9.715 -2.494,-14.621 -0.067,-0.514 -0.853,-0.542 -0.827,0l0 0.014 0.001 0z"/>
  <path class="fil2" d="M248.979 164.432c-0.203,-0.163 -0.447,-0.244 -0.704,-0.244 -0.014,0 -0.014,0 -0.028,0l-2.994 -0.271 -0.474 0.271c0.216,3.699 0.528,7.994 0.745,11.707l2.886 -0.081c-0.094,-2.914 0.177,-6.735 0.244,-9.878 0.014,-0.271 0.502,-1.302 0.325,-1.504z"/>
  <path class="fil4" d="M244.359 164.188c0.149,3.699 0.325,7.412 0.42,11.125 0,0.854 1.396,0.785 1.315,0 -0.353,-3.713 -0.61,-7.426 -0.895,-11.125 0,-0.542 -0.867,-0.556 -0.84,0l0 0z"/>
  <path class="fil4" d="M245.254 164.31c0.69,0.081 1.395,0.149 2.086,0.257 0.298,0.068 0.624,0.122 0.935,0.149 0.271,0 0,0.163 0.122,-0.149 -0.013,0.055 -0.027,0.122 -0.054,0.177 -0.271,0.826 -0.42,1.707 -0.42,2.588 0,0.122 0.013,0.258 0.013,0.379 -0.109,2.589 -0.285,5.176 -0.217,7.765 0,0.948 1.504,0.948 1.477,0 -0.122,-2.981 0.04,-5.949 0.095,-8.917 0.027,-0.46 0.108,-0.921 0.244,-1.354 0.067,-0.15 0.094,-0.312 0.094,-0.475 0,-0.257 -0.081,-0.514 -0.23,-0.718 -0.42,-0.461 -1.233,-0.338 -1.789,-0.366 -0.785,0 -1.585,-0.081 -2.371,-0.121 -0.515,0 -0.487,0.718 0,0.785l0.013 0 0.002 0z"/>
  <path class="fil4" d="M253.776 174.797c0.204,-1.423 0.393,-2.859 0.57,-4.281 0.176,-1.437 0.311,-2.9 0.514,-4.336 0,-0.041 0.014,-0.081 0.014,-0.122 0,-0.298 -0.19,-0.569 -0.475,-0.664 -0.189,-0.054 -0.379,-0.094 -0.583,-0.094 -0.664,0 -1.287,0.365 -1.639,0.934 -0.502,0.746 -0.813,1.613 -0.895,2.507 -0.162,1.071 -0.284,2.154 -0.406,3.225 -0.122,1.084 -0.312,2.141 -0.407,3.171 -0.081,0.867 1.328,1.043 1.518,0.203 0.176,-0.894 0.298,-1.802 0.366,-2.71 0.108,-0.922 0.203,-1.857 0.311,-2.778 0.054,-0.745 0.189,-1.491 0.42,-2.196 0.149,-0.365 0.46,-1.083 0.949,-1.002l-0.488 -0.651c0,1.45 -0.176,2.9 -0.285,4.35 -0.122,1.436 -0.23,2.886 -0.244,4.336 0,0.42 0.691,0.542 0.786,0.108l-0.027 0 0.001 0z"/>
  <path class="fil4" d="M255.755 175.123c2.899,-6.261 6.287,-12.331 10.067,-18.103l-1.26 -0.529c-0.569,3.456 -1.694,6.802 -3.346,9.892 -1.626,3.09 -3.496,6.07 -5.272,9.078 -0.067,0.122 -0.095,0.244 -0.095,0.38 0,0.407 0.325,0.732 0.733,0.732 0.257,0 0.501,-0.136 0.636,-0.366 3.591,-6.138 7.643,-12.154 8.699,-19.35 0.014,-0.067 0.027,-0.122 0.027,-0.189 0,-0.38 -0.311,-0.691 -0.691,-0.691 -0.243,0 -0.474,0.136 -0.596,0.352 -3.672,5.827 -6.951,11.993 -9.702,18.32 -0.23,0.542 0.569,1.031 0.8,0.475l0 0 0 -0.001z"/>
  <path class="fil4" d="M28.705 194.391c0.664,0.027 1.355,0.041 2.02,0.041 1.26,0 2.52,-0.068 3.766,-0.177l6.044 -0.176c4.322,-0.108 8.699,-0.176 12.994,-0.23 8.51,-0.082 17.019,-0.082 25.543,-0.095l2.276 0c0.786,0 0.149,-0.054 0.23,0 0.475,0.312 0.665,1.301 0.786,1.816 0.326,1.097 0.488,2.236 0.488,3.374 0,0.691 -0.067,1.396 -0.176,2.073 -0.028,0.067 -0.028,0.122 -0.028,0.189 0,0.393 0.312,0.718 0.705,0.718 0.326,0 0.61,-0.216 0.691,-0.528 0.19,-0.827 0.285,-1.667 0.285,-2.507 0,-0.854 -0.095,-1.694 -0.285,-2.52 -0.216,-1.193 -0.541,-2.819 -1.49,-3.659 -0.38,-0.271 -0.813,-0.407 -1.274,-0.407 -0.122,0 -0.258,0.014 -0.38,0.027l-3.225 0 -6.748 0.055c-9.309,0.081 -18.618,0.176 -27.913,0.434 -2.48,0.081 -4.959,0.149 -7.426,0.271 -0.149,0 -0.298,0 -0.447,0 -2.182,0 -4.377,0.176 -6.531,0.528 -0.448,0.109 -0.299,0.705 0.108,0.745l-0.013 0.028 0 0z"/>
  <path class="fil4" d="M75.806 192.183c-0.04,-0.759 -0.054,-1.546 -0.054,-2.318 0,-2.778 0.244,-5.556 0.718,-8.293 0.149,-0.894 -1.233,-1.26 -1.369,-0.366 -0.311,1.965 -0.46,3.957 -0.46,5.949 0,1.707 0.109,3.428 0.338,5.122 0.055,0.461 0.855,0.339 0.827,-0.094z"/>
  <path class="fil4" d="M75.576 181.573c0.189,-0.271 0.311,-0.596 0.311,-0.935 0,-0.474 -0.216,-0.921 -0.583,-1.22 -0.176,-0.149 -0.379,-0.243 -0.609,-0.298 -0.705,-0.149 -1.423,-0.23 -2.141,-0.23 -0.095,0 -0.19,0 -0.285,0 -1.193,-0.054 -2.371,-0.095 -3.564,-0.122 -4.485,-0.109 -8.97,-0.136 -13.442,-0.041 -4.471,0.082 -8.943,0.271 -13.441,0.583 -2.168,0.149 -4.336,0.312 -6.518,0.515 -1.341,0.122 -3.848,-0.189 -4.336,1.491 -0.135,0.731 -0.203,1.463 -0.203,2.208 0,0.204 0,0.407 0.013,0.61 -0.04,1.125 -0.067,2.236 -0.067,3.36 0,0.177 0,0.38 0,0.556 0,2.019 0.149,4.038 0.447,6.03 0.135,0.786 1.314,0.447 1.206,-0.338 -0.285,-2.304 -0.434,-4.662 -0.434,-6.992 0,-0.989 0.027,-1.992 0.067,-2.967 0,-0.746 -0.149,-1.722 0.42,-2.236 0.57,-0.515 2.169,-0.475 3.09,-0.57 1.775,-0.162 3.55,-0.311 5.325,-0.447 7.385,-0.528 14.756,-0.785 22.142,-0.785 2.046,0 4.092,0.027 6.138,0.081l2.967 0.081c0.366,0 3.794,0 2.941,1.112 -0.338,0.392 0.23,0.961 0.556,0.555l0 -0.001z"/>
  <g id="_2190327678032">
   <path class="fil12" d="M28.163 180.584c18.022,-0.867 34.96,-0.881 52.928,-1.722 0.393,0 0.732,-5.352 0,-8.496 -0.109,-0.447 -0.217,-1.585 -0.989,-1.585 -13.862,0.758 -35.949,1.531 -51.017,2.845 -0.854,0.082 -2.371,4.946 -0.678,8.428l-0.244 0.529 0 0.001zm0 0l0 0 0 0z"/>
  </g>
  <path class="fil4" d="M28.163 181.058c10.488,-0.447 20.99,-0.637 31.491,-0.867 5.176,-0.122 10.353,-0.244 15.516,-0.42l3.957 -0.136c0.677,0 1.991,0.216 2.52,-0.325 0.541,-0.542 0.528,-2.331 0.555,-3.171 0.028,-0.393 0.028,-0.786 0.028,-1.193 0,-1.395 -0.122,-2.804 -0.353,-4.186 -0.244,-1.369 -0.501,-2.683 -2.154,-2.629 -3.821,0.122 -7.656,0.42 -11.477,0.609 -8.699,0.393 -17.317,0.786 -25.976,1.302 -2.371,0.149 -4.743,0.298 -7.114,0.46l-3.238 0.231c-0.109,0 -0.23,0 -0.353,0 -0.881,0 -1.774,0.081 -2.655,0.243 -1.138,0.366 -1.491,2.25 -1.667,3.252 -0.136,0.651 -0.204,1.328 -0.204,1.992 0,1.423 0.299,2.819 0.854,4.107 0.339,0.745 1.437,0.108 1.098,-0.637 -0.46,-1.084 -0.691,-2.263 -0.691,-3.442 0,-0.705 0.082,-1.409 0.244,-2.1 0.081,-0.583 0.271,-1.152 0.556,-1.68 0.366,-0.529 1.043,-0.38 1.68,-0.434 3.631,-0.312 7.262,-0.542 10.894,-0.786 7.981,-0.474 15.976,-0.84 23.957,-1.206 3.618,-0.162 7.223,-0.325 10.841,-0.501 0.785,0 1.572,-0.054 2.371,-0.081 0.244,-0.028 0.501,-0.055 0.772,-0.055 0.082,0 0.163,0.014 0.244,0.014 0.407,0.067 0.366,0.094 0.488,0.555 0.338,1.409 0.514,2.86 0.514,4.309 0,0.122 -0.013,0.244 -0.013,0.366 0,0.705 0,1.409 -0.04,2.114 0,0.095 0.013,0.19 0.013,0.271 0,0.447 -0.082,0.894 -0.217,1.314 0.326,-0.501 -0.379,-0.23 -0.664,-0.217l-1.788 0.082 -3.727 0.163c-4.742,0.203 -9.444,0.338 -14.16,0.487 -10.691,0.298 -21.382,0.569 -32.073,1.152 -0.583,0 -0.596,0.949 0,0.935l-0.027 0.108 -0.002 0z"/>
  <path class="fil4" d="M76.335 168.537c0.651,-1.599 0.989,-3.306 0.989,-5.013 0.027,-0.258 0.041,-0.515 0.041,-0.759 0,-1.192 -0.285,-2.371 -0.827,-3.442 -0.718,-1.084 -2.006,-0.854 -3.171,-0.867 -1.992,0 -3.943,0.054 -5.989,0.109 -4.567,0.135 -9.12,0.365 -13.686,0.636 -4.743,0.271 -9.485,0.461 -14.174,0.854 -1.992,0.163 -2.303,2.371 -2.534,4.025 -0.149,0.949 -0.23,1.924 -0.23,2.9 0,1.219 0.122,2.452 0.352,3.645 0.176,0.785 1.423,0.474 1.247,-0.339 -0.217,-1.125 -0.339,-2.277 -0.339,-3.415 0,-0.623 0.041,-1.26 0.109,-1.87 0.068,-0.853 0.244,-1.68 0.488,-2.493 0.054,-0.325 0.176,-0.624 0.325,-0.908 0.339,-0.407 1.016,-0.311 1.504,-0.339 4.079,-0.23 8.144,-0.487 12.209,-0.718 4.079,-0.23 8.198,-0.46 12.29,-0.609 2.195,-0.136 4.417,-0.217 6.613,-0.217 1.125,0 2.29,0.013 3.387,0.055 1.043,0.067 1.192,2.154 1.287,2.994 0.055,0.501 0.082,1.016 0.082,1.531 0,1.342 -0.203,2.683 -0.61,3.97 -0.122,0.38 0.502,0.664 0.678,0.285l-0.041 -0.013 0 -0.002z"/>
  <path class="fil4" d="M68.964 162.318c-0.082,-0.014 -0.163,-0.014 -0.258,-0.014 -0.204,0 -0.407,0.041 -0.596,0.136 -0.231,0.109 -0.434,0.285 -0.583,0.488 -0.177,0.244 -0.285,0.542 -0.285,0.854 0,0.23 0.054,0.447 0.162,0.65 0.095,0.163 0.271,0.271 0.461,0.271 0,0 0,0 0,0 0.705,-0.027 1.382,-0.271 1.951,-0.678 0.122,-0.081 0.216,-0.203 0.271,-0.352 0.013,-0.054 0.027,-0.109 0.027,-0.162 0,-0.136 -0.054,-0.258 -0.136,-0.353 -0.109,-0.149 -0.285,-0.23 -0.474,-0.23 -0.122,0 -0.258,0.04 -0.366,0.122l-0.054 0c-0.068,0.067 -0.149,0.135 -0.23,0.203l0.121 -0.095c-0.162,0.122 -0.325,0.217 -0.501,0.285l0.135 -0.054c-0.23,0.094 -0.46,0.149 -0.691,0.189l0.136 0 -0.189 0 0.46 0.258c0,-0.014 0,-0.027 0,-0.041 0,-0.013 0,-0.027 0,-0.04l0.055 0.122c-0.028,-0.055 -0.041,-0.122 -0.055,-0.189l0 0.148c0,-0.04 -0.013,-0.081 -0.013,-0.122 0,-0.026 0.013,-0.067 0.013,-0.108l0 0.136c0.014,-0.082 0.041,-0.163 0.068,-0.244l-0.041 0.122c0.028,-0.082 0.082,-0.177 0.136,-0.244l-0.081 0.109c0.054,-0.068 0.122,-0.136 0.203,-0.19l-0.109 0.068c0.068,-0.041 0.136,-0.082 0.204,-0.109l-0.122 0.04c0.068,-0.027 0.136,-0.04 0.216,-0.054l-0.135 0c0.027,0 0.067,0 0.095,0 0.027,0 0.067,0 0.095,0l-0.137 0 0 0c0.041,0.014 0.082,0.014 0.123,0.014 0.094,0 0.176,-0.028 0.257,-0.068 0.162,-0.082 0.258,-0.244 0.258,-0.42 0,-0.23 -0.149,-0.42 -0.366,-0.475l-0.027 0.028 0.002 -0.001z"/>
  <path class="fil4" d="M45.575 165.299c0.488,0.027 0.976,0.04 1.451,0.04 0.867,0 1.734,-0.04 2.588,-0.121l3.889 -0.15c2.628,-0.108 5.271,-0.203 7.9,-0.325 0.663,0 0.677,-1.071 0,-1.043 -2.697,0.108 -5.38,0.243 -8.077,0.366l-4.038 0.189c-0.054,0 -0.108,0 -0.162,0 -1.219,0 -2.453,0.095 -3.672,0.271 -0.461,0.095 -0.298,0.732 0.109,0.786l0.013 -0.014 -0.001 0.001z"/>
  <path class="fil4" d="M39.505 173.998c8.997,-0.298 17.981,-0.786 26.979,-1.179 0.65,0 0.65,-1.056 0,-1.016 -8.997,0.447 -17.995,0.854 -26.979,1.423 -0.501,0 -0.501,0.786 0,0.786l0 -0.014 0 0z"/>
  <path class="fil4" d="M38.502 176.072c2.914,0 5.854,-0.271 8.753,-0.407l8.768 -0.434c5.84,-0.285 11.68,-0.569 17.52,-0.881 0.705,-0.04 0.705,-1.125 0,-1.098 -5.84,0.298 -11.68,0.637 -17.52,0.962l-8.754 0.488c-2.899,0.149 -5.867,0.162 -8.767,0.515 -0.231,0 -0.42,0.189 -0.42,0.42 0,0.23 0.189,0.433 0.42,0.433l0 0 0 0.002z"/>
  <path class="fil4" d="M41.849 184.852c0.461,0.013 0.948,0.027 1.409,0.027 1.193,0 2.371,-0.068 3.55,-0.189l5.339 -0.271c3.429,-0.163 6.857,-0.353 10.271,-0.624 0.8,-0.054 0.84,-1.369 0,-1.314 -3.496,0.284 -6.992,0.46 -10.474,0.664 -1.721,0.108 -3.442,0.217 -5.15,0.325 -1.707,0.013 -3.414,0.203 -5.081,0.542 -0.487,0.122 -0.339,0.786 0.122,0.84l0.013 0 0.001 0z"/>
  <path class="fil4" d="M42.391 186.817c1.247,0.04 2.547,0.054 3.821,0.054 5.081,0 10.203,-0.285 15.257,-0.84 0.271,0 0.488,-0.231 0.488,-0.502 0,-0.013 0,-0.026 0,-0.026 -0.013,-0.285 -0.243,-0.502 -0.514,-0.502 0,0 -0.014,0 -0.014,0.013l-0.094 0c-5.678,0.664 -11.437,1.017 -17.169,1.017 -0.596,0 -1.233,-0.014 -1.816,-0.014 -0.216,0 -0.392,0.177 -0.392,0.393 0,0.217 0.176,0.407 0.392,0.407l0.041 0z"/>
  <path class="fil4" d="M67.757 182.264c-0.325,2.046 0,4.228 -0.352,6.206 -0.013,0.04 -0.013,0.081 -0.013,0.122 0,0.257 0.176,0.487 0.434,0.542 0.04,0.013 0.081,0.013 0.121,0.013 0.258,0 0.488,-0.176 0.542,-0.42 0,-0.027 0.013,-0.041 0.013,-0.054 0,-0.014 -0.013,-0.041 -0.013,-0.055 0.271,-2.059 -0.054,-4.159 0.217,-6.233 0.067,-0.528 -0.881,-0.664 -0.962,-0.122l0.013 0 0 0.001z"/>
  <path class="fil4" d="M70.657 182.697c0,1.098 -0.082,2.196 -0.122,3.28 -0.013,0.244 -0.013,0.474 -0.013,0.718 0,0.786 0.094,1.585 0.298,2.358 0.203,0.637 1.233,0.338 1.003,-0.285 -0.231,-0.8 -0.353,-1.626 -0.353,-2.466 0,-0.136 0,-0.285 0,-0.42 0,-1.057 0.055,-2.128 0,-3.158 0,-0.501 -0.785,-0.514 -0.785,0l-0.027 -0.027 -0.001 0z"/>
  <path class="fil4" d="M41.863 198.429c0.623,0.041 1.247,0.055 1.87,0.055 0.623,0 1.26,-0.013 1.883,-0.055l3.754 -0.081 7.493 -0.149c5.001,-0.122 10,-0.23 15.027,-0.38 0.299,0 0.542,-0.243 0.542,-0.542 0,-0.013 0,-0.026 0,-0.04 -0.013,-0.298 -0.243,-0.528 -0.542,-0.542 -5.068,0.109 -10.136,0.258 -15.203,0.407l-7.493 0.23c-0.461,-0.013 -0.949,-0.027 -1.409,-0.027 -2.006,0 -4.011,0.109 -6.003,0.325 -0.488,0.082 -0.298,0.746 0.108,0.8l-0.027 0 0 -0.001z"/>
  <path class="fil4" d="M43.854 196.383c8.279,-0.501 16.613,-0.284 24.919,-0.42 0.244,-0.04 0.434,-0.244 0.434,-0.501 0,-0.244 -0.189,-0.461 -0.434,-0.488 -8.306,0.189 -16.612,0.068 -24.919,0.664 -0.474,0.027 -0.487,0.786 0,0.745z"/>
  <ellipse class="fil13" cx="149.249" cy="164.621" rx="15.881" ry="7.479"/>
  <path class="fil4" d="M234.196 176.369c1.315,0.15 2.643,0.231 3.971,0.231 0.568,0 1.138,-0.013 1.693,-0.041l5.949 0.082 5.528 0.068c0.61,-0.014 1.22,-0.027 1.829,-0.027 1.315,0 2.656,0.054 3.984,0.148 0.583,0.068 0.623,0.163 0.636,0.786 0.014,0.393 -0.013,0.8 -0.067,1.179 -0.054,1.056 -0.122,2.114 -0.176,3.171l-0.325 5.528 -0.353 5.921 -0.162 2.765c0,0.298 -0.298,3.076 0,3.049l0.555 0.23 -0.108 -0.109c-0.705,-0.718 -1.789,0.38 -1.098,1.098 0.678,0.718 1.789,0 1.965,-0.894 0.122,-0.854 0.177,-1.721 0.177,-2.588 0,0 0,0 0,0l0.162 -2.765 0.664 -11.247c0.108,-1.816 0.311,-3.645 0.311,-5.461 0.013,-0.067 0.013,-0.135 0.013,-0.203 0,-1.003 -0.758,-1.843 -1.761,-1.951l-0.109 0.013c-0.894,-0.054 -1.789,-0.095 -2.683,-0.095 -0.894,0 -1.789,0.041 -2.683,0.095l-5.528 0 -6.139 0.028c-0.718,-0.028 -1.45,-0.055 -2.168,-0.055 -1.369,0 -2.737,0.068 -4.106,0.203 -0.176,0.068 -0.298,0.231 -0.298,0.42 0,0.041 0,0.082 0.013,0.122 0.041,0.136 0.149,0.244 0.298,0.285l0.014 0.014 0.002 0z"/>
  <path class="fil4" d="M28.394 194.174c-0.61,1.125 -0.922,2.372 -0.922,3.645 0,0.231 0,0.461 0.027,0.691 0,0.15 0,0.298 0,0.448 0,1.246 0.109,2.493 0.353,3.726 0.162,0.786 1.436,0.46 1.233,-0.352 -0.203,-1.017 -0.311,-2.047 -0.311,-3.09 0,-0.244 0,-0.488 0.013,-0.732 0,-1.382 0.311,-2.737 0.325,-4.119 0,-0.014 0,-0.014 0,-0.014 0,-0.203 -0.162,-0.366 -0.366,-0.366 -0.135,0 -0.243,0.068 -0.311,0.19l-0.041 -0.027 0 0z"/>
 </g>
</svg>
