<?xml version="1.0" encoding="UTF-8"?>
<!DOCTYPE svg PUBLIC "-//W3C//DTD SVG 1.1//EN" "http://www.w3.org/Graphics/SVG/1.1/DTD/svg11.dtd">
<!-- Creator: CorelDRAW -->
<svg xmlns="http://www.w3.org/2000/svg" xml:space="preserve" width="256px" height="256px" version="1.1" style="shape-rendering:geometricPrecision; text-rendering:geometricPrecision; image-rendering:optimizeQuality; fill-rule:evenodd; clip-rule:evenodd"
viewBox="0 0 256 256"
 xmlns:xlink="http://www.w3.org/1999/xlink"
 xmlns:xodm="http://www.corel.com/coreldraw/odm/2003">
 <defs>
  <style type="text/css">
   <![CDATA[
    .fil0 {fill:#DE2C2C;fill-rule:nonzero}
   ]]>
  </style>
 </defs>
 <g id="Capa_x0020_1">
  <metadata id="CorelCorpID_0Corel-Layer"/>
  <path class="fil0" d="M168.77 179.15c2.18,0.81 4.37,-1.03 4.05,-3.32 -2.72,-19.16 -21.08,-33.96 -43.32,-33.96 -22.23,0 -40.58,14.79 -43.31,33.93 -0.34,2.3 1.88,4.15 4.06,3.34l20.95 -7.75c11.67,-4.31 24.5,-4.33 36.2,-0.06l21.37 7.82 0 0z"/>
  <path class="fil0" d="M94.1 105.89c0,8.32 -3.98,15.05 -8.92,15.05 -4.93,0 -8.92,-6.73 -8.92,-15.05 0,-8.3 3.99,-15.04 8.92,-15.04 4.94,0 8.92,6.74 8.92,15.04z"/>
  <path class="fil0" d="M183.37 105.89c0,8.32 -4,15.05 -8.93,15.05 -4.93,0 -8.92,-6.73 -8.92,-15.05 0,-8.3 3.99,-15.04 8.92,-15.04 4.93,0 8.93,6.74 8.93,15.04z"/>
  <path class="fil0" d="M111.97 89.94c-8.25,-6.3 -27.73,-17.89 -59.48,-17.94 -1.61,0 -3.17,-0.75 -4.06,-2.09 -1.65,-2.48 -3.09,-6.64 2.47,-9.89 0,0 15.53,-9.18 33.89,-2.12 0,0 20.26,10.13 28.42,23.13 0.36,0.58 0.6,1.2 0.76,1.87l1.17 4.97c0.43,1.84 -1.67,3.22 -3.17,2.07l0 0z"/>
  <path class="fil0" d="M144.7 89.3c7.37,-5.62 24.79,-15.98 53.18,-16.03 1.44,-0.01 2.83,-0.67 3.62,-1.88 1.48,-2.2 2.77,-5.94 -2.2,-8.84 0,0 -13.89,-8.21 -30.3,-1.89 0,0 -18.12,9.06 -25.41,20.68 -0.32,0.51 -0.54,1.07 -0.68,1.66l-1.04 4.45c-0.4,1.65 1.48,2.88 2.83,1.85z"/>
  <path class="fil0" d="M129.5 10.12c-63.82,0 -115.75,51.92 -115.75,115.75 0,63.82 51.93,115.75 115.75,115.75 63.82,0 115.74,-51.93 115.74,-115.75 0,-63.83 -51.92,-115.75 -115.74,-115.75zm0 237.88c-67.35,0 -122.14,-54.79 -122.14,-122.13 0,-67.36 54.79,-122.15 122.14,-122.15 67.35,0 122.14,54.79 122.14,122.15 0,67.34 -54.79,122.13 -122.14,122.13z"/>
 </g>
</svg>
