<?xml version="1.0" encoding="UTF-8"?>
<!DOCTYPE svg PUBLIC "-//W3C//DTD SVG 1.1//EN" "http://www.w3.org/Graphics/SVG/1.1/DTD/svg11.dtd">
<!-- Creator: CorelDRAW -->
<svg xmlns="http://www.w3.org/2000/svg" xml:space="preserve" width="256px" height="256px" version="1.1" style="shape-rendering:geometricPrecision; text-rendering:geometricPrecision; image-rendering:optimizeQuality; fill-rule:evenodd; clip-rule:evenodd"
viewBox="0 0 256 256"
 xmlns:xlink="http://www.w3.org/1999/xlink"
 xmlns:xodm="http://www.corel.com/coreldraw/odm/2003">
 <defs>
  <style type="text/css">
   <![CDATA[
    .fil0 {fill:#8BB455;fill-rule:nonzero}
    .fil1 {fill:#8BB356;fill-rule:nonzero}
   ]]>
  </style>
 </defs>
 <g id="Capa_x0020_1">
  <metadata id="CorelCorpID_0Corel-Layer"/>
  <path class="fil0" d="M176.37 182c-6.03,0 -11.91,-4.26 -14.25,-5.96 -4.35,-3.15 -10.28,-6.34 -13.84,-3.64 -0.89,0.67 -1.64,1.75 -2.43,2.89 -0.88,1.26 -1.88,2.68 -3.26,3.85 -5.1,4.32 -12.3,3.03 -17.35,0.4 -2.08,-1.09 -3.99,-2.39 -5.82,-3.65 -2.27,-1.56 -4.42,-3.03 -6.74,-4 -5.83,-2.47 -13.12,-1.5 -18.11,2.4 -0.65,0.51 -1.28,1.07 -1.95,1.67 -1.68,1.5 -3.58,3.19 -6.03,4.16 -7.19,2.86 -13.41,-1.63 -18.89,-5.59 -3.24,-2.33 -6.58,-4.74 -9.92,-5.62 -5.6,-1.47 -12.3,2.21 -14.05,7.73 -0.5,1.55 -2.15,2.4 -3.69,1.91 -1.54,-0.49 -2.39,-2.14 -1.9,-3.68 2.73,-8.6 12.4,-13.93 21.14,-11.62 4.39,1.15 8.18,3.88 11.84,6.53 5.67,4.08 9.39,6.45 13.31,4.89 1.48,-0.59 2.84,-1.8 4.28,-3.09 0.72,-0.63 1.45,-1.29 2.25,-1.91 6.72,-5.25 16.14,-6.5 24,-3.19 2.87,1.21 5.35,2.92 7.77,4.57 1.77,1.22 3.45,2.37 5.23,3.29 3.2,1.67 7.96,2.76 10.85,0.33 0.79,-0.68 1.49,-1.68 2.22,-2.74 0.98,-1.39 2.08,-2.97 3.71,-4.2 3.54,-2.69 10.02,-4.25 20.81,3.56 6.36,4.61 11.05,5.92 13.93,3.89 0.85,-0.6 1.61,-1.56 2.42,-2.58 0.47,-0.6 0.94,-1.19 1.43,-1.75 4.24,-4.72 11.22,-6.69 18.22,-5.14 7.01,1.55 12.51,6.28 14.35,12.35 0.48,1.55 -0.4,3.19 -1.95,3.66 -1.54,0.46 -3.18,-0.4 -3.66,-1.95 -1.22,-4.05 -5.06,-7.24 -10,-8.34 -4.95,-1.09 -9.77,0.19 -12.6,3.34 -0.41,0.46 -0.8,0.96 -1.19,1.46 -0.98,1.24 -2.1,2.65 -3.64,3.74 -2.08,1.46 -4.29,2.03 -6.49,2.03z"/>
  <path class="fil1" d="M55.87 97.98c0.48,0.87 1.45,1.61 2.99,2.01 12.76,3.32 37.86,-0.92 39.91,-17.01 0.33,-2.64 -1.03,-9.07 -4.81,-6.01 -3.99,3.21 -6.72,7.68 -10.83,10.83 -4.04,3.09 -8.77,4.8 -13.88,4.62 -3.32,-0.12 -6.93,-0.85 -10.18,0.16 -2.93,0.9 -4.26,3.47 -3.2,5.4z"/>
  <path class="fil1" d="M195.35 97.98c-0.48,0.87 -1.44,1.61 -2.99,2.01 -12.75,3.32 -37.85,-0.92 -39.89,-17.01 -0.34,-2.64 1.02,-9.07 4.8,-6.01 3.99,3.21 6.71,7.68 10.83,10.83 4.04,3.09 8.76,4.8 13.88,4.62 3.32,-0.12 6.92,-0.85 10.18,0.16 2.93,0.9 4.26,3.47 3.19,5.4z"/>
  <path class="fil1" d="M97.69 119.71c1.46,0.54 2.86,1.19 4.1,2.12 6.37,4.78 -0.55,10.49 -5.01,13.3 -4.85,3.05 -12.72,8.48 -18.76,7.3 -0.95,-0.19 -1.94,-0.59 -2.42,-1.43 -2.28,-3.97 4.09,-5.85 6.67,-6.97 1.91,-0.82 5.66,-2.68 5.44,-5.26 -0.07,-0.76 -0.54,-1.43 -1.08,-1.97 -3.78,-3.69 -11.91,-2.6 -13.4,-8.75 -0.2,-0.82 -0.07,-1.76 0.49,-2.4 0.54,-0.62 1.39,-0.87 2.21,-1.01 5.05,-0.85 10.02,0.89 14.64,2.74 2.26,0.91 4.77,1.47 7.12,2.33z"/>
  <path class="fil1" d="M153.54 119.71c-1.46,0.54 -2.87,1.19 -4.11,2.12 -6.37,4.78 0.56,10.49 5.02,13.3 4.85,3.05 12.71,8.48 18.76,7.3 0.94,-0.19 1.94,-0.59 2.42,-1.43 2.28,-3.97 -4.09,-5.85 -6.67,-6.97 -1.91,-0.82 -5.66,-2.68 -5.44,-5.26 0.07,-0.76 0.54,-1.43 1.08,-1.97 3.78,-3.69 11.9,-2.6 13.39,-8.75 0.2,-0.82 0.08,-1.76 -0.48,-2.4 -0.54,-0.62 -1.4,-0.87 -2.22,-1.01 -5.04,-0.85 -10.01,0.89 -14.64,2.74 -2.25,0.91 -4.76,1.47 -7.11,2.33z"/>
  <path class="fil0" d="M127.01 22.92c-58.53,0 -106.15,47.62 -106.15,106.16 0,58.54 47.62,106.16 106.15,106.16 58.54,0 106.16,-47.62 106.16,-106.16 0,-58.54 -47.62,-106.16 -106.16,-106.16zm0 218.18c-61.76,0 -112.02,-50.25 -112.02,-112.02 0,-61.77 50.26,-112.02 112.02,-112.02 61.77,0 112.02,50.25 112.02,112.02 0,61.77 -50.25,112.02 -112.02,112.02z"/>
 </g>
</svg>
