<?xml version="1.0" encoding="UTF-8"?>
<!DOCTYPE svg PUBLIC "-//W3C//DTD SVG 1.1//EN" "http://www.w3.org/Graphics/SVG/1.1/DTD/svg11.dtd">
<!-- Creator: CorelDRAW -->
<svg xmlns="http://www.w3.org/2000/svg" xml:space="preserve" width="256px" height="256px" version="1.1" style="shape-rendering:geometricPrecision; text-rendering:geometricPrecision; image-rendering:optimizeQuality; fill-rule:evenodd; clip-rule:evenodd"
viewBox="0 0 256 256"
 xmlns:xlink="http://www.w3.org/1999/xlink"
 xmlns:xodm="http://www.corel.com/coreldraw/odm/2003">
 <defs>
  <style type="text/css">
   <![CDATA[
    .fil0 {fill:#B073E6;fill-rule:nonzero}
   ]]>
  </style>
 </defs>
 <g id="Capa_x0020_1">
  <metadata id="CorelCorpID_0Corel-Layer"/>
  <path class="fil0" d="M90.7 111.36c-5.02,0 -9.42,8.26 -9.42,17.68 0,9.42 4.4,17.68 9.42,17.68 5.01,0 9.41,-8.26 9.41,-17.68 0,-9.42 -4.4,-17.68 -9.41,-17.68zm0 40.64c-8.24,0 -14.7,-10.09 -14.7,-22.96 0,-12.88 6.46,-22.96 14.7,-22.96 8.24,0 14.69,10.08 14.69,22.96 0,12.87 -6.45,22.96 -14.69,22.96z"/>
  <path class="fil0" d="M170.39 111.36c-5.02,0 -9.42,8.26 -9.42,17.68 0,9.42 4.4,17.68 9.42,17.68 5.01,0 9.41,-8.26 9.41,-17.68 0,-9.42 -4.4,-17.68 -9.41,-17.68zm0 40.64c-8.25,0 -14.7,-10.09 -14.7,-22.96 0,-12.88 6.45,-22.96 14.7,-22.96 8.24,0 14.69,10.08 14.69,22.96 0,12.87 -6.45,22.96 -14.69,22.96z"/>
  <path class="fil0" d="M90.7 116.76c-2.94,0 -6.22,5.04 -6.22,12.28 0,7.23 3.28,12.28 6.22,12.28 2.93,0 6.21,-5.05 6.21,-12.28 0,-7.24 -3.28,-12.28 -6.21,-12.28zm0 29.84c-6.45,0 -11.5,-7.71 -11.5,-17.56 0,-9.85 5.05,-17.56 11.5,-17.56 6.44,0 11.49,7.71 11.49,17.56 0,9.85 -5.05,17.56 -11.49,17.56z"/>
  <path class="fil0" d="M170.47 116.76c-2.93,0 -6.21,5.04 -6.21,12.28 0,7.23 3.28,12.28 6.21,12.28 2.94,0 6.21,-5.05 6.21,-12.28 0,-7.24 -3.27,-12.28 -6.21,-12.28zm0 29.84c-6.44,0 -11.49,-7.71 -11.49,-17.56 0,-9.85 5.05,-17.56 11.49,-17.56 6.45,0 11.5,7.71 11.5,17.56 0,9.85 -5.05,17.56 -11.5,17.56z"/>
  <path class="fil0" d="M208.68 84.33c0,9.84 -3.94,12.64 -9.37,12.64 -5.42,0 -10.28,-2.8 -10.28,-12.64 0,-9.85 4.04,-30.2 9.46,-30.2 5.43,0 10.19,20.35 10.19,30.2z"/>
  <path class="fil0" d="M143.77 62.02c0,7.66 -3.07,9.84 -7.28,9.84 -4.23,0 -8,-2.18 -8,-9.84 0,-7.65 3.14,-23.49 7.36,-23.49 4.22,0 7.92,15.84 7.92,23.49z"/>
  <path class="fil0" d="M74.94 84.8c0,7.64 -3.06,9.81 -7.27,9.81 -4.21,0 -7.98,-2.17 -7.98,-9.81 0,-7.65 3.13,-23.44 7.34,-23.44 4.21,0 7.91,15.79 7.91,23.44z"/>
  <path class="fil0" d="M108.58 73.93c0,5.26 -2.1,6.75 -5,6.75 -2.89,0 -5.48,-1.49 -5.48,-6.75 0,-5.25 2.15,-16.11 5.05,-16.11 2.89,0 5.43,10.86 5.43,16.11z"/>
  <path class="fil0" d="M166.98 83.51c0,5.25 -2.1,6.74 -5,6.74 -2.89,0 -5.48,-1.49 -5.48,-6.74 0,-5.26 2.15,-16.12 5.05,-16.12 2.89,0 5.43,10.86 5.43,16.12z"/>
  <path class="fil0" d="M37.29 177.53c-0.39,0 -0.8,-0.09 -1.18,-0.28 -1.3,-0.65 -1.83,-2.24 -1.18,-3.54l8.73 -17.47c0.66,-1.3 2.24,-1.83 3.55,-1.18 1.3,0.65 1.83,2.24 1.18,3.54l-8.73 17.47c-0.47,0.92 -1.4,1.46 -2.37,1.46z"/>
  <path class="fil0" d="M51.48 177.53c-0.39,0 -0.8,-0.09 -1.18,-0.28 -1.3,-0.65 -1.83,-2.24 -1.18,-3.54l8.74 -17.47c0.65,-1.3 2.23,-1.83 3.54,-1.18 1.3,0.65 1.83,2.24 1.18,3.54l-8.73 17.47c-0.47,0.92 -1.4,1.46 -2.37,1.46z"/>
  <path class="fil0" d="M65.67 177.53c-0.39,0 -0.8,-0.09 -1.17,-0.28 -1.31,-0.65 -1.84,-2.24 -1.18,-3.54l8.73 -17.47c0.65,-1.3 2.24,-1.83 3.54,-1.18 1.31,0.65 1.84,2.24 1.18,3.54l-8.73 17.47c-0.46,0.92 -1.4,1.46 -2.37,1.46z"/>
  <path class="fil0" d="M176.22 177.53c-0.4,0 -0.8,-0.09 -1.18,-0.28 -1.31,-0.65 -1.84,-2.24 -1.18,-3.54l8.73 -17.47c0.65,-1.3 2.24,-1.83 3.54,-1.18 1.31,0.65 1.83,2.24 1.18,3.54l-8.73 17.47c-0.46,0.92 -1.4,1.46 -2.36,1.46z"/>
  <path class="fil0" d="M190.41 177.53c-0.4,0 -0.8,-0.09 -1.18,-0.28 -1.31,-0.65 -1.84,-2.24 -1.18,-3.54l8.73 -17.47c0.65,-1.3 2.24,-1.83 3.54,-1.18 1.31,0.65 1.84,2.24 1.18,3.54l-8.73 17.47c-0.46,0.92 -1.39,1.46 -2.36,1.46z"/>
  <path class="fil0" d="M204.6 177.53c-0.4,0 -0.8,-0.09 -1.18,-0.28 -1.3,-0.65 -1.83,-2.24 -1.18,-3.54l8.73 -17.47c0.65,-1.3 2.24,-1.83 3.55,-1.18 1.3,0.65 1.83,2.24 1.18,3.54l-8.74 17.47c-0.46,0.92 -1.39,1.46 -2.36,1.46z"/>
  <path class="fil0" d="M125.31 21.07c-59.03,0 -107.05,48.03 -107.05,107.06 0,59.03 48.02,107.06 107.05,107.06 59.04,0 107.06,-48.03 107.06,-107.06 0,-59.03 -48.02,-107.06 -107.06,-107.06zm0 220.03c-62.29,0 -112.97,-50.68 -112.97,-112.97 0,-62.3 50.68,-112.97 112.97,-112.97 62.3,0 112.98,50.67 112.98,112.97 0,62.29 -50.68,112.97 -112.98,112.97z"/>
  <path class="fil0" d="M151.27 201.55c6.71,0 11.32,-6.35 8.49,-11.89 -5.75,-11.28 -19.42,-19.21 -35.38,-19.21 -15.95,0 -29.63,7.93 -35.38,19.21 -2.82,5.54 1.78,11.89 8.49,11.89l53.78 0z"/>
 </g>
</svg>
