<?xml version="1.0" encoding="UTF-8"?>
<!DOCTYPE svg PUBLIC "-//W3C//DTD SVG 1.1//EN" "http://www.w3.org/Graphics/SVG/1.1/DTD/svg11.dtd">
<!-- Creator: CorelDRAW -->
<svg xmlns="http://www.w3.org/2000/svg" xml:space="preserve" width="256px" height="256px" version="1.1" style="shape-rendering:geometricPrecision; text-rendering:geometricPrecision; image-rendering:optimizeQuality; fill-rule:evenodd; clip-rule:evenodd"
viewBox="0 0 256 256"
 xmlns:xlink="http://www.w3.org/1999/xlink"
 xmlns:xodm="http://www.corel.com/coreldraw/odm/2003">
 <defs>
  <style type="text/css">
   <![CDATA[
    .fil0 {fill:#FAC02F;fill-rule:nonzero}
   ]]>
  </style>
 </defs>
 <g id="Capa_x0020_1">
  <metadata id="CorelCorpID_0Corel-Layer"/>
  <path class="fil0" d="M40.34 101.7c-0.08,-0.2 -0.15,-0.42 -0.18,-0.63 -2.37,-13.3 23.01,-16.7 31.17,-14.13 4.19,1.31 8.4,3.6 11.75,6.45 1.29,1.1 9.58,11.47 3.61,11.61 -0.88,0.03 -1.68,-0.49 -2.4,-0.99 -5.45,-3.85 -8.35,-9.56 -15.22,-11.2 -7.54,-1.8 -15.8,0.64 -21.07,6.35 -1.66,1.8 -5.86,6.92 -7.66,2.54z"/>
  <path class="fil0" d="M207.95 101.7c0.09,-0.2 0.15,-0.42 0.19,-0.63 2.37,-13.3 -23.02,-16.7 -31.18,-14.13 -4.19,1.31 -8.4,3.6 -11.74,6.45 -1.29,1.1 -9.59,11.47 -3.62,11.61 0.88,0.03 1.68,-0.49 2.4,-0.99 5.45,-3.85 8.35,-9.56 15.22,-11.2 7.54,-1.8 15.8,0.64 21.07,6.35 1.66,1.8 5.86,6.92 7.66,2.54z"/>
  <path class="fil0" d="M76.14 148.1c30.54,10.51 66.04,9.87 96.51,-0.65 11.05,-3.82 21.62,-9.18 30.89,-16.34 2.88,-2.22 8.18,-6.91 11.58,-2.54 1.94,2.49 0.31,6.65 -1.03,9.04 -3.24,5.82 -8.97,9.91 -14.21,13.78 -6.87,5.09 -14.5,9.13 -22.4,12.38 -13.42,5.53 -27.85,8.4 -42.3,9.37 -5.45,0.37 -10.91,0.47 -16.37,0.3 -0.15,-0.01 -0.31,-0.01 -0.47,-0.02 -7.76,-0.25 -15.5,-1.05 -23.16,-2.39 -14.57,-2.56 -28.78,-7.55 -41.67,-14.83 -1.41,-0.79 -2.81,-1.61 -4.19,-2.45 -4.62,-2.82 -9.08,-5.66 -11.73,-10.6 -0.96,-1.78 -1.51,-3.9 -0.94,-5.85 0.97,-3.32 4.55,-4.53 7.66,-3.87 4.91,1.05 8.88,3.88 13.17,6.28 4.53,2.54 9.23,4.77 14.06,6.69 1.53,0.61 3.06,1.18 4.6,1.7z"/>
  <path class="fil0" d="M126.22 21.66c-59.15,0 -107.27,48.11 -107.27,107.26 0,59.15 48.12,107.27 107.27,107.27 59.14,0 107.26,-48.12 107.26,-107.27 0,-59.15 -48.12,-107.26 -107.26,-107.26zm0 220.46c-62.42,0 -113.2,-50.78 -113.2,-113.2 0,-62.42 50.78,-113.18 113.2,-113.18 62.41,0 113.19,50.76 113.19,113.18 0,62.42 -50.78,113.2 -113.19,113.2z"/>
 </g>
</svg>
