<?xml version="1.0" encoding="UTF-8"?>
<!DOCTYPE svg PUBLIC "-//W3C//DTD SVG 1.1//EN" "http://www.w3.org/Graphics/SVG/1.1/DTD/svg11.dtd">
<!-- Creator: CorelDRAW -->
<svg xmlns="http://www.w3.org/2000/svg" xml:space="preserve" width="256px" height="256px" version="1.1" style="shape-rendering:geometricPrecision; text-rendering:geometricPrecision; image-rendering:optimizeQuality; fill-rule:evenodd; clip-rule:evenodd"
viewBox="0 0 256 256"
 xmlns:xlink="http://www.w3.org/1999/xlink"
 xmlns:xodm="http://www.corel.com/coreldraw/odm/2003">
 <defs>
  <style type="text/css">
   <![CDATA[
    .fil0 {fill:#C7C6C6;fill-rule:nonzero}
   ]]>
  </style>
 </defs>
 <g id="Capa_x0020_1">
  <metadata id="CorelCorpID_0Corel-Layer"/>
  <path class="fil0" d="M86.54 107.84c0,10.03 -4.82,18.16 -10.77,18.16 -5.95,0 -10.77,-8.13 -10.77,-18.16 0,-10.03 4.82,-18.16 10.77,-18.16 5.95,0 10.77,8.13 10.77,18.16z"/>
  <path class="fil0" d="M194.26 107.84c0,10.03 -4.82,18.16 -10.77,18.16 -5.95,0 -10.77,-8.13 -10.77,-18.16 0,-10.03 4.82,-18.16 10.77,-18.16 5.95,0 10.77,8.13 10.77,18.16z"/>
  <path class="fil0" d="M129.63 17.18c-59.43,0 -107.77,48.33 -107.77,107.76 0,59.43 48.34,107.77 107.77,107.77 59.42,0 107.77,-48.34 107.77,-107.77 0,-59.43 -48.35,-107.76 -107.77,-107.76zm0 221.49c-62.71,0 -113.72,-51.02 -113.72,-113.73 0,-62.71 51.01,-113.71 113.72,-113.71 62.71,0 113.72,51 113.72,113.71 0,62.71 -51.01,113.73 -113.72,113.73z"/>
 </g>
</svg>
