<?xml version="1.0" encoding="UTF-8"?>
<!DOCTYPE svg PUBLIC "-//W3C//DTD SVG 1.1//EN" "http://www.w3.org/Graphics/SVG/1.1/DTD/svg11.dtd">
<!-- Creator: CorelDRAW -->
<svg xmlns="http://www.w3.org/2000/svg" xml:space="preserve" width="256px" height="256px" version="1.1" style="shape-rendering:geometricPrecision; text-rendering:geometricPrecision; image-rendering:optimizeQuality; fill-rule:evenodd; clip-rule:evenodd"
viewBox="0 0 256 256"
 xmlns:xlink="http://www.w3.org/1999/xlink"
 xmlns:xodm="http://www.corel.com/coreldraw/odm/2003">
 <defs>
  <style type="text/css">
   <![CDATA[
    .fil0 {fill:#317EC2;fill-rule:nonzero}
   ]]>
  </style>
 </defs>
 <g id="Capa_x0020_1">
  <metadata id="CorelCorpID_0Corel-Layer"/>
  <path class="fil0" d="M172.17 185c6.1,0 10.64,-5.76 9.06,-11.63 -5.88,-21.94 -28.03,-38.25 -54.46,-38.25 -26.42,0 -48.57,16.31 -54.45,38.25 -1.58,5.87 2.96,11.63 9.05,11.63l34.49 -4.6c6.91,-0.93 13.9,-0.94 20.81,-0.04l35.5 4.64z"/>
  <path class="fil0" d="M50.83 83c0.52,0.94 1.57,1.74 3.23,2.16 13.76,3.59 40.83,-0.98 43.03,-18.35 0.37,-2.84 -1.09,-9.77 -5.18,-6.47 -4.3,3.46 -7.24,8.28 -11.68,11.69 -4.36,3.32 -9.45,5.16 -14.97,4.97 -3.58,-0.13 -7.48,-0.91 -10.98,0.17 -3.15,0.98 -4.59,3.75 -3.45,5.83z"/>
  <path class="fil0" d="M201.28 83c-0.51,0.94 -1.56,1.74 -3.21,2.16 -13.77,3.59 -40.83,-0.98 -43.05,-18.35 -0.37,-2.84 1.1,-9.77 5.18,-6.47 4.3,3.46 7.26,8.28 11.69,11.69 4.35,3.32 9.44,5.16 14.96,4.97 3.58,-0.13 7.48,-0.91 10.99,0.17 3.15,0.98 4.6,3.75 3.44,5.83z"/>
  <path class="fil0" d="M90.77 103.84c2.99,0.42 5.68,2 8.27,3.53 3.39,2.01 6.92,4.15 8.99,7.51 0.96,1.54 1.51,3.68 0.37,5.09 -0.77,0.94 -2.08,1.26 -3.29,1.38 -8.3,0.78 -16.46,-5.14 -24.58,-3.25 -3.51,0.8 -21.8,9.96 -16.47,-0.7 3.74,-7.46 18.92,-14.67 26.71,-13.56l0 0z"/>
  <path class="fil0" d="M161.34 103.84c-3,0.42 -5.67,2 -8.26,3.53 -3.4,2.01 -6.94,4.15 -9,7.51 -0.95,1.54 -1.49,3.68 -0.35,5.09 0.76,0.94 2.05,1.26 3.26,1.38 8.32,0.78 16.46,-5.14 24.61,-3.25 3.48,0.8 21.79,9.96 16.45,-0.7 -3.72,-7.46 -18.92,-14.67 -26.71,-13.56l0 0z"/>
  <path class="fil0" d="M196.27 145.38c0.59,3.72 2.29,7.99 5.39,10.33 2.8,2.13 6.77,1.62 9.16,-0.88 3.63,-3.81 2.22,-9.9 0.52,-14.25 -2.06,-5.26 -5.86,-10.58 -11.19,-12.88 -2.59,-1.14 -5.47,-1.37 -8.19,-0.54 -2.39,0.74 -1.04,3 -0.16,4.44 1.56,2.57 2.76,5.38 3.5,8.3 0.45,1.79 0.67,3.64 0.97,5.48l0 0z"/>
  <path class="fil0" d="M56.61 145.38c-0.6,3.72 -2.29,7.99 -5.39,10.33 -2.8,2.13 -6.78,1.62 -9.16,-0.88 -3.63,-3.81 -2.23,-9.9 -0.53,-14.25 2.06,-5.26 5.86,-10.58 11.19,-12.88 2.61,-1.14 5.48,-1.37 8.2,-0.54 2.39,0.74 1.04,3 0.16,4.44 -1.56,2.57 -2.77,5.38 -3.5,8.3 -0.45,1.79 -0.67,3.64 -0.97,5.48l0 0z"/>
  <path class="fil0" d="M126.43 13.56c-63.13,0 -114.5,51.37 -114.5,114.5 0,63.15 51.37,114.52 114.5,114.52 63.15,0 114.52,-51.37 114.52,-114.52 0,-63.13 -51.37,-114.5 -114.52,-114.5zm0 235.34c-66.62,0 -120.83,-54.2 -120.83,-120.84 0,-66.62 54.21,-120.83 120.83,-120.83 66.65,0 120.84,54.21 120.84,120.83 0,66.64 -54.19,120.84 -120.84,120.84z"/>
 </g>
</svg>
