<?xml version="1.0" encoding="UTF-8"?>
<!DOCTYPE svg PUBLIC "-//W3C//DTD SVG 1.1//EN" "http://www.w3.org/Graphics/SVG/1.1/DTD/svg11.dtd">
<!-- Creator: CorelDRAW -->
<svg xmlns="http://www.w3.org/2000/svg" xml:space="preserve" width="256px" height="256px" version="1.1" style="shape-rendering:geometricPrecision; text-rendering:geometricPrecision; image-rendering:optimizeQuality; fill-rule:evenodd; clip-rule:evenodd"
viewBox="0 0 256 256"
 xmlns:xlink="http://www.w3.org/1999/xlink"
 xmlns:xodm="http://www.corel.com/coreldraw/odm/2003">
 <defs>
  <style type="text/css">
   <![CDATA[
    .fil0 {fill:#F48134;fill-rule:nonzero}
   ]]>
  </style>
 </defs>
 <g id="Capa_x0020_1">
  <metadata id="CorelCorpID_0Corel-Layer"/>
  <path class="fil0" d="M126.39 135.77c7.52,0.1 14.95,2.23 21.06,6.79 9.52,7.1 13.78,19.66 13.6,30.24 -0.18,10.06 -3.86,20.5 -12.98,27.16 -14.9,10.88 -35.96,8.01 -49.31,-3.58 -24.42,-21.21 -8.45,-61.05 27.63,-60.61l0 0z"/>
  <path class="fil0" d="M159.17 77.99c-11.63,0 -21.09,9.46 -21.09,21.09 0,11.63 9.46,21.09 21.09,21.09 11.63,0 21.09,-9.46 21.09,-21.09 0,-11.63 -9.46,-21.09 -21.09,-21.09zm0 46.64c-14.09,0 -25.54,-11.46 -25.54,-25.55 0,-14.09 11.45,-25.54 25.54,-25.54 14.09,0 25.55,11.45 25.55,25.54 0,14.09 -11.46,25.55 -25.55,25.55z"/>
  <path class="fil0" d="M148.74 99.08c0,-5.76 4.67,-10.43 10.43,-10.43 5.77,0 10.43,4.67 10.43,10.43 0,5.77 -4.66,10.43 -10.43,10.43 -5.76,0 -10.43,-4.66 -10.43,-10.43z"/>
  <path class="fil0" d="M128.6 14.59c-61.04,0 -110.7,49.67 -110.7,110.71 0,61.03 49.66,110.68 110.7,110.68 61.03,0 110.69,-49.65 110.69,-110.68 0,-61.04 -49.66,-110.71 -110.69,-110.71zm0 227.5c-64.42,0 -116.81,-52.38 -116.81,-116.79 0,-64.42 52.39,-116.82 116.81,-116.82 64.4,0 116.8,52.4 116.8,116.82 0,64.41 -52.4,116.79 -116.8,116.79z"/>
  <path class="fil0" d="M83.92 79.43c-11.63,0 -21.09,9.46 -21.09,21.09 0,11.63 9.46,21.09 21.09,21.09 11.63,0 21.09,-9.46 21.09,-21.09 0,-11.63 -9.46,-21.09 -21.09,-21.09zm0 46.63c-14.09,0 -25.55,-11.45 -25.55,-25.54 0,-14.08 11.46,-25.54 25.55,-25.54 14.09,0 25.55,11.46 25.55,25.54 0,14.09 -11.46,25.54 -25.55,25.54z"/>
  <path class="fil0" d="M73.49 100.52c0,-5.76 4.66,-10.44 10.43,-10.44 5.76,0 10.43,4.68 10.43,10.44 0,5.76 -4.67,10.43 -10.43,10.43 -5.77,0 -10.43,-4.67 -10.43,-10.43z"/>
 </g>
</svg>
